<?xml version="1.0" encoding="UTF-8" standalone="no"?>
<!-- Created with Inkscape (http://www.inkscape.org/) -->

<svg
   xmlns:dc="http://purl.org/dc/elements/1.1/"
   xmlns:cc="http://creativecommons.org/ns#"
   xmlns:rdf="http://www.w3.org/1999/02/22-rdf-syntax-ns#"
   xmlns:svg="http://www.w3.org/2000/svg"
   xmlns="http://www.w3.org/2000/svg"
   xmlns:xlink="http://www.w3.org/1999/xlink"
   xmlns:sodipodi="http://sodipodi.sourceforge.net/DTD/sodipodi-0.dtd"
   xmlns:inkscape="http://www.inkscape.org/namespaces/inkscape"
   width="48"
   height="48"
   id="svg2"
   version="1.0">
<acyl-settings>
<linearGradient
     id="linearGradient4321">
    <stop
       style="stop-color:#0D6DC1;stop-opacity:1.0;"
       offset="0.0"
       id="stop1" />
    <stop
       style="stop-color:#080808;stop-opacity:1.0;"
       offset="1.0"
       id="stop2" />
  </linearGradient>
<linearGradient
     inkscape:collect="always"
     xlink:href="#linearGradient4321"
     id="acyl_gradient"
     x1="79.0%"
     y1="0.0%"
     x2="500.0%"
     y2="101.0%" />
<filter id="filter1111" x="-50%" y="-50%" width="200%" height="200%">
<feGaussianBlur in="SourceAlpha" stdDeviation="1" result="blur"/>
<feOffset in="blur" dy="1"/>
<feComposite in2="SourceAlpha" operator="arithmetic"
k2="-1" k3="1" result="hl"/>
<feFlood flood-color="white" flood-opacity="0.2"/>
<feComposite in2="hl" operator="in" result="hl"/>
<feMorphology in="SourceAlpha" radius="0" operator="dilate"/>
<feOffset dy="2"/>
<feGaussianBlur stdDeviation="0 1" result="drop"/>
<feFlood flood-color="black" flood-opacity="1"/>
<feComposite in2="drop" operator="in" result="drop"/>
<feMerge>
<feMergeNode in="drop"/>
<feMergeNode in="SourceGraphic"/>
<feMergeNode in="hl"/>
</feMerge>
</filter>
<use id="1" style="fill:url(#acyl_gradient);filter:url(#filter1111)" xlink:href="#path-main" />
</acyl-settings>
  <path
     style="fill:none"
     d="M 3.60931,4.0000202 C 2.717752,4.0000202 2,4.723483 2,5.6221392 L 2,42.377881 C 2,43.276537 2.717752,44 3.60931,44 l 40.78138,0 c 0.111445,0 0.224227,-0.01532 0.329177,-0.03689 C 45.454523,43.812348 46,43.16418 46,42.377861 l 0,-24.884783 c 0,-0.898656 -0.717752,-1.622119 -1.60931,-1.622119 l -34.34414,0 c -0.891557,0 -1.60931,0.723463 -1.60931,1.622119 0,0.898656 0.717753,1.622119 1.60931,1.622119 l 32.73483,0 0,21.640545 -37.56276,0 0,-33.5115039 12.874481,0 0,4.8663569 c 0,0.898656 0.717752,1.622119 1.60931,1.622119 l 21.469659,0 c 0.891558,0 1.60931,-0.723463 1.60931,-1.622119 0,-0.898656 -0.717752,-1.622119 -1.60931,-1.622119 l -19.860349,0 0,-4.866357 C 21.311721,4.7234628 20.593968,4 19.702411,4 L 3.60931,4 z"
     id="path-main" />
</svg>
