<?xml version="1.0" encoding="UTF-8" standalone="no"?>
<!-- Created with Inkscape (http://www.inkscape.org/) -->

<svg
   xmlns:dc="http://purl.org/dc/elements/1.1/"
   xmlns:cc="http://creativecommons.org/ns#"
   xmlns:rdf="http://www.w3.org/1999/02/22-rdf-syntax-ns#"
   xmlns:svg="http://www.w3.org/2000/svg"
   xmlns="http://www.w3.org/2000/svg"
   xmlns:sodipodi="http://sodipodi.sourceforge.net/DTD/sodipodi-0.dtd"
   xmlns:inkscape="http://www.inkscape.org/namespaces/inkscape"
   version="1.0"
   width="48"
   height="48"
   id="svg3172"
   inkscape:version="0.47 r22583"
   sodipodi:docname="stock_person-panel.svg">
<acyl-settings>
<linearGradient
     id="linearGradient4321">
    <stop
       style="stop-color:#0D6DC1;stop-opacity:1.0;"
       offset="0.0"
       id="stop1" />
    <stop
       style="stop-color:#080808;stop-opacity:1.0;"
       offset="1.0"
       id="stop2" />
  </linearGradient>
<linearGradient
     inkscape:collect="always"
     xlink:href="#linearGradient4321"
     id="acyl_gradient"
     x1="79.0%"
     y1="0.0%"
     x2="500.0%"
     y2="101.0%" />
<filter id="filter1111" x="-50%" y="-50%" width="200%" height="200%">
<feGaussianBlur in="SourceAlpha" stdDeviation="1" result="blur"/>
<feOffset in="blur" dy="1"/>
<feComposite in2="SourceAlpha" operator="arithmetic"
k2="-1" k3="1" result="hl"/>
<feFlood flood-color="white" flood-opacity="0.2"/>
<feComposite in2="hl" operator="in" result="hl"/>
<feMorphology in="SourceAlpha" radius="0" operator="dilate"/>
<feOffset dy="2"/>
<feGaussianBlur stdDeviation="0 1" result="drop"/>
<feFlood flood-color="black" flood-opacity="1"/>
<feComposite in2="drop" operator="in" result="drop"/>
<feMerge>
<feMergeNode in="drop"/>
<feMergeNode in="SourceGraphic"/>
<feMergeNode in="hl"/>
</feMerge>
</filter>
<use id="1" style="fill:url(#acyl_gradient);filter:url(#filter1111)" xlink:href="#path-main" />
</acyl-settings>
  <path
     style="fill:none"
     d="m 23.84375,3 c -2.697231,-0.2718777 -2.895802,0.8494709 -4.566166,0.7883581 -1.670364,-0.061113 -3.404899,1.3826001 -4.492511,3.0289661 -1.828939,1.9169254 -2.580668,4.5565238 -2.468731,7.1623848 0.275485,2.115263 -0.208137,3.900409 -0.691342,5.801541 -0.0083,2.718552 0.387421,5.771057 2.621958,7.61225 1.099754,1.288537 2.846009,3.564136 0.610936,4.711513 C 11.345363,35.077241 6.9893729,36.871186 2.8920984,38.771794 1.5209185,39.614172 2.1384452,41.361886 2,42.683129 1.716499,44.192872 3.1568568,45.287819 4.5736887,45 17.767876,45 30.962063,45 44.15625,45 45.841889,45.051254 46.149228,43.239196 46,41.939686 45.932323,40.600283 46.40147,38.727791 44.84375,38.09375 41.646792,36.796422 38.490005,35.430479 35.660807,33.348434 33.899029,32.305122 31.906932,30.445155 33.816428,28.500064 35.011065,26.81675 36.793784,25.426473 37.03209,23.218375 37.422819,21.230793 37.624001,19.030175 36.59375,17.25 36.539631,13.812517 37.026665,9.7939904 34.365155,7.1240711 31.598991,4.5002551 26.540981,3.2718777 23.84375,3 z"
     id="path-main"
     sodipodi:nodetypes="czccccccccccscccccz" />
</svg>
