<?xml version="1.0" encoding="UTF-8" standalone="no"?>
<!-- Created with Inkscape (http://www.inkscape.org/) -->

<svg
   xmlns:dc="http://purl.org/dc/elements/1.1/"
   xmlns:cc="http://creativecommons.org/ns#"
   xmlns:rdf="http://www.w3.org/1999/02/22-rdf-syntax-ns#"
   xmlns:svg="http://www.w3.org/2000/svg"
   xmlns="http://www.w3.org/2000/svg"
   xmlns:xlink="http://www.w3.org/1999/xlink"
   xmlns:sodipodi="http://sodipodi.sourceforge.net/DTD/sodipodi-0.dtd"
   xmlns:inkscape="http://www.inkscape.org/namespaces/inkscape"
   version="1.0"
   width="48"
   height="48"
   id="svg1872"
   inkscape:version="0.47pre4 r22446"
   sodipodi:docname="emblem-mail.svg">
<acyl-settings>
<linearGradient
     id="linearGradient4321">
    <stop
       style="stop-color:#0D6DC1;stop-opacity:1.0;"
       offset="0.0"
       id="stop1" />
    <stop
       style="stop-color:#080808;stop-opacity:1.0;"
       offset="1.0"
       id="stop2" />
  </linearGradient>
<linearGradient
     inkscape:collect="always"
     xlink:href="#linearGradient4321"
     id="acyl_gradient"
     x1="79.0%"
     y1="0.0%"
     x2="500.0%"
     y2="101.0%" />
<filter id="filter1111" x="-50%" y="-50%" width="200%" height="200%">
<feGaussianBlur in="SourceAlpha" stdDeviation="1" result="blur"/>
<feOffset in="blur" dy="1"/>
<feComposite in2="SourceAlpha" operator="arithmetic"
k2="-1" k3="1" result="hl"/>
<feFlood flood-color="white" flood-opacity="0.2"/>
<feComposite in2="hl" operator="in" result="hl"/>
<feMorphology in="SourceAlpha" radius="0" operator="dilate"/>
<feOffset dy="2"/>
<feGaussianBlur stdDeviation="0 1" result="drop"/>
<feFlood flood-color="black" flood-opacity="1"/>
<feComposite in2="drop" operator="in" result="drop"/>
<feMerge>
<feMergeNode in="drop"/>
<feMergeNode in="SourceGraphic"/>
<feMergeNode in="hl"/>
</feMerge>
</filter>
<use id="1" style="fill:url(#acyl_gradient);filter:url(#filter1111)" xlink:href="#path-main" />
</acyl-settings>
  <path
     d="M 24,2 C 11.849736,2 2,11.866711 2,24.014388 2,36.162063 11.849737,46 24,46 36.150265,46 46,36.162062 46,24.014388 46,11.866712 36.150266,2 24,2 z M 10.679688,14.489209 c 0.01909,-8.34e-4 0.0382,-8.34e-4 0.05729,0 l 26.783853,0 c 0.363742,3.25e-4 0.658531,0.296463 0.658854,0.66187 l 0,18.158274 c -3.23e-4,0.365406 -0.295112,0.661545 -0.658854,0.66187 l -26.783854,0 c -0.363741,-3.25e-4 -0.658531,-0.296464 -0.658854,-0.66187 l 0,-18.158274 c -0.001,-0.344087 0.260364,-0.631672 0.601563,-0.66187 z M 35.716146,15.985612 12.3125,16.158273 24.085937,26.661871 35.716146,15.985612 z m 1.145833,0.892086 -12.088542,10.992806 C 24.57665,28.068192 24.278038,28.129496 24,28.129496 c -0.274457,0 -0.458421,-0.08642 -0.544271,-0.172661 -0.05851,-0.03393 -7.947251,-7.216756 -12.059896,-10.791367 l 0,15.482014 25.466146,0 0,-15.769784 z"
     id="path-main"
     style="fill:none" />
</svg>
