<?xml version="1.0" encoding="UTF-8" standalone="no"?>
<!-- Created with Inkscape (http://www.inkscape.org/) -->

<svg
   xmlns:dc="http://purl.org/dc/elements/1.1/"
   xmlns:cc="http://creativecommons.org/ns#"
   xmlns:rdf="http://www.w3.org/1999/02/22-rdf-syntax-ns#"
   xmlns:svg="http://www.w3.org/2000/svg"
   xmlns="http://www.w3.org/2000/svg"
   xmlns:xlink="http://www.w3.org/1999/xlink"
   xmlns:sodipodi="http://sodipodi.sourceforge.net/DTD/sodipodi-0.dtd"
   xmlns:inkscape="http://www.inkscape.org/namespaces/inkscape"
   version="1.0"
   width="48"
   height="48"
   id="svg1872"
   inkscape:version="0.47pre4 r22446"
   sodipodi:docname="emblem-favorite.svg">
<acyl-settings>
<linearGradient
     id="linearGradient4321">
    <stop
       style="stop-color:#0D6DC1;stop-opacity:1.0;"
       offset="0.0"
       id="stop1" />
    <stop
       style="stop-color:#080808;stop-opacity:1.0;"
       offset="1.0"
       id="stop2" />
  </linearGradient>
<linearGradient
     inkscape:collect="always"
     xlink:href="#linearGradient4321"
     id="acyl_gradient"
     x1="79.0%"
     y1="0.0%"
     x2="500.0%"
     y2="101.0%" />
<filter id="filter1111" x="-50%" y="-50%" width="200%" height="200%">
<feGaussianBlur in="SourceAlpha" stdDeviation="1" result="blur"/>
<feOffset in="blur" dy="1"/>
<feComposite in2="SourceAlpha" operator="arithmetic"
k2="-1" k3="1" result="hl"/>
<feFlood flood-color="white" flood-opacity="0.2"/>
<feComposite in2="hl" operator="in" result="hl"/>
<feMorphology in="SourceAlpha" radius="0" operator="dilate"/>
<feOffset dy="2"/>
<feGaussianBlur stdDeviation="0 1" result="drop"/>
<feFlood flood-color="black" flood-opacity="1"/>
<feComposite in2="drop" operator="in" result="drop"/>
<feMerge>
<feMergeNode in="drop"/>
<feMergeNode in="SourceGraphic"/>
<feMergeNode in="hl"/>
</feMerge>
</filter>
<use id="1" style="fill:url(#acyl_gradient);filter:url(#filter1111)" xlink:href="#path-main" />
</acyl-settings>
<defs
     id="defs1874">
  </defs>
  <path
     d="M 24,2 C 11.849736,2 2,11.846433 2,24 2,36.153566 11.849736,46 24,46 36.150264,46 46,36.153566 46,24 46,11.846433 36.150264,2 24,2 z m 5.270833,10.624672 c 0.429442,-0.03046 0.89753,0.0067 1.375001,0.115485 l 0.05729,0.02887 c 5.606661,0.944642 8.850977,7.650456 6.101563,12.472441 -0.0045,0.0079 0.0045,0.021 0,0.02887 -0.006,0.01213 -0.02262,0.01677 -0.02864,0.02887 -2.695383,5.419572 -8.793709,8.486124 -12.120767,12.551837 -0.185363,0.23437 -0.390225,0.371719 -0.655275,0.371719 -0.264697,0 -0.559203,-0.232753 -0.744791,-0.33563 -3.339591,-4.081024 -9.121116,-7.049828 -11.802084,-12.443569 -0.0096,-0.01939 -0.01909,-0.03829 -0.02864,-0.05774 -2.7505903,-4.824417 0.523814,-11.527885 6.130208,-12.472441 l 0.0573,-0.02887 c 1.744604,-0.402521 3.431546,0.200268 4.726563,1.299213 0.740787,0.628629 1.352371,1.432772 1.833333,2.309711 1.063828,-2.063424 2.867332,-3.710479 5.098958,-3.868766 z"
     id="path-main"
     style="fill:none" />
</svg>
