<?xml version="1.0" encoding="UTF-8" standalone="no"?>
<!-- Created with Inkscape (http://www.inkscape.org/) -->

<svg
   xmlns:dc="http://purl.org/dc/elements/1.1/"
   xmlns:cc="http://creativecommons.org/ns#"
   xmlns:rdf="http://www.w3.org/1999/02/22-rdf-syntax-ns#"
   xmlns:svg="http://www.w3.org/2000/svg"
   xmlns="http://www.w3.org/2000/svg"
   xmlns:xlink="http://www.w3.org/1999/xlink"
   xmlns:sodipodi="http://sodipodi.sourceforge.net/DTD/sodipodi-0.dtd"
   xmlns:inkscape="http://www.inkscape.org/namespaces/inkscape"
   version="1.0"
   width="48"
   height="48"
   id="svg1872"
   inkscape:version="0.47pre4 r22446"
   sodipodi:docname="emblem-cvs-sticky-tag.svg">
<acyl-settings>
<linearGradient
     id="linearGradient4321">
    <stop
       style="stop-color:#0D6DC1;stop-opacity:1.0;"
       offset="0.0"
       id="stop1" />
    <stop
       style="stop-color:#080808;stop-opacity:1.0;"
       offset="1.0"
       id="stop2" />
  </linearGradient>
<linearGradient
     inkscape:collect="always"
     xlink:href="#linearGradient4321"
     id="acyl_gradient"
     x1="79.0%"
     y1="0.0%"
     x2="500.0%"
     y2="101.0%" />
<filter id="filter1111" x="-50%" y="-50%" width="200%" height="200%">
<feGaussianBlur in="SourceAlpha" stdDeviation="1" result="blur"/>
<feOffset in="blur" dy="1"/>
<feComposite in2="SourceAlpha" operator="arithmetic"
k2="-1" k3="1" result="hl"/>
<feFlood flood-color="white" flood-opacity="0.2"/>
<feComposite in2="hl" operator="in" result="hl"/>
<feMorphology in="SourceAlpha" radius="0" operator="dilate"/>
<feOffset dy="2"/>
<feGaussianBlur stdDeviation="0 1" result="drop"/>
<feFlood flood-color="black" flood-opacity="1"/>
<feComposite in2="drop" operator="in" result="drop"/>
<feMerge>
<feMergeNode in="drop"/>
<feMergeNode in="SourceGraphic"/>
<feMergeNode in="hl"/>
</feMerge>
</filter>
<use id="1" style="fill:url(#acyl_gradient);filter:url(#filter1111)" xlink:href="#path-main" />
</acyl-settings>
<defs
     id="defs1874">
  </defs>
  <path
     d="M 24,2 C 11.849736,2 2,11.846434 2,24 2,36.153566 11.849736,46.000001 24,46 36.150264,46 46,36.153567 46,24 46,11.846433 36.150264,2 24,2 z M 9.046875,13.635171 c 0.040344,-0.0027 0.1028848,-0.0027 0.1432292,0 l 29.6197918,0 c 0.329832,-0.0057 0.663474,0.174335 0.830729,0.461942 0.167256,0.287606 0.165188,0.663929 0,0.952756 L 24.802083,41.034121 C 24.643153,41.336098 24.338211,41.524935 24,41.524934 c -0.33821,0 -0.643152,-0.188835 -0.802083,-0.490813 L 8.359375,15.049869 C 8.2022495,14.779572 8.1920956,14.435313 8.3307292,14.154856 8.4693624,13.874398 8.7388223,13.670202 9.046875,13.635171 z m 7.877604,4.301837 c -0.323706,0.06809 -0.552792,0.359739 -0.544271,0.692913 l 0,4.301838 c -8.56e-4,0.184035 0.0714,0.360679 0.200521,0.490813 0.129117,0.130134 0.304382,0.202963 0.486979,0.2021 l 13.578125,0 c 0.182598,8.63e-4 0.357862,-0.07197 0.486979,-0.2021 0.129118,-0.130134 0.201377,-0.306778 0.200521,-0.490813 l 0,-4.301838 c 8.56e-4,-0.184035 -0.0714,-0.36068 -0.200521,-0.490813 -0.129117,-0.130134 -0.304381,-0.202963 -0.486979,-0.2021 l -13.578125,0 c -0.04761,-0.0051 -0.09562,-0.0051 -0.143229,0 z"
     id="path-main"
     style="fill:none" />
</svg>
