<svg
   xmlns="http://www.w3.org/2000/svg"
   width="48"
   height="48">
   <acyl-settings>
<linearGradient
     id="linearGradient4321">
    <stop
       style="stop-color:#0D6DC1;stop-opacity:1.0;"
       offset="0.0"
       id="stop1" />
    <stop
       style="stop-color:#080808;stop-opacity:1.0;"
       offset="1.0"
       id="stop2" />
  </linearGradient>
<linearGradient
     inkscape:collect="always"
     xlink:href="#linearGradient4321"
     id="acyl_gradient"
     x1="79.0%"
     y1="0.0%"
     x2="500.0%"
     y2="101.0%" />
<filter id="filter1111" x="-50%" y="-50%" width="200%" height="200%">
<feGaussianBlur in="SourceAlpha" stdDeviation="1" result="blur"/>
<feOffset in="blur" dy="1"/>
<feComposite in2="SourceAlpha" operator="arithmetic"
k2="-1" k3="1" result="hl"/>
<feFlood flood-color="white" flood-opacity="0.2"/>
<feComposite in2="hl" operator="in" result="hl"/>
<feMorphology in="SourceAlpha" radius="0" operator="dilate"/>
<feOffset dy="2"/>
<feGaussianBlur stdDeviation="0 1" result="drop"/>
<feFlood flood-color="black" flood-opacity="1"/>
<feComposite in2="drop" operator="in" result="drop"/>
<feMerge>
<feMergeNode in="drop"/>
<feMergeNode in="SourceGraphic"/>
<feMergeNode in="hl"/>
</feMerge>
</filter>
<use id="1" style="fill:url(#acyl_gradient);filter:url(#filter1111)" xlink:href="#path-main" />
</acyl-settings>
  <path
     d="m 13.649888,30.748173 0,0 c 0,0 -1.080956,1.338046 -3.088468,4.894098 -2.0074966,3.556051 -6.0997105,2.473776 -7.4895189,0.773056 -1.38981,-1.700722 -1.2353873,-5.256774 -0.6176924,-8.890132 0.6176924,-3.633356 1.0809619,-11.595821 4.6327015,-12.910015 0.077201,-1.855331 0.6176857,-3.652953 3.3200958,-3.730257 2.702397,-0.0773 3.939906,0.224216 4.246639,2.302075 7.407006,-1.888559 11.735135,-1.495109 18.376365,0 0.562614,-1.505713 0.761155,-2.257539 3.879858,-2.302075 3.314415,-0.04674 3.793059,1.430281 3.870259,3.749443 1.467027,1.082279 3.059514,1.295008 4.14047,9.025555 1.080956,7.730549 1.621441,11.13199 0.308842,12.600793 -1.312598,1.468805 -5.63645,2.860303 -7.103463,0.773056 -1.467027,-2.087248 -3.783367,-6.285597 -3.783367,-6.285597 0,0 -5.250394,5.280625 -8.647705,-1.754173 -2.007498,0 -3.55174,0 -3.55174,0 0,0 -3.088453,6.392502 -8.493276,1.754173 z"
     id="path-main"
     style="fill:none" />
</svg>
