<?xml version="1.0" encoding="UTF-8" standalone="no"?>
<!-- Created with Inkscape (http://www.inkscape.org/) -->
<svg
   xmlns:svg="http://www.w3.org/2000/svg"
   xmlns="http://www.w3.org/2000/svg"
   xmlns:xlink="http://www.w3.org/1999/xlink"
   version="1.0"
   width="48"
   height="48"
   id="svg2">
<acyl-settings>
<linearGradient
     id="linearGradient4321">
    <stop
       style="stop-color:#0D6DC1;stop-opacity:1.0;"
       offset="0.0"
       id="stop1" />
    <stop
       style="stop-color:#080808;stop-opacity:1.0;"
       offset="1.0"
       id="stop2" />
  </linearGradient>
<linearGradient
     inkscape:collect="always"
     xlink:href="#linearGradient4321"
     id="acyl_gradient"
     x1="79.0%"
     y1="0.0%"
     x2="500.0%"
     y2="101.0%" />
<filter id="filter1111" x="-50%" y="-50%" width="200%" height="200%">
<feGaussianBlur in="SourceAlpha" stdDeviation="1" result="blur"/>
<feOffset in="blur" dy="1"/>
<feComposite in2="SourceAlpha" operator="arithmetic"
k2="-1" k3="1" result="hl"/>
<feFlood flood-color="white" flood-opacity="0.2"/>
<feComposite in2="hl" operator="in" result="hl"/>
<feMorphology in="SourceAlpha" radius="0" operator="dilate"/>
<feOffset dy="2"/>
<feGaussianBlur stdDeviation="0 1" result="drop"/>
<feFlood flood-color="black" flood-opacity="1"/>
<feComposite in2="drop" operator="in" result="drop"/>
<feMerge>
<feMergeNode in="drop"/>
<feMergeNode in="SourceGraphic"/>
<feMergeNode in="hl"/>
</feMerge>
</filter>
<use id="1" style="fill:url(#acyl_gradient);filter:url(#filter1111)" xlink:href="#path-main" />
</acyl-settings>
<defs
     id="defs4" />
  <g
     id="layer1">
    <path
       d="M 15.03125,5 L 15.03125,5.5 L 15.03125,20.09375 L 7.53125,20.09375 L 6.4375,20.09375 L 7.15625,20.90625 L 23.65625,39.84375 L 23.78125,40 L 7.53125,40 L 7.03125,40 L 7.03125,40.5 L 7.03125,44.5 L 7.03125,45 L 7.53125,45 L 40.53125,45 L 41.03125,45 L 41.03125,44.5 L 41.03125,40.5 L 41.03125,40 L 40.53125,40 L 24.28125,40 L 24.4375,39.84375 L 40.84375,20.90625 L 41.5625,20.09375 L 40.46875,20.09375 L 33.09375,20.09375 L 33.09375,5.5 L 33.09375,5 L 32.59375,5 L 15.53125,5 L 15.03125,5 z"
       id="path-main"
       style="fill:none" />
  </g>
</svg>
