<?xml version="1.0" encoding="UTF-8" standalone="no"?>
<!-- Created with Inkscape (http://www.inkscape.org/) -->

<svg
   xmlns:dc="http://purl.org/dc/elements/1.1/"
   xmlns:cc="http://creativecommons.org/ns#"
   xmlns:rdf="http://www.w3.org/1999/02/22-rdf-syntax-ns#"
   xmlns:svg="http://www.w3.org/2000/svg"
   xmlns="http://www.w3.org/2000/svg"
   xmlns:xlink="http://www.w3.org/1999/xlink"
   xmlns:sodipodi="http://sodipodi.sourceforge.net/DTD/sodipodi-0.dtd"
   xmlns:inkscape="http://www.inkscape.org/namespaces/inkscape"
   version="1.0"
   width="48"
   height="48"
   id="svg2169"
   inkscape:version="0.47 r22583"
   sodipodi:docname="dialog-close.svg">
<acyl-settings>
<linearGradient
     id="linearGradient4321">
    <stop
       style="stop-color:#0D6DC1;stop-opacity:1.0;"
       offset="0.0"
       id="stop1" />
    <stop
       style="stop-color:#080808;stop-opacity:1.0;"
       offset="1.0"
       id="stop2" />
  </linearGradient>
<linearGradient
     inkscape:collect="always"
     xlink:href="#linearGradient4321"
     id="acyl_gradient"
     x1="79.0%"
     y1="0.0%"
     x2="500.0%"
     y2="101.0%" />
<filter id="filter1111" x="-50%" y="-50%" width="200%" height="200%">
<feGaussianBlur in="SourceAlpha" stdDeviation="1" result="blur"/>
<feOffset in="blur" dy="1"/>
<feComposite in2="SourceAlpha" operator="arithmetic"
k2="-1" k3="1" result="hl"/>
<feFlood flood-color="white" flood-opacity="0.2"/>
<feComposite in2="hl" operator="in" result="hl"/>
<feMorphology in="SourceAlpha" radius="0" operator="dilate"/>
<feOffset dy="2"/>
<feGaussianBlur stdDeviation="0 1" result="drop"/>
<feFlood flood-color="black" flood-opacity="1"/>
<feComposite in2="drop" operator="in" result="drop"/>
<feMerge>
<feMergeNode in="drop"/>
<feMergeNode in="SourceGraphic"/>
<feMergeNode in="hl"/>
</feMerge>
</filter>
<use id="1" style="fill:url(#acyl_gradient);filter:url(#filter1111)" xlink:href="#path-main" />
</acyl-settings>
  <path
     style="fill:none"
     d="m 8.0159334,6.5028889 c -1.92474,-0.097668 -3.2288702,2.3025855 -2.0924418,3.8476821 1.6663622,1.813627 3.5006464,3.494238 5.2311044,5.251564 l 8.945186,8.891262 C 15.424563,29.13543 10.739413,33.770838 6.0804246,38.428243 4.7886562,39.856658 5.8260191,42.391895 7.754377,42.483907 9.3650931,42.671264 10.267342,41.179631 11.311529,40.248091 15.372543,36.187693 19.4444,32.091514 23.5,28.029104 c 4.0556,4.06241 8.127457,8.158589 12.188471,12.218987 1.044188,0.93154 1.946436,2.423173 3.557151,2.235816 1.928358,-0.09202 2.965722,-2.627249 1.673954,-4.055664 C 36.260587,33.770838 31.575439,29.13543 26.900218,24.493397 l 8.945186,-8.891262 c 1.730457,-1.757326 3.564742,-3.437937 5.231105,-5.251564 C 42.212937,8.8054744 40.908803,6.4052209 38.984066,6.5028889 38.411713,6.5012989 37.858114,6.7138885 37.414736,7.0748425 32.77079,11.66596 28.126121,16.295961 23.5,20.905694 18.873879,16.295961 14.22921,11.66596 9.5852634,7.0748425 9.1418858,6.7138885 8.5882884,6.5012905 8.0159334,6.5028889 z"
     id="path-main" />
</svg>
