<?xml version="1.0" encoding="UTF-8" standalone="no"?>
<!-- Created with Inkscape (http://www.inkscape.org/) -->

<svg
   xmlns:dc="http://purl.org/dc/elements/1.1/"
   xmlns:cc="http://creativecommons.org/ns#"
   xmlns:rdf="http://www.w3.org/1999/02/22-rdf-syntax-ns#"
   xmlns:svg="http://www.w3.org/2000/svg"
   xmlns="http://www.w3.org/2000/svg"
   xmlns:sodipodi="http://sodipodi.sourceforge.net/DTD/sodipodi-0.dtd"
   xmlns:inkscape="http://www.inkscape.org/namespaces/inkscape"
   version="1.0"
   width="48"
   height="48"
   id="svg3172"
   inkscape:version="0.47 r22583"
   sodipodi:docname="account-logged-in.svg">
<acyl-settings>
<linearGradient
     id="linearGradient4321">
    <stop
       style="stop-color:#0D6DC1;stop-opacity:1.0;"
       offset="0.0"
       id="stop1" />
    <stop
       style="stop-color:#080808;stop-opacity:1.0;"
       offset="1.0"
       id="stop2" />
  </linearGradient>
<linearGradient
     inkscape:collect="always"
     xlink:href="#linearGradient4321"
     id="acyl_gradient"
     x1="79.0%"
     y1="0.0%"
     x2="500.0%"
     y2="101.0%" />
<filter id="filter1111" x="-50%" y="-50%" width="200%" height="200%">
<feGaussianBlur in="SourceAlpha" stdDeviation="1" result="blur"/>
<feOffset in="blur" dy="1"/>
<feComposite in2="SourceAlpha" operator="arithmetic"
k2="-1" k3="1" result="hl"/>
<feFlood flood-color="white" flood-opacity="0.2"/>
<feComposite in2="hl" operator="in" result="hl"/>
<feMorphology in="SourceAlpha" radius="0" operator="dilate"/>
<feOffset dy="2"/>
<feGaussianBlur stdDeviation="0 1" result="drop"/>
<feFlood flood-color="black" flood-opacity="1"/>
<feComposite in2="drop" operator="in" result="drop"/>
<feMerge>
<feMergeNode in="drop"/>
<feMergeNode in="SourceGraphic"/>
<feMergeNode in="hl"/>
</feMerge>
</filter>
<use id="1" style="fill:url(#acyl_gradient);filter:url(#filter1111)" xlink:href="#path-main" />
</acyl-settings>
  <path
     style="fill:none"
     d="M 23.992714,2.001869 C 15.343636,1.882994 7.005774,7.445974 3.7275559,15.439197 0.30425675,23.292138 2.0788441,33.047353 8.073877,39.172819 13.84101,45.380717 23.342633,47.651766 31.299313,44.751164 39.546066,41.946393 45.629945,33.845424 45.958551,25.130126 46.505573,16.657686 41.591018,8.192811 34.002974,4.409476 30.920455,2.824524 27.458073,1.996594 23.992714,2.001869 z m 9.426203,6.284815 c 2.094713,2.094938 4.189423,4.189876 6.284136,6.284815 C 33.942596,22.427518 28.182137,30.283536 22.42168,38.139554 18.232258,34.473412 14.042833,30.807272 9.85341,27.141129 c 2.094712,-2.09494 4.189423,-4.189876 6.284135,-6.284815 2.094713,2.094939 4.189423,4.189875 6.284135,6.284815 C 26.087427,20.856314 29.753171,14.5715 33.418917,8.286684 z"
     id="path-main" />
</svg>
