<?xml version="1.0" encoding="UTF-8" standalone="no"?>
<!-- Created with Inkscape (http://www.inkscape.org/) -->

<svg
   xmlns:dc="http://purl.org/dc/elements/1.1/"
   xmlns:cc="http://creativecommons.org/ns#"
   xmlns:rdf="http://www.w3.org/1999/02/22-rdf-syntax-ns#"
   xmlns:svg="http://www.w3.org/2000/svg"
   xmlns="http://www.w3.org/2000/svg"
   xmlns:sodipodi="http://sodipodi.sourceforge.net/DTD/sodipodi-0.dtd"
   xmlns:inkscape="http://www.inkscape.org/namespaces/inkscape"
   version="1.1"
   width="48"
   height="48"
   id="svg7739"
   inkscape:version="0.47 r22583"
   sodipodi:docname="gtk-dialog-authentication-panel.svg">
<acyl-settings>
<linearGradient
     id="linearGradient4321">
    <stop
       style="stop-color:#0D6DC1;stop-opacity:1.0;"
       offset="0.0"
       id="stop1" />
    <stop
       style="stop-color:#080808;stop-opacity:1.0;"
       offset="1.0"
       id="stop2" />
  </linearGradient>
<linearGradient
     inkscape:collect="always"
     xlink:href="#linearGradient4321"
     id="acyl_gradient"
     x1="79.0%"
     y1="0.0%"
     x2="500.0%"
     y2="101.0%" />
<filter id="filter1111" x="-50%" y="-50%" width="200%" height="200%">
<feGaussianBlur in="SourceAlpha" stdDeviation="1" result="blur"/>
<feOffset in="blur" dy="1"/>
<feComposite in2="SourceAlpha" operator="arithmetic"
k2="-1" k3="1" result="hl"/>
<feFlood flood-color="white" flood-opacity="0.2"/>
<feComposite in2="hl" operator="in" result="hl"/>
<feMorphology in="SourceAlpha" radius="0" operator="dilate"/>
<feOffset dy="2"/>
<feGaussianBlur stdDeviation="0 1" result="drop"/>
<feFlood flood-color="black" flood-opacity="1"/>
<feComposite in2="drop" operator="in" result="drop"/>
<feMerge>
<feMergeNode in="drop"/>
<feMergeNode in="SourceGraphic"/>
<feMergeNode in="hl"/>
</feMerge>
</filter>
<use id="1" style="fill:url(#acyl_gradient);filter:url(#filter1111)" xlink:href="#path-main" />
</acyl-settings>
  <path
     style="fill:none"
     d="M 24.40625 2 C 18.727684 1.951919 13.391921 6.2411848 12.34375 11.625 C 11.295578 17.008815 14.127546 22.057268 19.4375 24 L 19.4375 38.65625 C 19.4375 43.545041 22.217315 46.040379 24.34375 46 C 26.470186 45.95962 29.21875 43.545041 29.21875 38.65625 L 34.125 36.21875 L 26.78125 33.78125 L 34.125 28.875 L 29.21875 26.4375 L 29.21875 24 C 34.56323 22.147488 37.356311 17.244487 36.40625 11.84375 C 35.45619 6.4430123 30.084815 2.0480837 24.40625 2 z M 38 6 L 38 26 L 40 34 L 44 34 L 46 26 L 46 6 L 38 6 z M 24.40625 9.25 C 25.8356 9.25 26.9375 10.351894 26.9375 11.78125 C 26.9375 13.210605 25.8356 14.3125 24.40625 14.3125 C 22.976899 14.3125 21.90625 13.210605 21.90625 11.78125 C 21.90625 10.351894 22.976899 9.25 24.40625 9.25 z M 24.40625 11.6875 C 24.45959 11.6875 24.34375 11.834584 24.34375 11.78125 C 24.34375 11.72791 24.459585 11.84375 24.40625 11.84375 C 24.35291 11.84375 24.5 11.727916 24.5 11.78125 C 24.5 11.83459 24.352916 11.6875 24.40625 11.6875 z M 38 38 L 38 46 L 46 46 L 46 38 L 38 38 z "
     id="path-main" />
</svg>
