<svg
   xmlns="http://www.w3.org/2000/svg"
   width="48"
   height="48">
   <acyl-settings>
<linearGradient
     id="linearGradient4321">
    <stop
       style="stop-color:#0D6DC1;stop-opacity:1.0;"
       offset="0.0"
       id="stop1" />
    <stop
       style="stop-color:#080808;stop-opacity:1.0;"
       offset="1.0"
       id="stop2" />
  </linearGradient>
<linearGradient
     inkscape:collect="always"
     xlink:href="#linearGradient4321"
     id="acyl_gradient"
     x1="79.0%"
     y1="0.0%"
     x2="500.0%"
     y2="101.0%" />
<filter id="filter1111" x="-50%" y="-50%" width="200%" height="200%">
<feGaussianBlur in="SourceAlpha" stdDeviation="1" result="blur"/>
<feOffset in="blur" dy="1"/>
<feComposite in2="SourceAlpha" operator="arithmetic"
k2="-1" k3="1" result="hl"/>
<feFlood flood-color="white" flood-opacity="0.2"/>
<feComposite in2="hl" operator="in" result="hl"/>
<feMorphology in="SourceAlpha" radius="0" operator="dilate"/>
<feOffset dy="2"/>
<feGaussianBlur stdDeviation="0 1" result="drop"/>
<feFlood flood-color="black" flood-opacity="1"/>
<feComposite in2="drop" operator="in" result="drop"/>
<feMerge>
<feMergeNode in="drop"/>
<feMergeNode in="SourceGraphic"/>
<feMergeNode in="hl"/>
</feMerge>
</filter>
<use id="1" style="fill:url(#acyl_gradient);filter:url(#filter1111)" xlink:href="#path-main" />
</acyl-settings>
    <path
       d="M 12.000019,34.495541 C 11.998439,34.674961 12.093099,34.841481 12.248089,34.931881 C 12.403079,35.022291 12.594619,35.022731 12.750019,34.933041 L 30.000019,24.589291 L 30.000019,34.495541 C 30.000049,34.771671 30.223889,34.995511 30.500019,34.995541 L 35.500019,34.995541 C 35.776149,34.995511 35.999989,34.771671 36.000019,34.495541 L 36.000019,13.495541 C 35.999989,13.219411 35.776149,12.995571 35.500019,12.995541 L 30.500019,12.995541 C 30.223889,12.995571 30.000049,13.219411 30.000019,13.495541 L 30.000019,23.401791 L 12.750019,13.058041 C 12.594619,12.968351 12.403079,12.968791 12.248089,13.059201 C 12.093099,13.149601 11.998439,13.316121 12.000019,13.495541 L 12.000019,34.495541 z"
       id="path-main"
       style="fill:none" />
</svg>
