<?xml version="1.0" encoding="UTF-8" standalone="no"?>
<!-- Created with Inkscape (http://www.inkscape.org/) -->

<svg
   xmlns:dc="http://purl.org/dc/elements/1.1/"
   xmlns:cc="http://creativecommons.org/ns#"
   xmlns:rdf="http://www.w3.org/1999/02/22-rdf-syntax-ns#"
   xmlns:svg="http://www.w3.org/2000/svg"
   xmlns="http://www.w3.org/2000/svg"
   xmlns:xlink="http://www.w3.org/1999/xlink"
   xmlns:sodipodi="http://sodipodi.sourceforge.net/DTD/sodipodi-0.dtd"
   xmlns:inkscape="http://www.inkscape.org/namespaces/inkscape"
   version="1.0"
   width="48"
   height="48"
   id="svg6600"
   inkscape:version="0.47pre4 r22446"
   sodipodi:docname="notification-keyboard-brightness-off.svg">
<acyl-settings>
<linearGradient
     id="linearGradient4321">
    <stop
       style="stop-color:#0D6DC1;stop-opacity:1.0;"
       offset="0.0"
       id="stop1" />
    <stop
       style="stop-color:#080808;stop-opacity:1.0;"
       offset="1.0"
       id="stop2" />
  </linearGradient>
<linearGradient
     inkscape:collect="always"
     xlink:href="#linearGradient4321"
     id="acyl_gradient"
     x1="79.0%"
     y1="0.0%"
     x2="500.0%"
     y2="101.0%" />
<filter id="filter1111" x="-50%" y="-50%" width="200%" height="200%">
<feGaussianBlur in="SourceAlpha" stdDeviation="1" result="blur"/>
<feOffset in="blur" dy="1"/>
<feComposite in2="SourceAlpha" operator="arithmetic"
k2="-1" k3="1" result="hl"/>
<feFlood flood-color="white" flood-opacity="0.2"/>
<feComposite in2="hl" operator="in" result="hl"/>
<feMorphology in="SourceAlpha" radius="0" operator="dilate"/>
<feOffset dy="2"/>
<feGaussianBlur stdDeviation="0 1" result="drop"/>
<feFlood flood-color="black" flood-opacity="1"/>
<feComposite in2="drop" operator="in" result="drop"/>
<feMerge>
<feMergeNode in="drop"/>
<feMergeNode in="SourceGraphic"/>
<feMergeNode in="hl"/>
</feMerge>
</filter>
<use id="1" style="fill:url(#acyl_gradient);filter:url(#filter1111)" xlink:href="#path-main" />
</acyl-settings>
<defs
     id="defs6602">
  </defs>
  <path
     style="fill:none"
     id="path-main"
     d="m 8.1672828,29.214791 c -0.1060077,2.1e-5 -0.2185804,0.06629 -0.2905789,0.145287 l -5.7824207,6.421683 c -0.061999,0.06898 -0.087172,0.167518 -0.087172,0.261516 0,0.04503 -0.016,0.103289 0,0.145287 l 0.8426643,2.266477 C 2.9037843,38.603017 3.0404671,38.6875 3.198464,38.6875 l 41.581126,0 c 0.157988,2e-6 0.29569,-0.08447 0.348689,-0.232459 l 0.842664,-2.266477 c 0.01501,-0.042 0.02906,-0.100288 0.02906,-0.145287 0,-0.09397 -0.02517,-0.191518 -0.08717,-0.261516 l -5.811478,-6.421683 c -0.07101,-0.07898 -0.184576,-0.145287 -0.290574,-0.145287 l -31.6434982,0 z m 0.8426593,1.452866 20.3692309,3e-6 1.365697,3.196313 -24.4082078,-0.02906 2.6732799,-3.167256 z m 21.2990679,0 8.630045,3e-6 2.789509,3.196313 -9.90857,-0.02906 -1.510984,-3.167256 z"/>
</svg>
