<svg
   xmlns="http://www.w3.org/2000/svg"
   width="48"
   height="48">
   <acyl-settings>
<linearGradient
     id="linearGradient4321">
    <stop
       style="stop-color:#0D6DC1;stop-opacity:1.0;"
       offset="0.0"
       id="stop1" />
    <stop
       style="stop-color:#080808;stop-opacity:1.0;"
       offset="1.0"
       id="stop2" />
  </linearGradient>
<linearGradient
     inkscape:collect="always"
     xlink:href="#linearGradient4321"
     id="acyl_gradient"
     x1="79.0%"
     y1="0.0%"
     x2="500.0%"
     y2="101.0%" />
<filter id="filter1111" x="-50%" y="-50%" width="200%" height="200%">
<feGaussianBlur in="SourceAlpha" stdDeviation="1" result="blur"/>
<feOffset in="blur" dy="1"/>
<feComposite in2="SourceAlpha" operator="arithmetic"
k2="-1" k3="1" result="hl"/>
<feFlood flood-color="white" flood-opacity="0.2"/>
<feComposite in2="hl" operator="in" result="hl"/>
<feMorphology in="SourceAlpha" radius="0" operator="dilate"/>
<feOffset dy="2"/>
<feGaussianBlur stdDeviation="0 1" result="drop"/>
<feFlood flood-color="black" flood-opacity="1"/>
<feComposite in2="drop" operator="in" result="drop"/>
<feMerge>
<feMergeNode in="drop"/>
<feMergeNode in="SourceGraphic"/>
<feMergeNode in="hl"/>
</feMerge>
</filter>
<use id="1" style="fill:url(#acyl_gradient);filter:url(#filter1111)" xlink:href="#path-main" />
</acyl-settings>
    <path
       d="M 23.625,8.25 C 23.484558,8.2708112 23.359584,8.3503406 23.28125,8.46875 L 10.46875,26.21875 C 10.365282,26.370855 10.352629,26.555537 10.4375,26.71875 C 10.522371,26.881964 10.691058,26.997348 10.875,27 L 36.5,27 C 36.683942,26.997348 36.852629,26.881964 36.9375,26.71875 C 37.022373,26.555537 37.009718,26.370855 36.90625,26.21875 L 24.09375,8.46875 C 23.990281,8.3144029 23.809757,8.2301586 23.625,8.25 z M 10.125,30 L 10.125,30.5 L 10.125,35.46875 L 10.125,35.96875 L 10.625,35.96875 L 36.5,35.96875 L 37,35.96875 L 37,35.46875 L 37,30.5 L 37,30 L 36.5,30 L 10.625,30 L 10.125,30 z"
       id="path-main"
       style="fill:none" />
</svg>
