<?xml version="1.0" encoding="UTF-8" standalone="no"?>
<!-- Created with Inkscape (http://www.inkscape.org/) -->

<svg
   xmlns:dc="http://purl.org/dc/elements/1.1/"
   xmlns:cc="http://creativecommons.org/ns#"
   xmlns:rdf="http://www.w3.org/1999/02/22-rdf-syntax-ns#"
   xmlns:svg="http://www.w3.org/2000/svg"
   xmlns="http://www.w3.org/2000/svg"
   xmlns:xlink="http://www.w3.org/1999/xlink"
   xmlns:sodipodi="http://sodipodi.sourceforge.net/DTD/sodipodi-0.dtd"
   xmlns:inkscape="http://www.inkscape.org/namespaces/inkscape"
   version="1.0"
   width="48"
   height="48"
   id="svg2"
   inkscape:version="0.47pre4 r22446"
   sodipodi:docname="stock_weather-snow.svg">
<acyl-settings>
<linearGradient
     id="linearGradient4321">
    <stop
       style="stop-color:#0D6DC1;stop-opacity:1.0;"
       offset="0.0"
       id="stop1" />
    <stop
       style="stop-color:#080808;stop-opacity:1.0;"
       offset="1.0"
       id="stop2" />
  </linearGradient>
<linearGradient
     inkscape:collect="always"
     xlink:href="#linearGradient4321"
     id="acyl_gradient"
     x1="79.0%"
     y1="0.0%"
     x2="500.0%"
     y2="101.0%" />
<filter id="filter1111" x="-50%" y="-50%" width="200%" height="200%">
<feGaussianBlur in="SourceAlpha" stdDeviation="1" result="blur"/>
<feOffset in="blur" dy="1"/>
<feComposite in2="SourceAlpha" operator="arithmetic"
k2="-1" k3="1" result="hl"/>
<feFlood flood-color="white" flood-opacity="0.2"/>
<feComposite in2="hl" operator="in" result="hl"/>
<feMorphology in="SourceAlpha" radius="0" operator="dilate"/>
<feOffset dy="2"/>
<feGaussianBlur stdDeviation="0 1" result="drop"/>
<feFlood flood-color="black" flood-opacity="1"/>
<feComposite in2="drop" operator="in" result="drop"/>
<feMerge>
<feMergeNode in="drop"/>
<feMergeNode in="SourceGraphic"/>
<feMergeNode in="hl"/>
</feMerge>
</filter>
<use id="1" style="fill:url(#acyl_gradient);filter:url(#filter1111)" xlink:href="#path-main" />
</acyl-settings>
<defs
     id="defs5">
  </defs>
  <path
     style="fill:none"
     id="path-main"
     d="m 22.375,4.375 0,5.90625 -4.75,-2.71875 -1.25,2.15625 6,3.4375 0,8.0625 -7,-4.03125 0,-6.90625 -2.46875,0 0,5.46875 -5.125,-2.9375 -1.65625,2.8125 5.125,2.96875 -4.75,2.75 1.25,2.15625 6,-3.46875 7,4.03125 -7,4.03125 -6,-3.46875 -1.25,2.15625 4.75,2.75 -5.125,2.96875 1.65625,2.8125 5.125,-2.9375 0,5.46875 2.46875,0 0,-6.90625 7,-4.03125 0,8.0625 -6,3.4375 1.25,2.15625 4.75,-2.71875 0,5.90625 3.25,0 0,-5.90625 4.75,2.71875 1.25,-2.15625 -6,-3.4375 0,-8.0625 7,4.03125 0,6.90625 2.46875,0 0,-5.46875 5.125,2.9375 L 41.875,32.5 36.75,29.53125 l 4.75,-2.75 -1.25,-2.15625 -6,3.46875 -7,-4.03125 7,-4.03125 6,3.46875 1.25,-2.15625 -4.75,-2.75 5.125,-2.96875 -1.65625,-2.8125 -5.125,2.9375 0,-5.46875 -2.46875,0 0,6.90625 -7,4.03125 0,-8.0625 6,-3.4375 -1.25,-2.15625 -4.75,2.71875 0,-5.90625 -3.25,0 z" />
</svg>
