<svg
   xmlns="http://www.w3.org/2000/svg"
   width="48"
   height="48">
<acyl-settings>
<linearGradient
     id="linearGradient4321">
    <stop
       style="stop-color:#0D6DC1;stop-opacity:1.0;"
       offset="0.0"
       id="stop1" />
    <stop
       style="stop-color:#080808;stop-opacity:1.0;"
       offset="1.0"
       id="stop2" />
  </linearGradient>
<linearGradient
     inkscape:collect="always"
     xlink:href="#linearGradient4321"
     id="acyl_gradient"
     x1="79.0%"
     y1="0.0%"
     x2="500.0%"
     y2="101.0%" />
<filter id="filter1111" x="-50%" y="-50%" width="200%" height="200%">
<feGaussianBlur in="SourceAlpha" stdDeviation="1" result="blur"/>
<feOffset in="blur" dy="1"/>
<feComposite in2="SourceAlpha" operator="arithmetic"
k2="-1" k3="1" result="hl"/>
<feFlood flood-color="white" flood-opacity="0.2"/>
<feComposite in2="hl" operator="in" result="hl"/>
<feMorphology in="SourceAlpha" radius="0" operator="dilate"/>
<feOffset dy="2"/>
<feGaussianBlur stdDeviation="0 1" result="drop"/>
<feFlood flood-color="black" flood-opacity="1"/>
<feComposite in2="drop" operator="in" result="drop"/>
<feMerge>
<feMergeNode in="drop"/>
<feMergeNode in="SourceGraphic"/>
<feMergeNode in="hl"/>
</feMerge>
</filter>
<use id="1" style="fill:url(#acyl_gradient);filter:url(#filter1111)" xlink:href="#path-main" />
</acyl-settings>
  <path
     style="fill:none"
     d="M 20.350711,5.9292285 C 10.230212,5.9292285 2.0000002,14.150347 2,24.279939 2,34.409532 10.230213,42.63065 20.350711,42.63065 c 4.803053,0 9.17238,-1.871922 12.442338,-4.900474 l 13.206951,0 -8.167457,-8.167456 c 0.508328,-1.682436 0.834124,-3.435026 0.834124,-5.282781 0,-10.129592 -8.195457,-18.3507103 -18.315956,-18.3507105 z M 8.116904,23.063509 l 4.900474,0 0,4.900474 -4.900474,0 0,-4.900474 z m 9.800948,0 4.865718,0 0,4.900474 -4.865718,0 0,-4.900474 z m 9.766192,0 4.900474,0 0,4.900474 -4.900474,0 0,-4.900474 z"
     id="path-main" />
</svg>
