<?xml version="1.0" encoding="UTF-8" standalone="no"?>
<!-- Created with Inkscape (http://www.inkscape.org/) -->

<svg
   xmlns:dc="http://purl.org/dc/elements/1.1/"
   xmlns:cc="http://creativecommons.org/ns#"
   xmlns:rdf="http://www.w3.org/1999/02/22-rdf-syntax-ns#"
   xmlns:svg="http://www.w3.org/2000/svg"
   xmlns="http://www.w3.org/2000/svg"
   xmlns:xlink="http://www.w3.org/1999/xlink"
   xmlns:sodipodi="http://sodipodi.sourceforge.net/DTD/sodipodi-0.dtd"
   xmlns:inkscape="http://www.inkscape.org/namespaces/inkscape"
   version="1.0"
   width="48"
   height="48"
   id="svg2383"
   inkscape:version="0.47pre4 r22446"
   sodipodi:docname="folder-locked.svg">

<acyl-settings>
<linearGradient
     id="linearGradient4321">
    <stop
       style="stop-color:#0D6DC1;stop-opacity:1.0;"
       offset="0.0"
       id="stop1" />
    <stop
       style="stop-color:#080808;stop-opacity:1.0;"
       offset="1.0"
       id="stop2" />
  </linearGradient>
<linearGradient
     inkscape:collect="always"
     xlink:href="#linearGradient4321"
     id="acyl_gradient"
     x1="79.0%"
     y1="0.0%"
     x2="500.0%"
     y2="101.0%" />
<filter id="filter1111" x="-50%" y="-50%" width="200%" height="200%">
<feGaussianBlur in="SourceAlpha" stdDeviation="1" result="blur"/>
<feOffset in="blur" dy="1"/>
<feComposite in2="SourceAlpha" operator="arithmetic"
k2="-1" k3="1" result="hl"/>
<feFlood flood-color="white" flood-opacity="0.2"/>
<feComposite in2="hl" operator="in" result="hl"/>
<feMorphology in="SourceAlpha" radius="0" operator="dilate"/>
<feOffset dy="2"/>
<feGaussianBlur stdDeviation="0 1" result="drop"/>
<feFlood flood-color="black" flood-opacity="1"/>
<feComposite in2="drop" operator="in" result="drop"/>
<feMerge>
<feMergeNode in="drop"/>
<feMergeNode in="SourceGraphic"/>
<feMergeNode in="hl"/>
</feMerge>
</filter>
<use id="1" style="fill:url(#acyl_gradient);filter:url(#filter1111)" xlink:href="#path-main" />
</acyl-settings>
<defs
     id="defs2385">
  </defs>
  <path
     style="fill:none"
     id="path-main"
     d="M 3 7 L 3 42 L 45 42 L 45 10.5 L 25.75 10.5 L 25.75 7 L 3 7 z M 4.75 8.75 L 24 8.75 L 24 12.25 L 43.25 12.25 L 43.25 15.75 L 20.5 15.75 L 20.5 12.25 L 4.75 12.25 L 4.75 8.75 z M 24 21.03125 L 24.40625 21.03125 C 27.33125 21.03125 29.4375 22.731222 29.4375 25.65625 L 29.4375 28.15625 L 30.28125 28.125 C 31.116964 28.125 31.5 28.570536 31.5 29.40625 L 31.5 36.5 C 31.5 36.909635 31.081501 37.746 30.40625 37.75 L 18.125 37.75 C 17.289286 37.75 16.875 36.909636 16.875 36.5 L 16.875 29.40625 C 16.875 28.570536 17.289286 28.15625 18.125 28.15625 L 18.96875 28.15625 L 18.96875 25.65625 C 18.96875 22.803918 21.075 21.03125 24 21.03125 z M 24 23.125 C 21.074951 23.125 21.0625 25.633036 21.0625 26.46875 L 21.0625 28.15625 L 27.34375 28.15625 L 27.34375 26.46875 C 27.34375 25.633036 27.33125 23.125 24.40625 23.125 L 24 23.125 z M 24.125 29.375 C 23.071863 29.375 22.25 30.228113 22.25 31.28125 C 22.25 31.876821 22.541021 32.369065 22.96875 32.71875 L 22.96875 34.84375 C 22.96875 35.530416 23.500835 36.09375 24.1875 36.09375 C 24.874165 36.09375 25.40625 35.530416 25.40625 34.84375 L 25.40625 32.6875 C 25.786814 32.338883 26.03125 31.838032 26.03125 31.28125 C 26.03125 30.228113 25.178137 29.375 24.125 29.375 z "
 />
</svg>
