<?xml version="1.0" encoding="UTF-8" standalone="no"?>
<!-- Created with Inkscape (http://www.inkscape.org/) -->

<svg
   xmlns:dc="http://purl.org/dc/elements/1.1/"
   xmlns:cc="http://creativecommons.org/ns#"
   xmlns:rdf="http://www.w3.org/1999/02/22-rdf-syntax-ns#"
   xmlns:svg="http://www.w3.org/2000/svg"
   xmlns="http://www.w3.org/2000/svg"
   xmlns:sodipodi="http://sodipodi.sourceforge.net/DTD/sodipodi-0.dtd"
   xmlns:inkscape="http://www.inkscape.org/namespaces/inkscape"
   version="1.0"
   width="48"
   height="48"
   id="svg3332"
   inkscape:version="0.47 r22583"
   sodipodi:docname="brasero-disc-30.svg">
<acyl-settings>
<linearGradient
     id="linearGradient4321">
    <stop
       style="stop-color:#0D6DC1;stop-opacity:1.0;"
       offset="0.0"
       id="stop1" />
    <stop
       style="stop-color:#080808;stop-opacity:1.0;"
       offset="1.0"
       id="stop2" />
  </linearGradient>
<linearGradient
     inkscape:collect="always"
     xlink:href="#linearGradient4321"
     id="acyl_gradient"
     x1="79.0%"
     y1="0.0%"
     x2="500.0%"
     y2="101.0%" />
<filter id="filter1111" x="-50%" y="-50%" width="200%" height="200%">
<feGaussianBlur in="SourceAlpha" stdDeviation="1" result="blur"/>
<feOffset in="blur" dy="1"/>
<feComposite in2="SourceAlpha" operator="arithmetic"
k2="-1" k3="1" result="hl"/>
<feFlood flood-color="white" flood-opacity="0.2"/>
<feComposite in2="hl" operator="in" result="hl"/>
<feMorphology in="SourceAlpha" radius="0" operator="dilate"/>
<feOffset dy="2"/>
<feGaussianBlur stdDeviation="0 1" result="drop"/>
<feFlood flood-color="black" flood-opacity="1"/>
<feComposite in2="drop" operator="in" result="drop"/>
<feMerge>
<feMergeNode in="drop"/>
<feMergeNode in="SourceGraphic"/>
<feMergeNode in="hl"/>
</feMerge>
</filter>
<use id="1" style="fill:url(#acyl_gradient);filter:url(#filter1111)" xlink:href="#path-main" />
</acyl-settings>
<defs
     id="defs3334">
  </defs>
  <path
     style="fill:none"
     d="M 24 2 C 11.856 2 2 11.856002 2 24 C 2 36.143997 11.856 46 24 46 C 36.144001 46 46 36.143997 46 24 C 46 11.856002 36.144001 2 24 2 z M 24 3 L 24 14.71875 C 29.119529 14.71875 33.28125 18.880467 33.28125 24 C 33.28125 26.575723 32.228415 28.912643 30.53125 30.59375 L 38.78125 38.90625 C 30.544625 47.07149 17.25899 47.017875 9.09375 38.78125 C 0.92850998 30.544625 0.98212506 17.25899 9.21875 9.09375 C 13.151628 5.1949571 18.46212 3.0000016 24 3 z M 24 16.03125 L 24 17.96875 C 27.333647 17.96875 30.03125 20.666353 30.03125 24 C 30.03125 25.682756 29.361565 27.21702 28.25 28.3125 L 29.625 29.6875 C 31.08754 28.240689 31.96875 26.218207 31.96875 24 C 31.96875 19.594823 28.405176 16.03125 24 16.03125 z "
     id="path-main" />
</svg>
