<svg
   xmlns="http://www.w3.org/2000/svg"
   width="48"
   height="48">
<acyl-settings>
<linearGradient
     id="linearGradient4321">
    <stop
       style="stop-color:#0D6DC1;stop-opacity:1.0;"
       offset="0.0"
       id="stop1" />
    <stop
       style="stop-color:#080808;stop-opacity:1.0;"
       offset="1.0"
       id="stop2" />
  </linearGradient>
<linearGradient
     inkscape:collect="always"
     xlink:href="#linearGradient4321"
     id="acyl_gradient"
     x1="79.0%"
     y1="0.0%"
     x2="500.0%"
     y2="101.0%" />
<filter id="filter1111" x="-50%" y="-50%" width="200%" height="200%">
<feGaussianBlur in="SourceAlpha" stdDeviation="1" result="blur"/>
<feOffset in="blur" dy="1"/>
<feComposite in2="SourceAlpha" operator="arithmetic"
k2="-1" k3="1" result="hl"/>
<feFlood flood-color="white" flood-opacity="0.2"/>
<feComposite in2="hl" operator="in" result="hl"/>
<feMorphology in="SourceAlpha" radius="0" operator="dilate"/>
<feOffset dy="2"/>
<feGaussianBlur stdDeviation="0 1" result="drop"/>
<feFlood flood-color="black" flood-opacity="1"/>
<feComposite in2="drop" operator="in" result="drop"/>
<feMerge>
<feMergeNode in="drop"/>
<feMergeNode in="SourceGraphic"/>
<feMergeNode in="hl"/>
</feMerge>
</filter>
<use id="1" style="fill:url(#acyl_gradient);filter:url(#filter1111)" xlink:href="#path-main" />
</acyl-settings>
  <path
     style="fill:none"
     d="M 23.6875 2 A 4.5812446 4.5801257 0 0 0 19.40625 6.59375 A 4.5812446 4.5801257 0 0 0 28.59375 6.59375 A 4.5812446 4.5801257 0 0 0 23.6875 2 z M 10.84375 6.59375 A 4.5848248 4.5801259 0 0 0 6.5625 11.15625 A 4.5848248 4.5801259 0 0 0 15.75 11.15625 A 4.5848248 4.5801259 0 0 0 10.84375 6.59375 z M 36.5 6.59375 A 4.584825 4.5837068 0 0 0 32.25 11.15625 A 4.584825 4.5837068 0 0 0 41.4375 11.15625 A 4.584825 4.5837068 0 0 0 36.5 6.59375 z M 6.71875 19.40625 A 4.5812446 4.5801257 0 0 0 2 24 A 4.5812446 4.5801257 0 0 0 11.15625 24 A 4.5812446 4.5801257 0 0 0 6.71875 19.40625 z M 41.09375 19.4375 A 4.5812446 4.5801257 0 0 0 36.84375 24 A 4.5812446 4.5801257 0 0 0 46 24 A 4.5812446 4.5801257 0 0 0 41.09375 19.4375 z M 10.84375 32.25 A 4.5848286 4.5837065 0 0 0 6.5625 36.84375 A 4.5848286 4.5837065 0 0 0 15.75 36.84375 A 4.5848286 4.5837065 0 0 0 10.84375 32.25 z M 36.5 32.25 A 4.5848285 4.5837065 0 0 0 32.25 36.84375 A 4.5848285 4.5837065 0 0 0 41.4375 36.84375 A 4.5848285 4.5837065 0 0 0 36.5 32.25 z M 23.65625 36.84375 A 4.5812446 4.5801257 0 0 0 19.40625 41.40625 A 4.5812446 4.5801257 0 0 0 28.5625 41.40625 A 4.5812446 4.5801257 0 0 0 23.65625 36.84375 z "
     id="path-main" />
</svg>
