<svg
   xmlns="http://www.w3.org/2000/svg"
   width="48"
   height="48">
   <acyl-settings>
<linearGradient
     id="linearGradient4321">
    <stop
       style="stop-color:#0D6DC1;stop-opacity:1.0;"
       offset="0.0"
       id="stop1" />
    <stop
       style="stop-color:#080808;stop-opacity:1.0;"
       offset="1.0"
       id="stop2" />
  </linearGradient>
<linearGradient
     inkscape:collect="always"
     xlink:href="#linearGradient4321"
     id="acyl_gradient"
     x1="79.0%"
     y1="0.0%"
     x2="500.0%"
     y2="101.0%" />
<filter id="filter1111" x="-50%" y="-50%" width="200%" height="200%">
<feGaussianBlur in="SourceAlpha" stdDeviation="1" result="blur"/>
<feOffset in="blur" dy="1"/>
<feComposite in2="SourceAlpha" operator="arithmetic"
k2="-1" k3="1" result="hl"/>
<feFlood flood-color="white" flood-opacity="0.2"/>
<feComposite in2="hl" operator="in" result="hl"/>
<feMorphology in="SourceAlpha" radius="0" operator="dilate"/>
<feOffset dy="2"/>
<feGaussianBlur stdDeviation="0 1" result="drop"/>
<feFlood flood-color="black" flood-opacity="1"/>
<feComposite in2="drop" operator="in" result="drop"/>
<feMerge>
<feMergeNode in="drop"/>
<feMergeNode in="SourceGraphic"/>
<feMergeNode in="hl"/>
</feMerge>
</filter>
<use id="1" style="fill:url(#acyl_gradient);filter:url(#filter1111)" xlink:href="#path-main" />
</acyl-settings>
    <path
       d="M 13.09375,4.59375 C 12.693018,4.5937501 12.40625,4.8950423 12.40625,5.28125 L 12.40625,41.90625 C 12.40625,42.292463 12.693018,42.59375 13.09375,42.59375 L 23.875,42.59375 L 36.40625,30.78125 L 36.40625,16.78125 L 23.5,4.59375 L 13.09375,4.59375 z M 25.53125,4.59375 L 36.40625,14.84375 L 36.40625,5.28125 C 36.406248,4.8950423 36.056977,4.59375 35.65625,4.59375 L 25.53125,4.59375 z M 24.5,11.875 L 35.21875,22.96875 L 33.09375,22.9375 L 33.1875,31.84375 L 16.5625,31.875 L 16.53125,23 L 14.0625,23 L 24.5,11.875 z M 36.40625,32.6875 L 25.90625,42.59375 L 35.65625,42.59375 C 36.056986,42.593752 36.40625,42.292462 36.40625,41.90625 L 36.40625,32.6875 z"
       id="path-main"
       style="fill:none" />
</svg>
