<svg
   xmlns="http://www.w3.org/2000/svg"
   width="48"
   height="48">
<acyl-settings>
<linearGradient
     id="linearGradient4321">
    <stop
       style="stop-color:#0D6DC1;stop-opacity:1.0;"
       offset="0.0"
       id="stop1" />
    <stop
       style="stop-color:#080808;stop-opacity:1.0;"
       offset="1.0"
       id="stop2" />
  </linearGradient>
<linearGradient
     inkscape:collect="always"
     xlink:href="#linearGradient4321"
     id="acyl_gradient"
     x1="79.0%"
     y1="0.0%"
     x2="500.0%"
     y2="101.0%" />
<filter id="filter1111" x="-50%" y="-50%" width="200%" height="200%">
<feGaussianBlur in="SourceAlpha" stdDeviation="1" result="blur"/>
<feOffset in="blur" dy="1"/>
<feComposite in2="SourceAlpha" operator="arithmetic"
k2="-1" k3="1" result="hl"/>
<feFlood flood-color="white" flood-opacity="0.2"/>
<feComposite in2="hl" operator="in" result="hl"/>
<feMorphology in="SourceAlpha" radius="0" operator="dilate"/>
<feOffset dy="2"/>
<feGaussianBlur stdDeviation="0 1" result="drop"/>
<feFlood flood-color="black" flood-opacity="1"/>
<feComposite in2="drop" operator="in" result="drop"/>
<feMerge>
<feMergeNode in="drop"/>
<feMergeNode in="SourceGraphic"/>
<feMergeNode in="hl"/>
</feMerge>
</filter>
<use id="1" style="fill:url(#acyl_gradient);filter:url(#filter1111)" xlink:href="#path-main" />
</acyl-settings>
  <path
     style="fill:none"
     d="M 36.40625 7 C 36.406188 9.9999725 34.304499 10.056797 31.96875 10.09375 L 7.625 10.09375 C 7.0330035 10.08525 6.5 10.595626 6.5 11.1875 C 6.5 11.779374 7.0330035 12.32097 7.625 12.3125 L 31.96875 12.3125 C 35.382521 12.3125 38.34375 11.347808 38.4375 9.25 L 43.75 9.25 L 43.75 34.34375 C 43.75 35.614803 43.338785 36.602102 42.15625 37.40625 C 41.821928 37.63355 41.41755 37.817897 40.9375 38 C 41.150614 37.467325 41.25 36.882022 41.25 36.21875 L 41.25 13.6875 L 2 13.6875 L 2 35.46875 C 2 38.51966 4.4481547 40.973501 7.5 40.96875 C 17.139776 40.95374 26.798885 41.03034 36.4375 40.96875 C 39.510336 40.94346 41.791703 40.347879 43.40625 39.25 C 45.151268 38.063368 46 36.217045 46 34.34375 L 46 7 L 36.40625 7 z M 28.65625 17.75 L 31.03125 20.15625 L 28.65625 22.25 L 27.71875 22.375 L 23.40625 26.71875 L 29.25 32.59375 C 29.683411 33.029395 29.683411 33.751857 29.25 34.1875 L 28.375 35.03125 C 27.941591 35.466894 27.277161 35.466893 26.84375 35.03125 L 21 29.15625 L 20.15625 29.96875 C 20.706327 30.829656 20.755325 31.838846 20.1875 32.40625 L 16.53125 36.03125 C 15.836212 36.725777 14.513763 36.513062 13.5625 35.5625 L 13.21875 35.21875 C 12.267487 34.268189 12.054963 32.975777 12.75 32.28125 L 16.40625 28.59375 C 16.997815 28.002625 18.051996 28.070056 18.9375 28.6875 L 19.71875 27.90625 L 17.53125 25.65625 C 16.549885 26.364996 15.25958 26.201638 14.375 25.3125 L 13.0625 24.03125 C 12.089545 23.053283 12.081012 21.460485 13.03125 20.46875 C 13.866713 21.362475 14.768954 22.217708 15.625 23.09375 L 16.6875 23.09375 L 17.34375 22.40625 L 17.34375 21.34375 L 14.78125 18.75 C 15.7679 17.79487 17.308299 17.834535 18.28125 18.8125 L 19.5625 20.09375 C 20.447078 20.98289 20.642611 22.263578 19.9375 23.25 L 22.125 25.46875 L 26.4375 21.09375 L 26.75 20 L 28.65625 17.75 z "
     id="path-main" />
</svg>
