<svg
   xmlns="http://www.w3.org/2000/svg"
   width="48"
   height="48">
<acyl-settings>
<linearGradient
     id="linearGradient4321">
    <stop
       style="stop-color:#0D6DC1;stop-opacity:1.0;"
       offset="0.0"
       id="stop1" />
    <stop
       style="stop-color:#080808;stop-opacity:1.0;"
       offset="1.0"
       id="stop2" />
  </linearGradient>
<linearGradient
     inkscape:collect="always"
     xlink:href="#linearGradient4321"
     id="acyl_gradient"
     x1="79.0%"
     y1="0.0%"
     x2="500.0%"
     y2="101.0%" />
<filter id="filter1111" x="-50%" y="-50%" width="200%" height="200%">
<feGaussianBlur in="SourceAlpha" stdDeviation="1" result="blur"/>
<feOffset in="blur" dy="1"/>
<feComposite in2="SourceAlpha" operator="arithmetic"
k2="-1" k3="1" result="hl"/>
<feFlood flood-color="white" flood-opacity="0.2"/>
<feComposite in2="hl" operator="in" result="hl"/>
<feMorphology in="SourceAlpha" radius="0" operator="dilate"/>
<feOffset dy="2"/>
<feGaussianBlur stdDeviation="0 1" result="drop"/>
<feFlood flood-color="black" flood-opacity="1"/>
<feComposite in2="drop" operator="in" result="drop"/>
<feMerge>
<feMergeNode in="drop"/>
<feMergeNode in="SourceGraphic"/>
<feMergeNode in="hl"/>
</feMerge>
</filter>
<use id="1" style="fill:url(#acyl_gradient);filter:url(#filter1111)" xlink:href="#path-main" />
</acyl-settings>
  <path
     style="fill:none"
     d="m 36.40625,7 c -6.2e-5,2.9999725 -2.101751,3.056797 -4.4375,3.09375 l -24.34375,0 C 7.0330035,10.08525 6.5,10.595626 6.5,11.1875 c 0,0.591874 0.5330035,1.13347 1.125,1.125 l 24.34375,0 c 3.413771,0 6.375,-0.964692 6.46875,-3.0625 l 5.3125,0 0,25.09375 c 0,1.271053 -0.411215,2.258352 -1.59375,3.0625 C 41.821928,37.63355 41.41755,37.817897 40.9375,38 41.150614,37.467325 41.25,36.882022 41.25,36.21875 l 0,-22.53125 -39.25,0 0,21.78125 c 0,3.05091 2.4481547,5.504751 5.5,5.5 9.639776,-0.01501 19.298885,0.06159 28.9375,0 C 39.510336,40.94346 41.791703,40.347879 43.40625,39.25 45.151268,38.063368 46,36.217045 46,34.34375 L 46,7 36.40625,7 z m -15.010125,10.18345 9.0625,10.71875 0,8.5625 -17.6875,0.03125 0,-8.5625 8.625,-10.75 z"
     id="path-main" />
</svg>
