<svg
   xmlns="http://www.w3.org/2000/svg"
   width="48"
   height="48">
<acyl-settings>
<linearGradient
     id="linearGradient4321">
    <stop
       style="stop-color:#0D6DC1;stop-opacity:1.0;"
       offset="0.0"
       id="stop1" />
    <stop
       style="stop-color:#080808;stop-opacity:1.0;"
       offset="1.0"
       id="stop2" />
  </linearGradient>
<linearGradient
     inkscape:collect="always"
     xlink:href="#linearGradient4321"
     id="acyl_gradient"
     x1="79.0%"
     y1="0.0%"
     x2="500.0%"
     y2="101.0%" />
<filter id="filter1111" x="-50%" y="-50%" width="200%" height="200%">
<feGaussianBlur in="SourceAlpha" stdDeviation="1" result="blur"/>
<feOffset in="blur" dy="1"/>
<feComposite in2="SourceAlpha" operator="arithmetic"
k2="-1" k3="1" result="hl"/>
<feFlood flood-color="white" flood-opacity="0.2"/>
<feComposite in2="hl" operator="in" result="hl"/>
<feMorphology in="SourceAlpha" radius="0" operator="dilate"/>
<feOffset dy="2"/>
<feGaussianBlur stdDeviation="0 1" result="drop"/>
<feFlood flood-color="black" flood-opacity="1"/>
<feComposite in2="drop" operator="in" result="drop"/>
<feMerge>
<feMergeNode in="drop"/>
<feMergeNode in="SourceGraphic"/>
<feMergeNode in="hl"/>
</feMerge>
</filter>
<use id="1" style="fill:url(#acyl_gradient);filter:url(#filter1111)" xlink:href="#path-main" />
</acyl-settings>
  <path
     style="fill:none"
     d="m 36.398653,6.9999988 c -6.2e-5,2.9999725 -2.091556,3.0432502 -4.427305,3.0802032 l -24.3458904,0 c -0.5919965,-0.0085 -1.1365722,0.528202 -1.1365722,1.120076 0,0.591874 0.5445757,1.128546 1.1365722,1.120076 l 24.3458904,0 c 3.413771,0 6.360362,-0.982407 6.454112,-3.0802152 l 5.333688,0 0,25.1084282 c 0,1.271053 -0.428075,2.241076 -1.61061,3.045224 -0.334322,0.2273 -0.745415,0.436236 -1.225465,0.618339 0.213114,-0.532675 0.338459,-1.133518 0.338459,-1.79679 l 0,-22.529922 -39.261532,0 0,21.783197 c 0,3.05091 2.456909,5.511807 5.5087543,5.507056 9.6397757,-0.01501 19.2823377,0.06159 28.9209527,0 3.072836,-0.02529 5.364764,-0.640333 6.979311,-1.738212 1.745018,-1.186632 2.590983,-3.01539 2.590983,-4.888685 l 0,-27.3485783 -9.601348,-1.969e-4 z"
     id="path-main" />
</svg>
