<svg
   xmlns="http://www.w3.org/2000/svg"
   width="48"
   height="48">
<acyl-settings>
<linearGradient
     id="linearGradient4321">
    <stop
       style="stop-color:#0D6DC1;stop-opacity:1.0;"
       offset="0.0"
       id="stop1" />
    <stop
       style="stop-color:#080808;stop-opacity:1.0;"
       offset="1.0"
       id="stop2" />
  </linearGradient>
<linearGradient
     inkscape:collect="always"
     xlink:href="#linearGradient4321"
     id="acyl_gradient"
     x1="79.0%"
     y1="0.0%"
     x2="500.0%"
     y2="101.0%" />
<filter id="filter1111" x="-50%" y="-50%" width="200%" height="200%">
<feGaussianBlur in="SourceAlpha" stdDeviation="1" result="blur"/>
<feOffset in="blur" dy="1"/>
<feComposite in2="SourceAlpha" operator="arithmetic"
k2="-1" k3="1" result="hl"/>
<feFlood flood-color="white" flood-opacity="0.2"/>
<feComposite in2="hl" operator="in" result="hl"/>
<feMorphology in="SourceAlpha" radius="0" operator="dilate"/>
<feOffset dy="2"/>
<feGaussianBlur stdDeviation="0 1" result="drop"/>
<feFlood flood-color="black" flood-opacity="1"/>
<feComposite in2="drop" operator="in" result="drop"/>
<feMerge>
<feMergeNode in="drop"/>
<feMergeNode in="SourceGraphic"/>
<feMergeNode in="hl"/>
</feMerge>
</filter>
<use id="1" style="fill:url(#acyl_gradient);filter:url(#filter1111)" xlink:href="#path-main" />
</acyl-settings>
  <path
     style="fill:none"
     d="M 36.40625 7 C 36.406188 9.9999725 34.304499 10.056797 31.96875 10.09375 L 7.625 10.09375 C 7.0330035 10.08525 6.5 10.595626 6.5 11.1875 C 6.5 11.779374 7.0330035 12.32097 7.625 12.3125 L 31.96875 12.3125 C 35.382521 12.3125 38.34375 11.347808 38.4375 9.25 L 43.75 9.25 L 43.75 34.34375 C 43.75 35.614803 43.338785 36.602102 42.15625 37.40625 C 41.821928 37.63355 41.41755 37.817897 40.9375 38 C 41.150614 37.467325 41.25 36.882022 41.25 36.21875 L 41.25 13.6875 L 2 13.6875 L 2 35.46875 C 2 38.51966 4.4481547 40.973501 7.5 40.96875 C 17.139776 40.95374 26.798885 41.03034 36.4375 40.96875 C 39.510336 40.94346 41.791703 40.347879 43.40625 39.25 C 45.151268 38.063368 46 36.217045 46 34.34375 L 46 7 L 36.40625 7 z M 21.46875 17.21875 C 23.487508 17.20777 25.532077 17.24089 25.625 17.375 C 25.810846 17.643225 24.6875 26.84375 24.6875 26.84375 C 24.6875 26.84375 29.838897 25.893958 30.0625 26.28125 C 30.286103 26.668542 22.565191 38.8029 21.5 38.8125 C 20.43481 38.8221 12.334618 26.688797 12.59375 26.28125 C 12.845874 25.884725 18.28125 26.75 18.28125 26.75 C 18.28125 26.75 17.230834 17.555365 17.375 17.375 C 17.44708 17.28482 19.449992 17.229733 21.46875 17.21875 z "
     id="path-main" />
</svg>
