<?xml version="1.0" encoding="UTF-8" standalone="no"?>
<!-- Created with Inkscape (http://www.inkscape.org/) -->
<svg
   xmlns:svg="http://www.w3.org/2000/svg"
   xmlns="http://www.w3.org/2000/svg"
   xmlns:xlink="http://www.w3.org/1999/xlink"
   version="1.0"
   width="48"
   height="48"
   id="svg1328">
<acyl-settings>
<linearGradient
     id="linearGradient4321">
    <stop
       style="stop-color:#0D6DC1;stop-opacity:1.0;"
       offset="0.0"
       id="stop1" />
    <stop
       style="stop-color:#080808;stop-opacity:1.0;"
       offset="1.0"
       id="stop2" />
  </linearGradient>
<linearGradient
     inkscape:collect="always"
     xlink:href="#linearGradient4321"
     id="acyl_gradient"
     x1="79.0%"
     y1="0.0%"
     x2="500.0%"
     y2="101.0%" />
<filter id="filter1111" x="-50%" y="-50%" width="200%" height="200%">
<feGaussianBlur in="SourceAlpha" stdDeviation="1" result="blur"/>
<feOffset in="blur" dy="1"/>
<feComposite in2="SourceAlpha" operator="arithmetic"
k2="-1" k3="1" result="hl"/>
<feFlood flood-color="white" flood-opacity="0.2"/>
<feComposite in2="hl" operator="in" result="hl"/>
<feMorphology in="SourceAlpha" radius="0" operator="dilate"/>
<feOffset dy="2"/>
<feGaussianBlur stdDeviation="0 1" result="drop"/>
<feFlood flood-color="black" flood-opacity="1"/>
<feComposite in2="drop" operator="in" result="drop"/>
<feMerge>
<feMergeNode in="drop"/>
<feMergeNode in="SourceGraphic"/>
<feMergeNode in="hl"/>
</feMerge>
</filter>
<use id="1" style="fill:url(#acyl_gradient);filter:url(#filter1111)" xlink:href="#path-main" />
</acyl-settings>
<defs
     id="defs3" />
  <g
     id="layer1">
    <g
       transform="translate(-53.99282,-31.64138)"
       id="g4438" />
    <path
       d="M 20.5,3.3125 C 19.703454,3.3285898 19.014671,3.7414261 18.59375,4.25 C 18.172829,4.7585739 17.939506,5.3439734 17.9375,5.96875 L 17.90625,7 L 14.34375,7 C 11.946296,7 10,8.9462958 10,11.34375 L 10,41.40625 C 10,43.780141 11.914518,45.74379 14.28125,45.78125 C 14.304719,45.781621 14.320171,45.78125 14.34375,45.78125 L 33.5625,45.78125 C 35.959955,45.78125 37.9375,43.803704 37.9375,41.40625 L 37.9375,11.34375 C 37.9375,8.9462958 35.959954,7 33.5625,7 L 30.15625,7 L 30.15625,5.875 L 30.15625,5.84375 C 30.116993,4.5077703 29.061219,3.3327522 27.65625,3.34375 L 20.5,3.3125 z"
       id="path-main"
       style="fill:none" />
  </g>
  <g
     id="layer2" />
</svg>
