<svg
   xmlns="http://www.w3.org/2000/svg"
   width="48"
   height="48">
<acyl-settings>
<linearGradient
     id="linearGradient4321">
    <stop
       style="stop-color:#0D6DC1;stop-opacity:1.0;"
       offset="0.0"
       id="stop1" />
    <stop
       style="stop-color:#080808;stop-opacity:1.0;"
       offset="1.0"
       id="stop2" />
  </linearGradient>
<linearGradient
     inkscape:collect="always"
     xlink:href="#linearGradient4321"
     id="acyl_gradient"
     x1="79.0%"
     y1="0.0%"
     x2="500.0%"
     y2="101.0%" />
<filter id="filter1111" x="-50%" y="-50%" width="200%" height="200%">
<feGaussianBlur in="SourceAlpha" stdDeviation="1" result="blur"/>
<feOffset in="blur" dy="1"/>
<feComposite in2="SourceAlpha" operator="arithmetic"
k2="-1" k3="1" result="hl"/>
<feFlood flood-color="white" flood-opacity="0.2"/>
<feComposite in2="hl" operator="in" result="hl"/>
<feMorphology in="SourceAlpha" radius="0" operator="dilate"/>
<feOffset dy="2"/>
<feGaussianBlur stdDeviation="0 1" result="drop"/>
<feFlood flood-color="black" flood-opacity="1"/>
<feComposite in2="drop" operator="in" result="drop"/>
<feMerge>
<feMergeNode in="drop"/>
<feMergeNode in="SourceGraphic"/>
<feMergeNode in="hl"/>
</feMerge>
</filter>
<use id="1" style="fill:url(#acyl_gradient);filter:url(#filter1111)" xlink:href="#path-main" />
</acyl-settings>
  <path
     style="fill:none"
     d="M 24 2 C 11.856 2 2 11.856002 2 24 C 2 36.143997 11.856 46 24 46 C 36.144001 46 46 36.143997 46 24 C 46 11.856002 36.144001 2 24 2 z M 24 14.71875 C 29.119529 14.71875 33.28125 18.880467 33.28125 24 C 33.28125 29.119529 29.119529 33.28125 24 33.28125 C 18.880471 33.28125 14.71875 29.119529 14.71875 24 C 14.71875 18.880467 18.880471 14.71875 24 14.71875 z M 24 16.03125 C 19.594823 16.03125 16.03125 19.594823 16.03125 24 C 16.03125 28.405177 19.594823 31.96875 24 31.96875 C 28.405176 31.96875 31.96875 28.405177 31.96875 24 C 31.96875 19.594823 28.405176 16.03125 24 16.03125 z M 24 17.96875 C 27.333647 17.96875 30.03125 20.666353 30.03125 24 C 30.03125 27.333647 27.333647 30.03125 24 30.03125 C 20.666353 30.03125 17.96875 27.333647 17.96875 24 C 17.96875 20.666353 20.666353 17.96875 24 17.96875 z "
     id="path-main" />
</svg>
