<?xml version="1.0" encoding="UTF-8" standalone="no"?>
<!-- Created with Inkscape (http://www.inkscape.org/) -->

<svg
   xmlns:dc="http://purl.org/dc/elements/1.1/"
   xmlns:cc="http://creativecommons.org/ns#"
   xmlns:rdf="http://www.w3.org/1999/02/22-rdf-syntax-ns#"
   xmlns:svg="http://www.w3.org/2000/svg"
   xmlns="http://www.w3.org/2000/svg"
   xmlns:sodipodi="http://sodipodi.sourceforge.net/DTD/sodipodi-0.dtd"
   xmlns:inkscape="http://www.inkscape.org/namespaces/inkscape"
   id="svg2440"
   sodipodi:version="0.32"
   inkscape:version="0.47 r22583"
   width="48"
   height="48"
   version="1.0"
   sodipodi:docname="drive-harddisk.svg">
<acyl-settings>
<linearGradient
     id="linearGradient4321">
    <stop
       style="stop-color:#0D6DC1;stop-opacity:1.0;"
       offset="0.0"
       id="stop1" />
    <stop
       style="stop-color:#080808;stop-opacity:1.0;"
       offset="1.0"
       id="stop2" />
  </linearGradient>
<linearGradient
     inkscape:collect="always"
     xlink:href="#linearGradient4321"
     id="acyl_gradient"
     x1="79.0%"
     y1="0.0%"
     x2="500.0%"
     y2="101.0%" />
<filter id="filter1111" x="-50%" y="-50%" width="200%" height="200%">
<feGaussianBlur in="SourceAlpha" stdDeviation="1" result="blur"/>
<feOffset in="blur" dy="1"/>
<feComposite in2="SourceAlpha" operator="arithmetic"
k2="-1" k3="1" result="hl"/>
<feFlood flood-color="white" flood-opacity="0.2"/>
<feComposite in2="hl" operator="in" result="hl"/>
<feMorphology in="SourceAlpha" radius="0" operator="dilate"/>
<feOffset dy="2"/>
<feGaussianBlur stdDeviation="0 1" result="drop"/>
<feFlood flood-color="black" flood-opacity="1"/>
<feComposite in2="drop" operator="in" result="drop"/>
<feMerge>
<feMergeNode in="drop"/>
<feMergeNode in="SourceGraphic"/>
<feMergeNode in="hl"/>
</feMerge>
</filter>
<use id="1" style="fill:url(#acyl_gradient);filter:url(#filter1111)" xlink:href="#path-main" />
</acyl-settings>
<defs
     id="defs2443">
    <inkscape:perspective
       sodipodi:type="inkscape:persp3d"
       inkscape:vp_x="0 : 24 : 1"
       inkscape:vp_y="0 : 1000 : 0"
       inkscape:vp_z="48 : 24 : 1"
       inkscape:persp3d-origin="24 : 16 : 1"
       id="perspective31" />
    <inkscape:perspective
       id="perspective3032"
       inkscape:persp3d-origin="24 : 16 : 1"
       inkscape:vp_z="48 : 24 : 1"
       inkscape:vp_y="0 : 1000 : 0"
       inkscape:vp_x="0 : 24 : 1"
       sodipodi:type="inkscape:persp3d" />
  </defs>
  <path
     style="fill:none"
     d="M 8.5625 8.59375 L 2.1875 26.65625 L 2.1875 40.34375 L 45.8125 40.34375 L 45.8125 26.65625 L 39.9375 8.59375 L 8.5625 8.59375 z M 24.625 9.84375 L 31.15625 12.71875 L 26.46875 12.71875 L 26.46875 18.5 C 26.641039 18.49439 26.786558 18.5063 26.96875 18.5 C 29.875877 18.405439 33.148372 18.294612 33.4375 16.59375 L 30.21875 16.59375 L 30.21875 13.65625 L 39.53125 13.65625 L 39.53125 16.59375 L 36.25 16.59375 C 35.877697 19.087809 30.079895 19.2823 27.25 19.375 C 26.980674 19.38371 26.714312 19.39501 26.46875 19.40625 L 26.46875 20.78125 C 29.688772 21.04254 32.0625 21.937573 32.0625 23.03125 C 32.0625 24.327738 28.720762 25.375 24.59375 25.375 C 20.466739 25.375 17.125 24.328361 17.125 23.03125 C 17.125 22.187662 18.558642 21.444957 20.6875 21.03125 C 17.83186 20.908695 13.613228 20.537379 12.90625 18.625 C 10.036748 18.546612 7.78125 17.795729 7.78125 16.875 C 7.78125 15.903254 10.310989 15.125 13.40625 15.125 C 16.501509 15.125 19 15.903254 19 16.875 C 19 17.592297 17.616778 18.225647 15.65625 18.5 C 16.147373 20.02605 19.293559 20.12792 22.09375 20.21875 C 22.321488 20.22558 22.540084 20.21065 22.75 20.21875 L 22.75 12.71875 L 18.0625 12.71875 L 24.625 9.84375 z M 4.34375 27.90625 L 43.59375 27.90625 L 43.59375 38.25 L 4.34375 38.25 L 4.34375 27.90625 z "
     id="path-main" />
</svg>
