<?xml version="1.0" encoding="UTF-8" standalone="no"?>
<!-- Created with Inkscape (http://www.inkscape.org/) -->

<svg
   xmlns:dc="http://purl.org/dc/elements/1.1/"
   xmlns:cc="http://creativecommons.org/ns#"
   xmlns:rdf="http://www.w3.org/1999/02/22-rdf-syntax-ns#"
   xmlns:svg="http://www.w3.org/2000/svg"
   xmlns="http://www.w3.org/2000/svg"
   xmlns:xlink="http://www.w3.org/1999/xlink"
   xmlns:sodipodi="http://sodipodi.sourceforge.net/DTD/sodipodi-0.dtd"
   xmlns:inkscape="http://www.inkscape.org/namespaces/inkscape"
   version="1.0"
   width="48"
   height="48"
   id="svg2562"
   inkscape:version="0.47 r22583"
   sodipodi:docname="phone.svg">
<acyl-settings>
<linearGradient
     id="linearGradient4321">
    <stop
       style="stop-color:#0D6DC1;stop-opacity:1.0;"
       offset="0.0"
       id="stop1" />
    <stop
       style="stop-color:#080808;stop-opacity:1.0;"
       offset="1.0"
       id="stop2" />
  </linearGradient>
<linearGradient
     inkscape:collect="always"
     xlink:href="#linearGradient4321"
     id="acyl_gradient"
     x1="79.0%"
     y1="0.0%"
     x2="500.0%"
     y2="101.0%" />
<filter id="filter1111" x="-50%" y="-50%" width="200%" height="200%">
<feGaussianBlur in="SourceAlpha" stdDeviation="1" result="blur"/>
<feOffset in="blur" dy="1"/>
<feComposite in2="SourceAlpha" operator="arithmetic"
k2="-1" k3="1" result="hl"/>
<feFlood flood-color="white" flood-opacity="0.2"/>
<feComposite in2="hl" operator="in" result="hl"/>
<feMorphology in="SourceAlpha" radius="0" operator="dilate"/>
<feOffset dy="2"/>
<feGaussianBlur stdDeviation="0 1" result="drop"/>
<feFlood flood-color="black" flood-opacity="1"/>
<feComposite in2="drop" operator="in" result="drop"/>
<feMerge>
<feMergeNode in="drop"/>
<feMergeNode in="SourceGraphic"/>
<feMergeNode in="hl"/>
</feMerge>
</filter>
<use id="1" style="fill:url(#acyl_gradient);filter:url(#filter1111)" xlink:href="#path-main" />
</acyl-settings>
<defs
     id="defs2564">
  </defs>
  <path
     style="fill:none"
     id="path-main"
     d="M 11.026118,2 C 10.429455,2.2000188 10.00422,2.7943701 10.00422,3.5182482 l 0,40.8759128 c 0,0.890923 0.645095,1.60584 1.459854,1.605839 l 25.138686,0 c 0.814758,0 1.518248,-0.714913 1.518248,-1.605839 l 0,-40.8759128 C 38.121008,2.7943702 37.652129,2.2000188 37.040716,2 L 11.026118,2 z m 4.291971,1.5182482 c 0.893,1e-7 1.635036,0.8045413 1.635036,1.7810219 0,0.9764817 -0.742036,1.7810219 -1.635036,1.7810219 -0.892999,0 -1.635037,-0.8045404 -1.635037,-1.7810219 0,-0.9764794 0.742038,-1.7810219 1.635037,-1.7810219 z m 4.379562,0.8175182 9.69343,0 0,1.1386862 -9.69343,0 0,-1.1386862 z m -5.518249,3.8832117 20.759125,0 0,16.7007299 -20.759125,0 0,-16.7007299 z m 0.08759,18.7153279 5.89781,0 0,3.386862 -5.89781,0 0,-3.386862 z m 7.357664,0 5.839416,0 0,3.386862 -5.839416,0 0,-3.386862 z m 7.29927,0 5.89781,0 0,3.386862 -5.89781,0 0,-3.386862 z m -14.656934,4.20438 5.89781,0 0,3.416058 -5.89781,0 0,-3.416058 z m 7.357664,0 5.839416,0 0,3.416058 -5.839416,0 0,-3.416058 z m 7.29927,0 5.89781,0 0,3.416058 -5.89781,0 0,-3.416058 z m -14.656934,4.262774 5.89781,0 0,3.386861 -5.89781,0 0,-3.386861 z m 7.357664,0 5.839416,0 0,3.386861 -5.839416,0 0,-3.386861 z m 7.29927,0 5.89781,0 0,3.386861 -5.89781,0 0,-3.386861 z m -14.656934,4.233576 5.89781,0 0,3.386862 -5.89781,0 0,-3.386862 z m 7.357664,0 5.839416,0 0,3.386862 -5.839416,0 0,-3.386862 z m 7.29927,0 5.89781,0 0,3.386862 -5.89781,0 0,-3.386862 z" />
</svg>
