<?xml version="1.0" encoding="UTF-8" standalone="no"?>
<!-- Created with Inkscape (http://www.inkscape.org/) -->

<svg
   xmlns:dc="http://purl.org/dc/elements/1.1/"
   xmlns:cc="http://creativecommons.org/ns#"
   xmlns:rdf="http://www.w3.org/1999/02/22-rdf-syntax-ns#"
   xmlns:svg="http://www.w3.org/2000/svg"
   xmlns="http://www.w3.org/2000/svg"
   xmlns:xlink="http://www.w3.org/1999/xlink"
   xmlns:sodipodi="http://sodipodi.sourceforge.net/DTD/sodipodi-0.dtd"
   xmlns:inkscape="http://www.inkscape.org/namespaces/inkscape"
   width="48"
   height="48"
   id="svg2240"
   sodipodi:version="0.32"
   inkscape:version="0.47 r22583"
   version="1.0">
<acyl-settings>
<linearGradient
     id="linearGradient4321">
    <stop
       style="stop-color:#0D6DC1;stop-opacity:1.0;"
       offset="0.0"
       id="stop1" />
    <stop
       style="stop-color:#080808;stop-opacity:1.0;"
       offset="1.0"
       id="stop2" />
  </linearGradient>
<linearGradient
     inkscape:collect="always"
     xlink:href="#linearGradient4321"
     id="acyl_gradient"
     x1="79.0%"
     y1="0.0%"
     x2="500.0%"
     y2="101.0%" />
<filter id="filter1111" x="-50%" y="-50%" width="200%" height="200%">
<feGaussianBlur in="SourceAlpha" stdDeviation="1" result="blur"/>
<feOffset in="blur" dy="1"/>
<feComposite in2="SourceAlpha" operator="arithmetic"
k2="-1" k3="1" result="hl"/>
<feFlood flood-color="white" flood-opacity="0.2"/>
<feComposite in2="hl" operator="in" result="hl"/>
<feMorphology in="SourceAlpha" radius="0" operator="dilate"/>
<feOffset dy="2"/>
<feGaussianBlur stdDeviation="0 1" result="drop"/>
<feFlood flood-color="black" flood-opacity="1"/>
<feComposite in2="drop" operator="in" result="drop"/>
<feMerge>
<feMergeNode in="drop"/>
<feMergeNode in="SourceGraphic"/>
<feMergeNode in="hl"/>
</feMerge>
</filter>
<use id="1" style="fill:url(#acyl_gradient);filter:url(#filter1111)" xlink:href="#path-main" />
</acyl-settings>
<defs
     id="defs2242">
  </defs>
    <path
       style="fill:none"
       d="M 24 7.53125 C 24 7.53125 21.490203 21.407361 21.15625 27.3125 C 21.093634 28.419714 21.136069 29.525304 21.28125 30.59375 C 20.825194 29.861772 20.329609 29.119947 20.03125 28.6875 C 18.360566 26.26598 10.25 17.0625 10.25 17.0625 C 10.25 17.0625 12.005071 26.830382 14.34375 32.625 C 9.4516423 30.608176 2.5 29.03125 2.5 29.03125 C 2.5 29.03125 11.384255 38.249808 16.65625 39.03125 C 19.611591 39.469305 21.990816 39.452808 23.59375 39.34375 C 24.272776 39.384227 24.868678 39.410004 25.375 39.40625 C 25.724713 39.481995 27.227323 39.706256 31.78125 39.03125 C 37.053244 38.249808 45.9375 29.03125 45.9375 29.03125 C 45.9375 29.03125 39.731892 30.53451 34.5625 32.5625 C 35.266919 30.760651 35.861611 28.751542 38.125 25.46875 C 39.5229 23.441251 44.375 18.5625 44.375 18.5625 C 44.375 18.5625 39.252932 19.310431 36.25 21.1875 C 33.761173 22.743212 31.113354 25.26216 29.34375 27.46875 C 29.364019 18.9734 24 7.53125 24 7.53125 z "
       id="path-main" />
</svg>
