<?xml version="1.0" encoding="UTF-8" standalone="no"?>
<!-- Created with Inkscape (http://www.inkscape.org/) -->

<svg
   xmlns:dc="http://purl.org/dc/elements/1.1/"
   xmlns:cc="http://creativecommons.org/ns#"
   xmlns:rdf="http://www.w3.org/1999/02/22-rdf-syntax-ns#"
   xmlns:svg="http://www.w3.org/2000/svg"
   xmlns="http://www.w3.org/2000/svg"
   xmlns:xlink="http://www.w3.org/1999/xlink"
   xmlns:sodipodi="http://sodipodi.sourceforge.net/DTD/sodipodi-0.dtd"
   xmlns:inkscape="http://www.inkscape.org/namespaces/inkscape"
   version="1.0"
   width="48"
   height="48"
   id="svg2"
   inkscape:version="0.47pre4 r22446"
   sodipodi:docname="alsamixergui.svg">
<acyl-settings>
<linearGradient
     id="linearGradient4321">
    <stop
       style="stop-color:#0D6DC1;stop-opacity:1.0;"
       offset="0.0"
       id="stop1" />
    <stop
       style="stop-color:#080808;stop-opacity:1.0;"
       offset="1.0"
       id="stop2" />
  </linearGradient>
<linearGradient
     inkscape:collect="always"
     xlink:href="#linearGradient4321"
     id="acyl_gradient"
     x1="79.0%"
     y1="0.0%"
     x2="500.0%"
     y2="101.0%" />
<filter id="filter1111" x="-50%" y="-50%" width="200%" height="200%">
<feGaussianBlur in="SourceAlpha" stdDeviation="1" result="blur"/>
<feOffset in="blur" dy="1"/>
<feComposite in2="SourceAlpha" operator="arithmetic"
k2="-1" k3="1" result="hl"/>
<feFlood flood-color="white" flood-opacity="0.2"/>
<feComposite in2="hl" operator="in" result="hl"/>
<feMorphology in="SourceAlpha" radius="0" operator="dilate"/>
<feOffset dy="2"/>
<feGaussianBlur stdDeviation="0 1" result="drop"/>
<feFlood flood-color="black" flood-opacity="1"/>
<feComposite in2="drop" operator="in" result="drop"/>
<feMerge>
<feMergeNode in="drop"/>
<feMergeNode in="SourceGraphic"/>
<feMergeNode in="hl"/>
</feMerge>
</filter>
<use id="1" style="fill:url(#acyl_gradient);filter:url(#filter1111)" xlink:href="#path-main" />
</acyl-settings>
<defs
     id="defs5">
  </defs>
  <path
     d="m 14.170213,2 0,7.489362 7.489361,0 0,-7.489362 -7.489361,0 z m 12.170213,4.6808511 0,2.8085109 7.489361,0 0,-2.8085109 -7.489361,0 z M 2,14.170213 l 0,7.489361 7.4893617,0 0,-7.489361 -7.4893617,0 z m 12.170213,0 0,7.489361 7.489361,0 0,-7.489361 -7.489361,0 z m 12.170213,0 0,7.489361 7.489361,0 0,-7.489361 -7.489361,0 z M 2,26.340426 l 0,7.489361 7.4893617,0 0,-7.489361 -7.4893617,0 z m 12.170213,0 0,7.489361 7.489361,0 0,-7.489361 -7.489361,0 z m 12.170213,0 0,7.489361 7.489361,0 0,-7.489361 -7.489361,0 z m 12.170212,0 0,7.489361 7.489362,0 0,-7.489361 -7.489362,0 z M 2,38.510638 2,46 l 7.4893617,0 0,-7.489362 -7.4893617,0 z m 12.170213,0 0,7.489362 7.489361,0 0,-7.489362 -7.489361,0 z m 12.170213,0 0,7.489362 7.489361,0 0,-7.489362 -7.489361,0 z m 12.170212,0 0,7.489362 L 46,46 l 0,-7.489362 -7.489362,0 z"
     id="path-main"
     style="fill:none" />
</svg>
