<svg
   xmlns="http://www.w3.org/2000/svg"
   width="48"
   height="48">
<acyl-settings>
<linearGradient
     id="linearGradient4321">
    <stop
       style="stop-color:#0D6DC1;stop-opacity:1.0;"
       offset="0.0"
       id="stop1" />
    <stop
       style="stop-color:#080808;stop-opacity:1.0;"
       offset="1.0"
       id="stop2" />
  </linearGradient>
<linearGradient
     inkscape:collect="always"
     xlink:href="#linearGradient4321"
     id="acyl_gradient"
     x1="79.0%"
     y1="0.0%"
     x2="500.0%"
     y2="101.0%" />
<filter id="filter1111" x="-50%" y="-50%" width="200%" height="200%">
<feGaussianBlur in="SourceAlpha" stdDeviation="1" result="blur"/>
<feOffset in="blur" dy="1"/>
<feComposite in2="SourceAlpha" operator="arithmetic"
k2="-1" k3="1" result="hl"/>
<feFlood flood-color="white" flood-opacity="0.2"/>
<feComposite in2="hl" operator="in" result="hl"/>
<feMorphology in="SourceAlpha" radius="0" operator="dilate"/>
<feOffset dy="2"/>
<feGaussianBlur stdDeviation="0 1" result="drop"/>
<feFlood flood-color="black" flood-opacity="1"/>
<feComposite in2="drop" operator="in" result="drop"/>
<feMerge>
<feMergeNode in="drop"/>
<feMergeNode in="SourceGraphic"/>
<feMergeNode in="hl"/>
</feMerge>
</filter>
<use id="1" style="fill:url(#acyl_gradient);filter:url(#filter1111)" xlink:href="#path-main" />
</acyl-settings>
	<path
   d="m 21.155999,2.000001 c -0.582208,0 -1.056,0.473792 -1.056,1.0559999 l 0,15.1359991 c 0,0.582209 0.473792,1.056 1.056,1.056 l 5.632,0 c 0.582209,0 1.056,-0.47379 1.056,-1.056 l 0,-15.1359991 C 27.844,2.473793 27.370207,2.000001 26.787999,2.000001 l -5.632,0 z m -4.194666,2.2586666 c -0.055,-0.00761 -0.09264,0.010327 -0.146667,0.029332 C 8.25297,7.3148485 2.5,15.445697 2.5,24.528 2.5,36.367873 12.132127,46 23.971999,46 c 11.841984,0 21.472,-9.632127 21.472,-21.472 -4e-6,-9.082303 -5.752972,-17.2127994 -14.314667,-20.2399992 -0.108065,-0.038016 -0.229738,-0.036491 -0.322666,0.029332 -0.09328,0.066176 -0.146667,0.1792852 -0.146667,0.2933332 l 0,6.512 c 1e-6,0.130592 0.06054,0.261419 0.176,0.322666 4.877663,2.574529 7.919999,7.588299 7.919999,13.082667 0,8.151967 -6.630271,14.783997 -14.783999,14.783997 -8.151616,0 -14.784,-6.63203 -14.784,-14.783997 0,-5.494368 3.012651,-10.50849 7.890667,-13.082667 0.115455,-0.06125 0.205333,-0.192074 0.205333,-0.322666 l 0,-6.512 c 0,-0.114048 -0.05339,-0.2275095 -0.146666,-0.2933332 -0.04664,-0.032914 -0.121,-0.051055 -0.176,-0.058667 z"
   id="path-main"
   style="fill:none" />
</svg>
