<svg
   xmlns="http://www.w3.org/2000/svg"
   width="48"
   height="48">
<acyl-settings>
<linearGradient
     id="linearGradient4321">
    <stop
       style="stop-color:#0D6DC1;stop-opacity:1.0;"
       offset="0.0"
       id="stop1" />
    <stop
       style="stop-color:#080808;stop-opacity:1.0;"
       offset="1.0"
       id="stop2" />
  </linearGradient>
<linearGradient
     inkscape:collect="always"
     xlink:href="#linearGradient4321"
     id="acyl_gradient"
     x1="79.0%"
     y1="0.0%"
     x2="500.0%"
     y2="101.0%" />
<filter id="filter1111" x="-50%" y="-50%" width="200%" height="200%">
<feGaussianBlur in="SourceAlpha" stdDeviation="1" result="blur"/>
<feOffset in="blur" dy="1"/>
<feComposite in2="SourceAlpha" operator="arithmetic"
k2="-1" k3="1" result="hl"/>
<feFlood flood-color="white" flood-opacity="0.2"/>
<feComposite in2="hl" operator="in" result="hl"/>
<feMorphology in="SourceAlpha" radius="0" operator="dilate"/>
<feOffset dy="2"/>
<feGaussianBlur stdDeviation="0 1" result="drop"/>
<feFlood flood-color="black" flood-opacity="1"/>
<feComposite in2="drop" operator="in" result="drop"/>
<feMerge>
<feMergeNode in="drop"/>
<feMergeNode in="SourceGraphic"/>
<feMergeNode in="hl"/>
</feMerge>
</filter>
<use id="1" style="fill:url(#acyl_gradient);filter:url(#filter1111)" xlink:href="#path-main" />
</acyl-settings>
  <path
     style="fill:none"
     d="M 6.5625 4.5 L 6.5625 8.15625 L 2 8.15625 L 2 13.59375 L 6.5625 13.59375 L 6.5625 15 L 8.46875 15 L 8.46875 35.8125 L 2.1875 35.8125 L 2.1875 41.0625 L 8.0625 41.0625 L 11.28125 45.96875 L 14.71875 41.0625 L 30 41.0625 C 52.041582 38.671742 50.642118 10.19714 30 8.15625 L 15.875 8.15625 L 15.875 4.5 L 6.5625 4.5 z M 15.875 13.59375 L 29.28125 13.59375 C 44.325503 14.526725 43.975639 35.229386 29.28125 35.8125 L 13.71875 35.8125 L 13.71875 15 L 15.875 15 L 15.875 13.59375 z M 25.28125 14.46875 L 16.5625 31.4375 L 34.40625 31.4375 L 25.28125 14.46875 z M 25.46875 21.90625 L 28.78125 28 L 22.3125 28 L 25.46875 21.90625 z "
     id="path-main" />
</svg>
