<svg
   xmlns="http://www.w3.org/2000/svg"
   width="48"
   height="48">
<acyl-settings>
<linearGradient
     id="linearGradient4321">
    <stop
       style="stop-color:#0D6DC1;stop-opacity:1.0;"
       offset="0.0"
       id="stop1" />
    <stop
       style="stop-color:#080808;stop-opacity:1.0;"
       offset="1.0"
       id="stop2" />
  </linearGradient>
<linearGradient
     inkscape:collect="always"
     xlink:href="#linearGradient4321"
     id="acyl_gradient"
     x1="79.0%"
     y1="0.0%"
     x2="500.0%"
     y2="101.0%" />
<filter id="filter1111" x="-50%" y="-50%" width="200%" height="200%">
<feGaussianBlur in="SourceAlpha" stdDeviation="1" result="blur"/>
<feOffset in="blur" dy="1"/>
<feComposite in2="SourceAlpha" operator="arithmetic"
k2="-1" k3="1" result="hl"/>
<feFlood flood-color="white" flood-opacity="0.2"/>
<feComposite in2="hl" operator="in" result="hl"/>
<feMorphology in="SourceAlpha" radius="0" operator="dilate"/>
<feOffset dy="2"/>
<feGaussianBlur stdDeviation="0 1" result="drop"/>
<feFlood flood-color="black" flood-opacity="1"/>
<feComposite in2="drop" operator="in" result="drop"/>
<feMerge>
<feMergeNode in="drop"/>
<feMergeNode in="SourceGraphic"/>
<feMergeNode in="hl"/>
</feMerge>
</filter>
<use id="1" style="fill:url(#acyl_gradient);filter:url(#filter1111)" xlink:href="#path-main" />
</acyl-settings>
  <path
     d="M 5.933641,16.681954 C 3.747827,16.681954 2,18.443299 2,20.629112 l 0,8.97573 C 2,31.790655 3.747827,33.552 5.933641,33.552 l 36.119201,0 C 44.238655,33.552 46,31.790655 46,29.604842 l 0,-8.97573 c 0,-2.185813 -1.761345,-3.947158 -3.947158,-3.947158 l -36.119201,0 z m 12.706605,5.90722 10.719508,0 c 1.648863,0 2.973887,1.13173 2.973887,2.527803 0,1.396073 -1.325024,2.514286 -2.973887,2.514286 l -10.719508,0 c -1.648863,0 -2.973887,-1.118213 -2.973887,-2.514286 0,-1.396073 1.325024,-2.527803 2.973887,-2.527803 z"
     id="path-main"
     style="fill:none" />
</svg>
