<svg
   xmlns="http://www.w3.org/2000/svg"
   width="48"
   height="48">
<acyl-settings>
<linearGradient
     id="linearGradient4321">
    <stop
       style="stop-color:#0D6DC1;stop-opacity:1.0;"
       offset="0.0"
       id="stop1" />
    <stop
       style="stop-color:#080808;stop-opacity:1.0;"
       offset="1.0"
       id="stop2" />
  </linearGradient>
<linearGradient
     inkscape:collect="always"
     xlink:href="#linearGradient4321"
     id="acyl_gradient"
     x1="79.0%"
     y1="0.0%"
     x2="500.0%"
     y2="101.0%" />
<filter id="filter1111" x="-50%" y="-50%" width="200%" height="200%">
<feGaussianBlur in="SourceAlpha" stdDeviation="1" result="blur"/>
<feOffset in="blur" dy="1"/>
<feComposite in2="SourceAlpha" operator="arithmetic"
k2="-1" k3="1" result="hl"/>
<feFlood flood-color="white" flood-opacity="0.2"/>
<feComposite in2="hl" operator="in" result="hl"/>
<feMorphology in="SourceAlpha" radius="0" operator="dilate"/>
<feOffset dy="2"/>
<feGaussianBlur stdDeviation="0 1" result="drop"/>
<feFlood flood-color="black" flood-opacity="1"/>
<feComposite in2="drop" operator="in" result="drop"/>
<feMerge>
<feMergeNode in="drop"/>
<feMergeNode in="SourceGraphic"/>
<feMergeNode in="hl"/>
</feMerge>
</filter>
<use id="1" style="fill:url(#acyl_gradient);filter:url(#filter1111)" xlink:href="#path-main" />
</acyl-settings>
  <path
     style="fill:none"
     d="M 24.029601,46 C 36.178375,46 46,36.119151 46,23.970388 46,11.821625 36.178375,2 24.029601,2 11.880838,2 2,11.821625 2,23.970388 2,36.119151 11.880838,46 24.029601,46 z m 0.3553,-2.013473 c -26.189768,-1.465596 -27.018156,-38.129619 0,-39.913852 12.041986,0.14069 13.339425,17.203593 0.0594,19.8385 -13.2803,2.634918 -12.340856,18.359374 -0.0594,20.075352 z m -0.29612,-7.047095 c -1.761078,0 -3.197843,-1.413918 -3.197843,-3.197843 0,-1.78398 1.436765,-3.257067 3.197843,-3.257067 1.7611,0 3.197843,1.473087 3.197843,3.257067 0,1.783925 -1.436743,3.197843 -3.197843,3.197843 z m 0,-20.075363 c 1.7611,0 3.197843,-1.47312 3.197843,-3.257067 0,-1.783969 -1.436743,-3.197832 -3.197843,-3.197832 -1.761056,0 -3.197843,1.413863 -3.197843,3.197832 0,1.783947 1.436787,3.257067 3.197843,3.257067 z"
     id="path-main"/>
</svg>
