<?xml version="1.0" encoding="UTF-8" standalone="no"?>
<!-- Created with Inkscape (http://www.inkscape.org/) -->

<svg
   xmlns:dc="http://purl.org/dc/elements/1.1/"
   xmlns:cc="http://creativecommons.org/ns#"
   xmlns:rdf="http://www.w3.org/1999/02/22-rdf-syntax-ns#"
   xmlns:svg="http://www.w3.org/2000/svg"
   xmlns="http://www.w3.org/2000/svg"
   xmlns:xlink="http://www.w3.org/1999/xlink"
   xmlns:sodipodi="http://sodipodi.sourceforge.net/DTD/sodipodi-0.dtd"
   xmlns:inkscape="http://www.inkscape.org/namespaces/inkscape"
   version="1.0"
   width="48"
   height="48"
   id="svg2"
   inkscape:version="0.47pre4 r22446"
   sodipodi:docname="emacs.svg">
<acyl-settings>
<linearGradient
     id="linearGradient4321">
    <stop
       style="stop-color:#0D6DC1;stop-opacity:1.0;"
       offset="0.0"
       id="stop1" />
    <stop
       style="stop-color:#080808;stop-opacity:1.0;"
       offset="1.0"
       id="stop2" />
  </linearGradient>
<linearGradient
     inkscape:collect="always"
     xlink:href="#linearGradient4321"
     id="acyl_gradient"
     x1="79.0%"
     y1="0.0%"
     x2="500.0%"
     y2="101.0%" />
<filter id="filter1111" x="-50%" y="-50%" width="200%" height="200%">
<feGaussianBlur in="SourceAlpha" stdDeviation="1" result="blur"/>
<feOffset in="blur" dy="1"/>
<feComposite in2="SourceAlpha" operator="arithmetic"
k2="-1" k3="1" result="hl"/>
<feFlood flood-color="white" flood-opacity="0.2"/>
<feComposite in2="hl" operator="in" result="hl"/>
<feMorphology in="SourceAlpha" radius="0" operator="dilate"/>
<feOffset dy="2"/>
<feGaussianBlur stdDeviation="0 1" result="drop"/>
<feFlood flood-color="black" flood-opacity="1"/>
<feComposite in2="drop" operator="in" result="drop"/>
<feMerge>
<feMergeNode in="drop"/>
<feMergeNode in="SourceGraphic"/>
<feMergeNode in="hl"/>
</feMerge>
</filter>
<use id="1" style="fill:url(#acyl_gradient);filter:url(#filter1111)" xlink:href="#path-main" />
</acyl-settings>
<defs
     id="defs4">
  </defs>
  <path
     style="fill:none"
     id="path-main"
     d="M 24,2 C 11.855881,2 2,11.85588 2,24 2,36.144119 11.855881,46 24,46 36.144119,46 46,36.144119 46,24 46,11.85588 36.144119,1.9999991 24,2 z m 6.852481,5.1596753 c 6.075016,0.019784 6.862447,2.5933097 7.243038,4.3059957 0.477611,2.149255 -1.602984,3.819616 -3.752237,3.853734 -2.149254,0.03411 -2.185068,-1.158639 -8.871638,-1.226867 -6.68657,-0.06823 -1.773136,3.889554 -1.773136,3.889554 0,0 5.663543,4.332195 8.904473,6.856713 -4.093815,0.102346 -16.923234,-0.104051 -16.582088,4.023883 0.341156,4.127933 9.724523,4.298928 16.513439,6.755219 6.788906,2.45629 1.568865,3.51472 -3.411944,4.435823 -4.980809,0.921112 -15.794029,-1.570149 -15.794029,-1.570149 0,0 4.229849,0.0021 10.677609,-0.134329 6.44776,-0.136455 0.715137,-1.502774 -1.638808,-1.946266 C 20.013215,35.959484 7.6285717,31.62729 8.1403008,26.441789 c 0.51172,-5.185501 12.5897662,-5.014927 17.8776122,-3.820896 -3.036247,-1.637524 -8.3919,-5.459703 -9.961196,-8.802983 -1.569297,-3.343283 2.046055,-3.545841 3.922389,-3.477611 1.876334,0.06823 13.236676,2.284008 13.13433,0.44179 C 33.01109,8.939873 25.158208,8.077611 25.158208,8.077612 27.488054,7.7745673 29.303947,7.1546327 30.852481,7.1596753 z" />
</svg>
