<svg
   xmlns="http://www.w3.org/2000/svg"
   width="48"
   height="48">
<acyl-settings>
<linearGradient
     id="linearGradient4321">
    <stop
       style="stop-color:#0D6DC1;stop-opacity:1.0;"
       offset="0.0"
       id="stop1" />
    <stop
       style="stop-color:#080808;stop-opacity:1.0;"
       offset="1.0"
       id="stop2" />
  </linearGradient>
<linearGradient
     inkscape:collect="always"
     xlink:href="#linearGradient4321"
     id="acyl_gradient"
     x1="79.0%"
     y1="0.0%"
     x2="500.0%"
     y2="101.0%" />
<filter id="filter1111" x="-50%" y="-50%" width="200%" height="200%">
<feGaussianBlur in="SourceAlpha" stdDeviation="1" result="blur"/>
<feOffset in="blur" dy="1"/>
<feComposite in2="SourceAlpha" operator="arithmetic"
k2="-1" k3="1" result="hl"/>
<feFlood flood-color="white" flood-opacity="0.2"/>
<feComposite in2="hl" operator="in" result="hl"/>
<feMorphology in="SourceAlpha" radius="0" operator="dilate"/>
<feOffset dy="2"/>
<feGaussianBlur stdDeviation="0 1" result="drop"/>
<feFlood flood-color="black" flood-opacity="1"/>
<feComposite in2="drop" operator="in" result="drop"/>
<feMerge>
<feMergeNode in="drop"/>
<feMergeNode in="SourceGraphic"/>
<feMergeNode in="hl"/>
</feMerge>
</filter>
<use id="1" style="fill:url(#acyl_gradient);filter:url(#filter1111)" xlink:href="#path-main" />
</acyl-settings>
  <path
     d="M 5.255004,2 C 3.455017,2 2,3.442671 2,5.24318 L 2,42.75682 C 2,44.55733 3.455017,46 5.255004,46 l 37.489992,0 C 44.544977,46 46,44.55733 46,42.75682 L 46,5.24318 C 46,3.442671 44.544977,2 42.744996,2 L 5.255004,2 z m 35.856107,5.707487 0,5.043529 c -1.994707,0 -4.181673,0.06384 -5.169714,0.06384 -1.076822,0 -1.669054,0.349951 -1.965768,0.753337 -0.358174,0.486944 -0.548883,1.184357 -0.548883,2.03018 l 0,1.774811 7.224835,0 0,5.247824 -7.224835,0 0,19.95705 -7.365244,0 0,-19.95705 -3.433711,0 0,-5.247824 3.433711,0 0,-1.902495 c -1.4e-4,-2.119982 0.284726,-3.450271 0.727589,-4.494487 0.45867,-1.044151 2.021109,-2.018934 3.255004,-2.604759 1.468367,-0.697147 2.327624,-0.663958 11.067016,-0.663958 z"
     id="path-main"
     style="fill:none" />
</svg>
