<?xml version="1.0" encoding="UTF-8" standalone="no"?>
<!-- Created with Inkscape (http://www.inkscape.org/) -->
<svg
   xmlns:svg="http://www.w3.org/2000/svg"
   xmlns="http://www.w3.org/2000/svg"
   xmlns:xlink="http://www.w3.org/1999/xlink"
   version="1.0"
   width="38.400002pt"
   height="38.400002pt"
   id="svg2">
<acyl-settings>
<linearGradient
     id="linearGradient4321">
    <stop
       style="stop-color:#0D6DC1;stop-opacity:1.0;"
       offset="0.0"
       id="stop1" />
    <stop
       style="stop-color:#080808;stop-opacity:1.0;"
       offset="1.0"
       id="stop2" />
  </linearGradient>
<linearGradient
     inkscape:collect="always"
     xlink:href="#linearGradient4321"
     id="acyl_gradient"
     x1="79.0%"
     y1="0.0%"
     x2="500.0%"
     y2="101.0%" />
<filter id="filter1111" x="-50%" y="-50%" width="200%" height="200%">
<feGaussianBlur in="SourceAlpha" stdDeviation="1" result="blur"/>
<feOffset in="blur" dy="1"/>
<feComposite in2="SourceAlpha" operator="arithmetic"
k2="-1" k3="1" result="hl"/>
<feFlood flood-color="white" flood-opacity="0.2"/>
<feComposite in2="hl" operator="in" result="hl"/>
<feMorphology in="SourceAlpha" radius="0" operator="dilate"/>
<feOffset dy="2"/>
<feGaussianBlur stdDeviation="0 1" result="drop"/>
<feFlood flood-color="black" flood-opacity="1"/>
<feComposite in2="drop" operator="in" result="drop"/>
<feMerge>
<feMergeNode in="drop"/>
<feMergeNode in="SourceGraphic"/>
<feMergeNode in="hl"/>
</feMerge>
</filter>
<use id="1" style="fill:url(#acyl_gradient);filter:url(#filter1111)" xlink:href="#path-main" />
</acyl-settings>
<defs
     id="defs6" />
  <path
     d="M 22.125,2 C 17.580396,2 13.90625,5.8086995 13.90625,10.5 C 13.90625,15.191301 17.580397,19 22.125,19 C 26.669604,19 30.375001,15.191301 30.375,10.5 C 30.375,5.8086995 26.669605,2 22.125,2 z M 31.40625,18.65625 C 28.116315,19.702944 25.301035,21.771035 12.96875,19.875 C 11.836444,19.717464 12.629321,43.986734 16.3125,47.5 C 27.228748,35.077439 28.709766,40.894188 35.40625,46.15625 C 32.135331,39.700828 30.545342,26.490239 32.78125,26.84375 C 34.551459,27.123586 40.939423,30.19504 41.09375,28.9375 C 41.548465,28.353804 35.991752,26.68989 31.40625,18.65625 z"
     id="path-main"
     style="fill:none" />
</svg>
