<svg
   xmlns="http://www.w3.org/2000/svg"
   width="48"
   height="48">
<acyl-settings>
<linearGradient
     id="linearGradient4321">
    <stop
       style="stop-color:#0D6DC1;stop-opacity:1.0;"
       offset="0.0"
       id="stop1" />
    <stop
       style="stop-color:#080808;stop-opacity:1.0;"
       offset="1.0"
       id="stop2" />
  </linearGradient>
<linearGradient
     inkscape:collect="always"
     xlink:href="#linearGradient4321"
     id="acyl_gradient"
     x1="79.0%"
     y1="0.0%"
     x2="500.0%"
     y2="101.0%" />
<filter id="filter1111" x="-50%" y="-50%" width="200%" height="200%">
<feGaussianBlur in="SourceAlpha" stdDeviation="1" result="blur"/>
<feOffset in="blur" dy="1"/>
<feComposite in2="SourceAlpha" operator="arithmetic"
k2="-1" k3="1" result="hl"/>
<feFlood flood-color="white" flood-opacity="0.2"/>
<feComposite in2="hl" operator="in" result="hl"/>
<feMorphology in="SourceAlpha" radius="0" operator="dilate"/>
<feOffset dy="2"/>
<feGaussianBlur stdDeviation="0 1" result="drop"/>
<feFlood flood-color="black" flood-opacity="1"/>
<feComposite in2="drop" operator="in" result="drop"/>
<feMerge>
<feMergeNode in="drop"/>
<feMergeNode in="SourceGraphic"/>
<feMergeNode in="hl"/>
</feMerge>
</filter>
<use id="1" style="fill:url(#acyl_gradient);filter:url(#filter1111)" xlink:href="#path-main" />
</acyl-settings>
  <path
     style="fill:none"
     d="M 24.016309,2 C 11.864846,2 2,11.832228 2,23.983691 2,36.13515 11.864846,46 24.016309,46 36.167772,46 46,36.13515 46,23.983691 46,11.832228 36.167772,2 24.016309,2 z m 0,4.892513 c 3.045094,0 5.906697,0.790371 8.382506,2.185322 L 19.515197,16.514455 6.92513,23.755374 C 7.047325,14.419295 14.651141,6.892513 24.016309,6.892513 z m 8.480356,2.250556 c 5.14386,2.945428 8.610822,8.48659 8.610822,14.840622 0,6.354032 -3.466962,11.895189 -8.610822,14.840619 l 0,-14.840619 0,-14.840622 z M 6.92513,24.212008 19.515197,31.48554 32.366198,38.92216 c -2.466727,1.38125 -5.320921,2.15271 -8.349889,2.15271 -9.365168,0 -16.968984,-7.52678 -17.091179,-16.862862 z"
     id="path-main" />
</svg>
