<svg
   xmlns="http://www.w3.org/2000/svg"
   width="48"
   height="48">
<acyl-settings>
<linearGradient
     id="linearGradient4321">
    <stop
       style="stop-color:#0D6DC1;stop-opacity:1.0;"
       offset="0.0"
       id="stop1" />
    <stop
       style="stop-color:#080808;stop-opacity:1.0;"
       offset="1.0"
       id="stop2" />
  </linearGradient>
<linearGradient
     inkscape:collect="always"
     xlink:href="#linearGradient4321"
     id="acyl_gradient"
     x1="79.0%"
     y1="0.0%"
     x2="500.0%"
     y2="101.0%" />
<filter id="filter1111" x="-50%" y="-50%" width="200%" height="200%">
<feGaussianBlur in="SourceAlpha" stdDeviation="1" result="blur"/>
<feOffset in="blur" dy="1"/>
<feComposite in2="SourceAlpha" operator="arithmetic"
k2="-1" k3="1" result="hl"/>
<feFlood flood-color="white" flood-opacity="0.2"/>
<feComposite in2="hl" operator="in" result="hl"/>
<feMorphology in="SourceAlpha" radius="0" operator="dilate"/>
<feOffset dy="2"/>
<feGaussianBlur stdDeviation="0 1" result="drop"/>
<feFlood flood-color="black" flood-opacity="1"/>
<feComposite in2="drop" operator="in" result="drop"/>
<feMerge>
<feMergeNode in="drop"/>
<feMergeNode in="SourceGraphic"/>
<feMergeNode in="hl"/>
</feMerge>
</filter>
<use id="1" style="fill:url(#acyl_gradient);filter:url(#filter1111)" xlink:href="#path-main" />
</acyl-settings>
  <path
     d="M 3.374013,9.507087 C 2.615765,9.507087 2,10.122851 2,10.8811 l 0,4.169418 44,0 0,-4.169418 C 46,10.122851 45.384235,9.507087 44.625987,9.507087 l -41.251974,0 z M 2,17.040468 2,39.229987 C 2,39.988236 2.615765,40.604 3.374013,40.604 l 41.251974,0 C 45.384235,40.604 46,39.988236 46,39.229987 l 0,-22.189519 -44,0 z m 6.206748,7.407035 28.190955,0 c 0.612683,0 1.105527,0.492845 1.105527,1.105528 l 0,3.821967 c 0,0.612683 -0.492844,1.105527 -1.105527,1.105527 l -28.190955,0 c -0.612683,0 -1.105528,-0.492844 -1.105528,-1.105527 l 0,-3.821967 c 0,-0.612683 0.492845,-1.105528 1.105528,-1.105528 z m 0.58435,1.058148 0,3.916727 2.163676,0 0,-3.916727 -2.163676,0 z"
     id="path-main"
     style="fill:none" />
</svg>
