<svg
   xmlns="http://www.w3.org/2000/svg"
   width="48"
   height="48">
<acyl-settings>
<linearGradient
     id="linearGradient4321">
    <stop
       style="stop-color:#0D6DC1;stop-opacity:1.0;"
       offset="0.0"
       id="stop1" />
    <stop
       style="stop-color:#080808;stop-opacity:1.0;"
       offset="1.0"
       id="stop2" />
  </linearGradient>
<linearGradient
     inkscape:collect="always"
     xlink:href="#linearGradient4321"
     id="acyl_gradient"
     x1="79.0%"
     y1="0.0%"
     x2="500.0%"
     y2="101.0%" />
<filter id="filter1111" x="-50%" y="-50%" width="200%" height="200%">
<feGaussianBlur in="SourceAlpha" stdDeviation="1" result="blur"/>
<feOffset in="blur" dy="1"/>
<feComposite in2="SourceAlpha" operator="arithmetic"
k2="-1" k3="1" result="hl"/>
<feFlood flood-color="white" flood-opacity="0.2"/>
<feComposite in2="hl" operator="in" result="hl"/>
<feMorphology in="SourceAlpha" radius="0" operator="dilate"/>
<feOffset dy="2"/>
<feGaussianBlur stdDeviation="0 1" result="drop"/>
<feFlood flood-color="black" flood-opacity="1"/>
<feComposite in2="drop" operator="in" result="drop"/>
<feMerge>
<feMergeNode in="drop"/>
<feMergeNode in="SourceGraphic"/>
<feMergeNode in="hl"/>
</feMerge>
</filter>
<use id="1" style="fill:url(#acyl_gradient);filter:url(#filter1111)" xlink:href="#path-main" />
</acyl-settings>
  <path
     d="M 19.784309,3.4424655 C 10.43801,4.6845955 9.258,5.340726 4.2861171,7.8169551 3.0483945,8.4333981 1.9140828,9.9055638 2.0051332,11.2853 l 0.968637,17.685437 c 0.2563891,2.181553 0.2535334,4.396591 3.1558818,5.093156 l 10.967471,3.749562 c 2.769659,0.664719 4.99551,0.822806 7.467878,-0.312463 l 1.687303,-0.781159 -2.905911,-3.780809 -1.843535,-2.405969 3.030897,0 4.874431,0 0,-11.811122 0,-1.499825 1.499825,0 8.499008,0 0.03125,0 0.312463,-4.874432 C 39.902728,10.037232 38.732923,8.7793188 36.751079,7.5669842 32.07812,4.7084418 27.180733,3.5002617 19.784309,3.4424655 z m 1.593564,3.5620844 c 3.956707,-0.040698 8.07489,0.5611194 12.029846,1.9372739 0,0 -6.304985,2.7811982 -9.24892,4.3744892 -1.078356,0.583617 -2.381804,1.245119 -2.593448,2.624694 L 20.7217,32.470329 19.909294,15.503558 C 19.851521,14.277693 17.414548,13.182588 16.253471,12.785125 10.809553,10.921558 7.8169551,10.097939 7.8169551,10.097939 11.506306,8.1602194 16.290678,7.0568758 21.377873,7.0045499 z m 9.530138,11.7173831 0,13.310947 -6.374256,0 L 35.282501,46 46,32.03288 l -6.592981,0 0,-13.310947 -8.499008,0 z"
     id="path-main"
     style="fill:none" />
</svg>
