<svg
   xmlns="http://www.w3.org/2000/svg"
   width="48"
   height="48">
<acyl-settings>
<linearGradient
     id="linearGradient4321">
    <stop
       style="stop-color:#0D6DC1;stop-opacity:1.0;"
       offset="0.0"
       id="stop1" />
    <stop
       style="stop-color:#080808;stop-opacity:1.0;"
       offset="1.0"
       id="stop2" />
  </linearGradient>
<linearGradient
     inkscape:collect="always"
     xlink:href="#linearGradient4321"
     id="acyl_gradient"
     x1="79.0%"
     y1="0.0%"
     x2="500.0%"
     y2="101.0%" />
<filter id="filter1111" x="-50%" y="-50%" width="200%" height="200%">
<feGaussianBlur in="SourceAlpha" stdDeviation="1" result="blur"/>
<feOffset in="blur" dy="1"/>
<feComposite in2="SourceAlpha" operator="arithmetic"
k2="-1" k3="1" result="hl"/>
<feFlood flood-color="white" flood-opacity="0.2"/>
<feComposite in2="hl" operator="in" result="hl"/>
<feMorphology in="SourceAlpha" radius="0" operator="dilate"/>
<feOffset dy="2"/>
<feGaussianBlur stdDeviation="0 1" result="drop"/>
<feFlood flood-color="black" flood-opacity="1"/>
<feComposite in2="drop" operator="in" result="drop"/>
<feMerge>
<feMergeNode in="drop"/>
<feMergeNode in="SourceGraphic"/>
<feMergeNode in="hl"/>
</feMerge>
</filter>
<use id="1" style="fill:url(#acyl_gradient);filter:url(#filter1111)" xlink:href="#path-main" />
</acyl-settings>
  <path
     d="M 5.2430683,9.0417026 C 3.4486104,9.0417026 2,10.490314 2,12.284772 L 2,30.04877 c 0.1198358,0.882089 0.1106525,1.195428 0.7105601,2.568948 l 2.3320942,5.338312 c 0.67874,1.554 1.032568,2.40497 3.097313,2.40497 l 34.8538727,0 c 2.972433,0 4.578757,-2.91802 0.78344,-5.174335 l -7.233136,-4.299799 c -1.040156,-0.488572 -1.548656,-1.060385 -1.548656,-2.11346 l 0,-16.488634 c 0,-1.794458 -1.448611,-3.2430694 -3.243068,-3.2430694 l -26.5093517,0 z m 0.838097,4.0993854 24.7238417,0 0,15.850952 -24.7238417,0 0,-15.850952 z"
     id="path-main"
     style="fill:none" />
</svg>
