<svg
   xmlns="http://www.w3.org/2000/svg"
   width="48"
   height="48">
<acyl-settings>
<linearGradient
     id="linearGradient4321">
    <stop
       style="stop-color:#0D6DC1;stop-opacity:1.0;"
       offset="0.0"
       id="stop1" />
    <stop
       style="stop-color:#080808;stop-opacity:1.0;"
       offset="1.0"
       id="stop2" />
  </linearGradient>
<linearGradient
     inkscape:collect="always"
     xlink:href="#linearGradient4321"
     id="acyl_gradient"
     x1="79.0%"
     y1="0.0%"
     x2="500.0%"
     y2="101.0%" />
<filter id="filter1111" x="-50%" y="-50%" width="200%" height="200%">
<feGaussianBlur in="SourceAlpha" stdDeviation="1" result="blur"/>
<feOffset in="blur" dy="1"/>
<feComposite in2="SourceAlpha" operator="arithmetic"
k2="-1" k3="1" result="hl"/>
<feFlood flood-color="white" flood-opacity="0.2"/>
<feComposite in2="hl" operator="in" result="hl"/>
<feMorphology in="SourceAlpha" radius="0" operator="dilate"/>
<feOffset dy="2"/>
<feGaussianBlur stdDeviation="0 1" result="drop"/>
<feFlood flood-color="black" flood-opacity="1"/>
<feComposite in2="drop" operator="in" result="drop"/>
<feMerge>
<feMergeNode in="drop"/>
<feMergeNode in="SourceGraphic"/>
<feMergeNode in="hl"/>
</feMerge>
</filter>
<use id="1" style="fill:url(#acyl_gradient);filter:url(#filter1111)" xlink:href="#path-main" />
</acyl-settings>
<path
   d="M 17.695625,2.000999 C 17.033371,2.000999 16.5,2.52869 16.5,3.172712 l 0,41.655576 C 16.5,45.472307 17.033371,46 17.695625,46 l 14.82575,0 C 33.183629,46 33.717,45.472307 33.717,44.828288 l 0,-41.655576 c 0,-0.644022 -0.533371,-1.171713 -1.195625,-1.171713 l -14.82575,0 z m 0.334775,0.3826 14.1562,0 c 0.63282,0 1.1478,0.51498 1.1478,1.1478 l 0,40.938201 c 0,0.63282 -0.51498,1.1478 -1.1478,1.1478 l -14.1562,0 c -0.63282,0 -1.147801,-0.51498 -1.147801,-1.1478 l 0,-40.938201 c 0,-0.63282 0.514981,-1.147799 1.147801,-1.147799 z m -0.7652,32.521001 0,9.565 c 0,0.42086 0.34434,0.765199 0.7652,0.765199 l 14.1562,0 c 0.42086,0 0.7652,-0.344339 0.7652,-0.765199 l 0,-9.565 -15.6866,0 z"
   id="path-main"
   style="fill:none" />
</svg>
