<svg
   xmlns="http://www.w3.org/2000/svg"
   width="48"
   height="48">
<acyl-settings>
<linearGradient
     id="linearGradient4321">
    <stop
       style="stop-color:#0D6DC1;stop-opacity:1.0;"
       offset="0.0"
       id="stop1" />
    <stop
       style="stop-color:#080808;stop-opacity:1.0;"
       offset="1.0"
       id="stop2" />
  </linearGradient>
<linearGradient
     inkscape:collect="always"
     xlink:href="#linearGradient4321"
     id="acyl_gradient"
     x1="79.0%"
     y1="0.0%"
     x2="500.0%"
     y2="101.0%" />
<filter id="filter1111" x="-50%" y="-50%" width="200%" height="200%">
<feGaussianBlur in="SourceAlpha" stdDeviation="1" result="blur"/>
<feOffset in="blur" dy="1"/>
<feComposite in2="SourceAlpha" operator="arithmetic"
k2="-1" k3="1" result="hl"/>
<feFlood flood-color="white" flood-opacity="0.2"/>
<feComposite in2="hl" operator="in" result="hl"/>
<feMorphology in="SourceAlpha" radius="0" operator="dilate"/>
<feOffset dy="2"/>
<feGaussianBlur stdDeviation="0 1" result="drop"/>
<feFlood flood-color="black" flood-opacity="1"/>
<feComposite in2="drop" operator="in" result="drop"/>
<feMerge>
<feMergeNode in="drop"/>
<feMergeNode in="SourceGraphic"/>
<feMergeNode in="hl"/>
</feMerge>
</filter>
<use id="1" style="fill:url(#acyl_gradient);filter:url(#filter1111)" xlink:href="#path-main" />
</acyl-settings>
  <path
     d="M 15.34375,2.0731087 C 9.4406105,1.9276419 2.704106,7.4556229 3.5,13.885609 c 0.7087379,9.524272 9.240777,32.168325 14.5,32.0625 5.1822,0.811329 7.599778,-8.099616 11.40625,-12.15625 1.32039,-0.791907 4.025109,11.28125 11.59375,11.28125 2.301618,0.164078 4.608212,-0.629248 4.6875,-2.6875 0.03187,-3.213591 -6.098059,-0.971616 -8.5625,-9.75 -1.876276,-6.68333 -4.934547,-9.91074 -7.125,-9.84375 -3.40356,1.23657 -7.652568,10.82593 -9.46875,12.0625 -6.173138,-5.434304 4.896804,-14.571339 3.0625,-22.96875 -0.573221,-6.9502936 -4.21101,-9.7129704 -8.25,-9.8125003 z"
     id="path-main"
     style="fill:none" />
</svg>
