<svg
   xmlns="http://www.w3.org/2000/svg"
   width="48"
   height="48">
<acyl-settings>
<linearGradient
     id="linearGradient4321">
    <stop
       style="stop-color:#0D6DC1;stop-opacity:1.0;"
       offset="0.0"
       id="stop1" />
    <stop
       style="stop-color:#080808;stop-opacity:1.0;"
       offset="1.0"
       id="stop2" />
  </linearGradient>
<linearGradient
     inkscape:collect="always"
     xlink:href="#linearGradient4321"
     id="acyl_gradient"
     x1="79.0%"
     y1="0.0%"
     x2="500.0%"
     y2="101.0%" />
<filter id="filter1111" x="-50%" y="-50%" width="200%" height="200%">
<feGaussianBlur in="SourceAlpha" stdDeviation="1" result="blur"/>
<feOffset in="blur" dy="1"/>
<feComposite in2="SourceAlpha" operator="arithmetic"
k2="-1" k3="1" result="hl"/>
<feFlood flood-color="white" flood-opacity="0.2"/>
<feComposite in2="hl" operator="in" result="hl"/>
<feMorphology in="SourceAlpha" radius="0" operator="dilate"/>
<feOffset dy="2"/>
<feGaussianBlur stdDeviation="0 1" result="drop"/>
<feFlood flood-color="black" flood-opacity="1"/>
<feComposite in2="drop" operator="in" result="drop"/>
<feMerge>
<feMergeNode in="drop"/>
<feMergeNode in="SourceGraphic"/>
<feMergeNode in="hl"/>
</feMerge>
</filter>
<use id="1" style="fill:url(#acyl_gradient);filter:url(#filter1111)" xlink:href="#path-main" />
</acyl-settings>
<path
   d="M 24,2 C 11.868262,2 2,11.868984 2,24 2,36.131016 11.868262,46 24,46 36.132459,46 46,36.131016 46,24 46,11.868984 36.132459,2 24,2 z m 0,6.852459 c 8.353147,0 15.147541,6.795115 15.147541,15.147541 0,8.352426 -6.794393,15.147541 -15.147541,15.147541 C 15.646852,39.147541 8.852459,32.352426 8.852459,24 8.852459,15.647574 15.646852,8.852459 24,8.852459 z m -3.245902,5.770492 c -0.596524,0 -1.081967,0.485442 -1.081967,1.081967 l 0,16.590164 c 1e-6,0.596525 0.485443,1.081967 1.081967,1.081967 l 6.491804,0 c 0.596525,0 1.081967,-0.485442 1.081967,-1.081967 l 0,-16.590164 c 0,-0.596525 -0.485443,-1.081967 -1.081967,-1.081967 l -6.491804,0 z"
   id="path-main"
   style="fill:none" />
</svg>
