<?xml version="1.0" encoding="UTF-8" standalone="no"?>
<!-- Created with Inkscape (http://www.inkscape.org/) -->

<svg
   xmlns:dc="http://purl.org/dc/elements/1.1/"
   xmlns:cc="http://creativecommons.org/ns#"
   xmlns:rdf="http://www.w3.org/1999/02/22-rdf-syntax-ns#"
   xmlns:svg="http://www.w3.org/2000/svg"
   xmlns="http://www.w3.org/2000/svg"
   xmlns:sodipodi="http://sodipodi.sourceforge.net/DTD/sodipodi-0.dtd"
   xmlns:inkscape="http://www.inkscape.org/namespaces/inkscape"
   version="1.0"
   width="48"
   height="48"
   id="svg3459"
   sodipodi:version="0.32"
   inkscape:version="0.47 r22583"
   sodipodi:docname="gsd-xrandr.svg"
   inkscape:output_extension="org.inkscape.output.svg.inkscape">
<acyl-settings>
<linearGradient
     id="linearGradient4321">
    <stop
       style="stop-color:#0D6DC1;stop-opacity:1.0;"
       offset="0.0"
       id="stop1" />
    <stop
       style="stop-color:#080808;stop-opacity:1.0;"
       offset="1.0"
       id="stop2" />
  </linearGradient>
<linearGradient
     inkscape:collect="always"
     xlink:href="#linearGradient4321"
     id="acyl_gradient"
     x1="79.0%"
     y1="0.0%"
     x2="500.0%"
     y2="101.0%" />
<filter id="filter1111" x="-50%" y="-50%" width="200%" height="200%">
<feGaussianBlur in="SourceAlpha" stdDeviation="1" result="blur"/>
<feOffset in="blur" dy="1"/>
<feComposite in2="SourceAlpha" operator="arithmetic"
k2="-1" k3="1" result="hl"/>
<feFlood flood-color="white" flood-opacity="0.2"/>
<feComposite in2="hl" operator="in" result="hl"/>
<feMorphology in="SourceAlpha" radius="0" operator="dilate"/>
<feOffset dy="2"/>
<feGaussianBlur stdDeviation="0 1" result="drop"/>
<feFlood flood-color="black" flood-opacity="1"/>
<feComposite in2="drop" operator="in" result="drop"/>
<feMerge>
<feMergeNode in="drop"/>
<feMergeNode in="SourceGraphic"/>
<feMergeNode in="hl"/>
</feMerge>
</filter>
<use id="1" style="fill:url(#acyl_gradient);filter:url(#filter1111)" xlink:href="#path-main" />
</acyl-settings>
  <path
     style="fill:none"
     d="M 5.2144541,2 C 3.4298977,2 2,3.4446354 2,5.2211838 L 2,32.018692 c 0,1.776548 1.4298973,3.255451 3.2144541,3.255451 l 37.5365279,0 C 44.535537,35.274143 46,33.79524 46,32.018692 L 46,5.2211838 C 46,3.4446353 44.535537,2 42.750982,2 L 5.2144541,2 z m 4.0439909,6.4766355 29.48311,0 c 0.44341,0 0.794973,0.337693 0.794973,0.788162 l 0,18.7445485 c 0,0.45047 -0.351562,0.788162 -0.794973,0.788162 l -29.48311,0 c -0.44341,0 -0.794973,-0.337692 -0.794973,-0.788162 l 0,-18.7445485 c 0,-0.450469 0.351563,-0.788162 0.794973,-0.788162 z m 9.36685,28.3738315 c -1.566093,0 -2.67571,1.198458 -2.972506,2.672897 l -2.384917,0 c -1.784558,0 -3.249019,1.444636 -3.249019,3.221184 0,1.776549 1.464461,3.255452 3.249019,3.255452 l 5.357423,0 10.714846,0 5.391987,0 c 1.784557,0 3.214455,-1.478902 3.214455,-3.255452 0,-1.776548 -1.429898,-3.221184 -3.214455,-3.221184 l -2.384917,0 c -0.296796,-1.474439 -1.440977,-2.672897 -3.00707,-2.672897 l -10.714846,0 z"
     id="path-main" />
</svg>
