<svg
   xmlns="http://www.w3.org/2000/svg"
   width="48"
   height="48">
<acyl-settings>
<linearGradient
     id="linearGradient4321">
    <stop
       style="stop-color:#0D6DC1;stop-opacity:1.0;"
       offset="0.0"
       id="stop1" />
    <stop
       style="stop-color:#080808;stop-opacity:1.0;"
       offset="1.0"
       id="stop2" />
  </linearGradient>
<linearGradient
     inkscape:collect="always"
     xlink:href="#linearGradient4321"
     id="acyl_gradient"
     x1="79.0%"
     y1="0.0%"
     x2="500.0%"
     y2="101.0%" />
<filter id="filter1111" x="-50%" y="-50%" width="200%" height="200%">
<feGaussianBlur in="SourceAlpha" stdDeviation="1" result="blur"/>
<feOffset in="blur" dy="1"/>
<feComposite in2="SourceAlpha" operator="arithmetic"
k2="-1" k3="1" result="hl"/>
<feFlood flood-color="white" flood-opacity="0.2"/>
<feComposite in2="hl" operator="in" result="hl"/>
<feMorphology in="SourceAlpha" radius="0" operator="dilate"/>
<feOffset dy="2"/>
<feGaussianBlur stdDeviation="0 1" result="drop"/>
<feFlood flood-color="black" flood-opacity="1"/>
<feComposite in2="drop" operator="in" result="drop"/>
<feMerge>
<feMergeNode in="drop"/>
<feMergeNode in="SourceGraphic"/>
<feMergeNode in="hl"/>
</feMerge>
</filter>
<use id="1" style="fill:url(#acyl_gradient);filter:url(#filter1111)" xlink:href="#path-main" />
</acyl-settings>
  <path
     d="M 24,2 C 11.851572,2 2,11.851572 2,24 2,29.96064 4.380041,35.35971 8.230992,39.32211 L 16.249565,26.426001 C 16.009998,25.659814 15.87928,24.845136 15.87928,24 c 0,-4.484904 3.635816,-8.12072 8.12072,-8.12072 0.767618,0 1.505039,0.120165 2.208938,0.319211 L 32.529309,3.710969 C 29.907222,2.607402 27.022912,2 24,2 z M 33.601857,4.208938 32.529309,9.916425 38.479396,7.43935 C 37.012479,6.155423 35.373699,5.070272 33.601857,4.208938 z m 6.690656,5.017992 -8.299478,13.343006 c 0.08262,0.464625 0.127685,0.941707 0.127685,1.430064 0,4.4849 -3.635816,8.12072 -8.12072,8.12072 -0.488357,0 -0.965439,-0.0451 -1.430064,-0.12768 l -6.358677,12.5769 C 18.634006,45.48825 21.255769,46 24,46 36.148428,46 46,36.14843 46,24 46,18.311891 43.836526,13.132506 40.292513,9.22693 z m -7.022635,5.720255 -5.643645,1.800348 c 2.237646,1.120669 3.885671,3.233939 4.354034,5.771329 l 1.289611,-7.571677 z m -16.63726,12.449217 -0.932096,5.477658 4.839234,-1.53221 C 18.814812,30.528 17.432184,29.12935 16.632618,27.396402 z M 16.441091,37.91759 9.71213,40.71387 c 1.656845,1.41814 3.51304,2.60628 5.541497,3.48578 l 1.187464,-6.28206 z"
     id="path-main"
     style="fill:none" />
</svg>
