<svg
   xmlns="http://www.w3.org/2000/svg"
   width="48"
   height="48">
<acyl-settings>
<linearGradient
     id="linearGradient4321">
    <stop
       style="stop-color:#0D6DC1;stop-opacity:1.0;"
       offset="0.0"
       id="stop1" />
    <stop
       style="stop-color:#080808;stop-opacity:1.0;"
       offset="1.0"
       id="stop2" />
  </linearGradient>
<linearGradient
     inkscape:collect="always"
     xlink:href="#linearGradient4321"
     id="acyl_gradient"
     x1="79.0%"
     y1="0.0%"
     x2="500.0%"
     y2="101.0%" />
<filter id="filter1111" x="-50%" y="-50%" width="200%" height="200%">
<feGaussianBlur in="SourceAlpha" stdDeviation="1" result="blur"/>
<feOffset in="blur" dy="1"/>
<feComposite in2="SourceAlpha" operator="arithmetic"
k2="-1" k3="1" result="hl"/>
<feFlood flood-color="white" flood-opacity="0.2"/>
<feComposite in2="hl" operator="in" result="hl"/>
<feMorphology in="SourceAlpha" radius="0" operator="dilate"/>
<feOffset dy="2"/>
<feGaussianBlur stdDeviation="0 1" result="drop"/>
<feFlood flood-color="black" flood-opacity="1"/>
<feComposite in2="drop" operator="in" result="drop"/>
<feMerge>
<feMergeNode in="drop"/>
<feMergeNode in="SourceGraphic"/>
<feMergeNode in="hl"/>
</feMerge>
</filter>
<use id="1" style="fill:url(#acyl_gradient);filter:url(#filter1111)" xlink:href="#path-main" />
</acyl-settings>
  <path
     d="m 10.006946,46 2.525068,-12.36412 -4.905014,0 0,-4.32453 5.775726,0 2.147757,-10.535624 -7.923483,0 0,-4.324536 8.794195,0 L 18.946261,2 l 4.353562,0 -2.525066,12.45119 9.14248,0 L 32.442302,2 l 4.382586,0 -2.525066,12.45119 5.021107,0 0,4.324536 -5.891819,0 -2.176782,10.535624 8.068601,0 0,4.32453 -8.939312,0 L 27.856551,46 l -4.353561,0 2.496042,-12.36412 -9.113456,0 L 14.360509,46 10.006946,46 m 7.749341,-16.68865 9.113456,0 2.176781,-10.535624 -9.142479,0 -2.147757,10.535624"
     id="path-main"
     style="fill:none" />
</svg>
