<?xml version="1.0" encoding="UTF-8" standalone="no"?>
<!-- Created with Inkscape (http://www.inkscape.org/) -->

<svg
   xmlns:dc="http://purl.org/dc/elements/1.1/"
   xmlns:cc="http://creativecommons.org/ns#"
   xmlns:rdf="http://www.w3.org/1999/02/22-rdf-syntax-ns#"
   xmlns:svg="http://www.w3.org/2000/svg"
   xmlns="http://www.w3.org/2000/svg"
   xmlns:xlink="http://www.w3.org/1999/xlink"
   xmlns:sodipodi="http://sodipodi.sourceforge.net/DTD/sodipodi-0.dtd"
   xmlns:inkscape="http://www.inkscape.org/namespaces/inkscape"
   version="1.0"
   width="48"
   height="48"
   id="svg1306"
   inkscape:version="0.47pre4 r22446"
   sodipodi:docname="im-nov.svg">
<acyl-settings>
<linearGradient
     id="linearGradient4321">
    <stop
       style="stop-color:#0D6DC1;stop-opacity:1.0;"
       offset="0.0"
       id="stop1" />
    <stop
       style="stop-color:#080808;stop-opacity:1.0;"
       offset="1.0"
       id="stop2" />
  </linearGradient>
<linearGradient
     inkscape:collect="always"
     xlink:href="#linearGradient4321"
     id="acyl_gradient"
     x1="79.0%"
     y1="0.0%"
     x2="500.0%"
     y2="101.0%" />
<filter id="filter1111" x="-50%" y="-50%" width="200%" height="200%">
<feGaussianBlur in="SourceAlpha" stdDeviation="1" result="blur"/>
<feOffset in="blur" dy="1"/>
<feComposite in2="SourceAlpha" operator="arithmetic"
k2="-1" k3="1" result="hl"/>
<feFlood flood-color="white" flood-opacity="0.2"/>
<feComposite in2="hl" operator="in" result="hl"/>
<feMorphology in="SourceAlpha" radius="0" operator="dilate"/>
<feOffset dy="2"/>
<feGaussianBlur stdDeviation="0 1" result="drop"/>
<feFlood flood-color="black" flood-opacity="1"/>
<feComposite in2="drop" operator="in" result="drop"/>
<feMerge>
<feMergeNode in="drop"/>
<feMergeNode in="SourceGraphic"/>
<feMergeNode in="hl"/>
</feMerge>
</filter>
<use id="1" style="fill:url(#acyl_gradient);filter:url(#filter1111)" xlink:href="#path-main" />
</acyl-settings>
<defs
     id="defs1308">
  </defs>
  <path
     style="fill:none"
     id="path-main"
     d="M 24,3.3571469 C 12.07744,3.3571468 1.9999998,11.153318 2,21.271433 c 10e-8,9.818944 9.620269,18.088053 22.971429,17.971428 1.54786,3.119341 5.067467,6.05544 10.342857,6.171429 L 39.142857,45.5 36.771429,42.442857 C 35.460923,40.763341 34.342618,39.710082 34.057143,37.01429 40.964585,34.080986 46,28.288488 46,21.271433 46.000002,11.153317 35.922561,3.357147 24,3.3571469 z m 0,3.6571428 c 10.343825,2e-7 18.342858,6.6193453 18.342857,14.2571433 0,5.65081 -4.327205,10.674212 -10.857143,12.971428 l -1.228571,0.428572 0.02857,1.314285 c 0.01884,1.9055 0.449886,3.369212 1,4.628572 -1.87304,-1.025439 -3.080565,-2.515698 -3.457143,-3.714286 l -0.4,-1.342857 L 26,35.61429 C 13.541639,36.200759 5.6571429,28.908363 5.6571429,21.271433 5.6571427,13.633636 13.656176,7.0142896 24,7.0142897 z m -8.228571,2.6571433 0,20.857142 5,0 0,-9.085714 11.342857,11.485714 0,-20.942857 -5.171429,0 0,9.2 L 15.771429,9.671433 z" />
</svg>
