<?xml version="1.0" encoding="UTF-8" standalone="no"?>
<!-- Created with Inkscape (http://www.inkscape.org/) -->

<svg
   xmlns:dc="http://purl.org/dc/elements/1.1/"
   xmlns:cc="http://creativecommons.org/ns#"
   xmlns:rdf="http://www.w3.org/1999/02/22-rdf-syntax-ns#"
   xmlns:svg="http://www.w3.org/2000/svg"
   xmlns="http://www.w3.org/2000/svg"
   xmlns:xlink="http://www.w3.org/1999/xlink"
   xmlns:sodipodi="http://sodipodi.sourceforge.net/DTD/sodipodi-0.dtd"
   xmlns:inkscape="http://www.inkscape.org/namespaces/inkscape"
   version="1.0"
   width="48"
   height="48"
   id="svg2"
   inkscape:version="0.47pre4 r22446"
   sodipodi:docname="initng.svg">
<acyl-settings>
<linearGradient
     id="linearGradient4321">
    <stop
       style="stop-color:#0D6DC1;stop-opacity:1.0;"
       offset="0.0"
       id="stop1" />
    <stop
       style="stop-color:#080808;stop-opacity:1.0;"
       offset="1.0"
       id="stop2" />
  </linearGradient>
<linearGradient
     inkscape:collect="always"
     xlink:href="#linearGradient4321"
     id="acyl_gradient"
     x1="79.0%"
     y1="0.0%"
     x2="500.0%"
     y2="101.0%" />
<filter id="filter1111" x="-50%" y="-50%" width="200%" height="200%">
<feGaussianBlur in="SourceAlpha" stdDeviation="1" result="blur"/>
<feOffset in="blur" dy="1"/>
<feComposite in2="SourceAlpha" operator="arithmetic"
k2="-1" k3="1" result="hl"/>
<feFlood flood-color="white" flood-opacity="0.2"/>
<feComposite in2="hl" operator="in" result="hl"/>
<feMorphology in="SourceAlpha" radius="0" operator="dilate"/>
<feOffset dy="2"/>
<feGaussianBlur stdDeviation="0 1" result="drop"/>
<feFlood flood-color="black" flood-opacity="1"/>
<feComposite in2="drop" operator="in" result="drop"/>
<feMerge>
<feMergeNode in="drop"/>
<feMergeNode in="SourceGraphic"/>
<feMergeNode in="hl"/>
</feMerge>
</filter>
<use id="1" style="fill:url(#acyl_gradient);filter:url(#filter1111)" xlink:href="#path-main" />
</acyl-settings>
<defs
     id="defs5">
  </defs>
  <path
     d="m 25.568045,2 c -2.067064,0 -3.744681,1.6776171 -3.744681,3.7446809 0,2.0670637 1.677617,3.7446811 3.744681,3.7446811 2.067064,0 3.74468,-1.6776173 3.744681,-3.7446811 C 29.312726,3.6776171 27.63511,2 25.568045,2 z m -3.744681,10.297872 0,17.787234 7.489362,0 0,-17.787234 -7.489362,0 z m -2.808511,1.31649 c -6.04718,2.559664 -10.2978718,8.559542 -10.2978719,15.534574 0,9.300043 7.5510209,16.851065 16.8510639,16.851064 9.300043,0 16.851064,-7.551021 16.851064,-16.851064 0,-6.975032 -4.250692,-12.97491 -10.297873,-15.534574 l 0,6.43617 c 2.832009,2.040629 4.680851,5.345106 4.680851,9.098404 10e-7,6.199448 -5.034594,11.234043 -11.234042,11.234043 -6.199448,2e-6 -11.234043,-5.034594 -11.234043,-11.234043 0,-3.753298 1.848843,-7.057775 4.680851,-9.098404 l 0,-6.43617 z"
     id="path-main"
     style="fill:none" />
</svg>
