<svg
   xmlns="http://www.w3.org/2000/svg"
   width="48"
   height="48">
<acyl-settings>
<linearGradient
     id="linearGradient4321">
    <stop
       style="stop-color:#0D6DC1;stop-opacity:1.0;"
       offset="0.0"
       id="stop1" />
    <stop
       style="stop-color:#080808;stop-opacity:1.0;"
       offset="1.0"
       id="stop2" />
  </linearGradient>
<linearGradient
     inkscape:collect="always"
     xlink:href="#linearGradient4321"
     id="acyl_gradient"
     x1="79.0%"
     y1="0.0%"
     x2="500.0%"
     y2="101.0%" />
<filter id="filter1111" x="-50%" y="-50%" width="200%" height="200%">
<feGaussianBlur in="SourceAlpha" stdDeviation="1" result="blur"/>
<feOffset in="blur" dy="1"/>
<feComposite in2="SourceAlpha" operator="arithmetic"
k2="-1" k3="1" result="hl"/>
<feFlood flood-color="white" flood-opacity="0.2"/>
<feComposite in2="hl" operator="in" result="hl"/>
<feMorphology in="SourceAlpha" radius="0" operator="dilate"/>
<feOffset dy="2"/>
<feGaussianBlur stdDeviation="0 1" result="drop"/>
<feFlood flood-color="black" flood-opacity="1"/>
<feComposite in2="drop" operator="in" result="drop"/>
<feMerge>
<feMergeNode in="drop"/>
<feMergeNode in="SourceGraphic"/>
<feMergeNode in="hl"/>
</feMerge>
</filter>
<use id="1" style="fill:url(#acyl_gradient);filter:url(#filter1111)" xlink:href="#path-main" />
</acyl-settings>
  <path
     d="M 4.461172,4.9859184 C 3.112394,4.9859184 2,6.0983124 2,7.4470904 L 2,21.153725 c 0,1.348778 1.112394,2.461172 2.461172,2.461172 l 16.324903,0 c 1.348778,0 2.461172,-1.112394 2.461172,-2.461172 l 0,-13.7066346 c 0,-1.348778 -1.112394,-2.461172 -2.461172,-2.461172 l -16.324903,0 z m 24.140433,0 c -1.020457,0 -1.845879,0.825422 -1.845879,1.845879 l 0,14.9372206 c 0,1.020457 0.825422,1.845879 1.845879,1.845879 l 15.552516,0 C 45.174579,23.614897 46,22.789475 46,21.769018 L 46,6.8317974 c 0,-1.020457 -0.825421,-1.845879 -1.845879,-1.845879 l -15.552516,0 z m -24.140433,1.531687 16.324903,0 c 0.523668,0 0.929485,0.405817 0.929485,0.929485 l 0,13.7066346 c 0,0.523668 -0.405817,0.916394 -0.929485,0.916394 l -16.324903,0 c -0.523668,0 -0.929485,-0.392726 -0.929485,-0.916394 l 0,-13.7066346 c 0,-0.523668 0.405817,-0.929485 0.929485,-0.929485 z M 3.832788,24.636021 C 2.81233,24.636021 2,25.461443 2,26.481901 L 2,41.41912 C 2,42.43958 2.81233,43.265 3.832788,43.265 l 27.845283,0 c 1.020457,0 1.832787,-0.82542 1.832787,-1.84588 l 0,-14.937219 c 0,-1.020458 -0.81233,-1.84588 -1.832787,-1.84588 l -27.845283,0 z"
     id="path-main"
     style="fill:none" />
</svg>
