<svg
   xmlns="http://www.w3.org/2000/svg"
   width="48"
   height="48">
<acyl-settings>
<linearGradient
     id="linearGradient4321">
    <stop
       style="stop-color:#0D6DC1;stop-opacity:1.0;"
       offset="0.0"
       id="stop1" />
    <stop
       style="stop-color:#080808;stop-opacity:1.0;"
       offset="1.0"
       id="stop2" />
  </linearGradient>
<linearGradient
     inkscape:collect="always"
     xlink:href="#linearGradient4321"
     id="acyl_gradient"
     x1="79.0%"
     y1="0.0%"
     x2="500.0%"
     y2="101.0%" />
<filter id="filter1111" x="-50%" y="-50%" width="200%" height="200%">
<feGaussianBlur in="SourceAlpha" stdDeviation="1" result="blur"/>
<feOffset in="blur" dy="1"/>
<feComposite in2="SourceAlpha" operator="arithmetic"
k2="-1" k3="1" result="hl"/>
<feFlood flood-color="white" flood-opacity="0.2"/>
<feComposite in2="hl" operator="in" result="hl"/>
<feMorphology in="SourceAlpha" radius="0" operator="dilate"/>
<feOffset dy="2"/>
<feGaussianBlur stdDeviation="0 1" result="drop"/>
<feFlood flood-color="black" flood-opacity="1"/>
<feComposite in2="drop" operator="in" result="drop"/>
<feMerge>
<feMergeNode in="drop"/>
<feMergeNode in="SourceGraphic"/>
<feMergeNode in="hl"/>
</feMerge>
</filter>
<use id="1" style="fill:url(#acyl_gradient);filter:url(#filter1111)" xlink:href="#path-main" />
</acyl-settings>
  <path
     d="M 22.379845,2 3.4983389,11.795442 12.817276,16.5403 22.379845,11.734297 22.379845,2 z m 3.24031,0 0,9.734297 9.562569,4.806003 9.318937,-4.73263 L 25.620155,2 z M 24,13.837688 l -10.09856,5.160644 0,10.321285 L 24,34.48027 l 10.09856,-5.160653 0,-10.321285 L 24,13.837688 z m -22,0.843801 0,18.747084 8.953488,-4.56143 0,-9.624231 L 2,14.681489 z m 44,0 -8.953488,4.561423 0,9.624231 L 46,33.428573 46,14.681489 z M 12.829457,31.569759 3.620155,36.2657 22.379845,46 l 0,-9.624233 -9.550388,-4.806008 z m 22.341086,0 -9.550388,4.806008 0,9.624233 18.771872,-9.746527 -9.221484,-4.683714 z"
     id="path-main"
     style="fill:none" />
</svg>
