<svg
   xmlns="http://www.w3.org/2000/svg"
   width="48"
   height="48">
<acyl-settings>
<linearGradient
     id="linearGradient4321">
    <stop
       style="stop-color:#0D6DC1;stop-opacity:1.0;"
       offset="0.0"
       id="stop1" />
    <stop
       style="stop-color:#080808;stop-opacity:1.0;"
       offset="1.0"
       id="stop2" />
  </linearGradient>
<linearGradient
     inkscape:collect="always"
     xlink:href="#linearGradient4321"
     id="acyl_gradient"
     x1="79.0%"
     y1="0.0%"
     x2="500.0%"
     y2="101.0%" />
<filter id="filter1111" x="-50%" y="-50%" width="200%" height="200%">
<feGaussianBlur in="SourceAlpha" stdDeviation="1" result="blur"/>
<feOffset in="blur" dy="1"/>
<feComposite in2="SourceAlpha" operator="arithmetic"
k2="-1" k3="1" result="hl"/>
<feFlood flood-color="white" flood-opacity="0.2"/>
<feComposite in2="hl" operator="in" result="hl"/>
<feMorphology in="SourceAlpha" radius="0" operator="dilate"/>
<feOffset dy="2"/>
<feGaussianBlur stdDeviation="0 1" result="drop"/>
<feFlood flood-color="black" flood-opacity="1"/>
<feComposite in2="drop" operator="in" result="drop"/>
<feMerge>
<feMergeNode in="drop"/>
<feMergeNode in="SourceGraphic"/>
<feMergeNode in="hl"/>
</feMerge>
</filter>
<use id="1" style="fill:url(#acyl_gradient);filter:url(#filter1111)" xlink:href="#path-main" />
</acyl-settings>
  <path
     d="m 29.375092,12.681143 4.546045,8.114799 -6.182181,8.048914 5.589218,0.395308 3.568757,-4.985275 2.833042,5.424507 5.622161,0.395308 L 40.421762,21.334 46,13.834125 40.542551,13.460779 37.413028,18.2484 34.887446,13.065471 29.375092,12.681143 z M 6.7327176,14.899261 2,16.853841 8.2919888,32.183014 20.425754,27.197739 18.877464,23.420349 11.476416,26.462026 6.7327176,14.899261 z m 11.2223604,3.019716 3.909159,10.574494 -0.966309,6.830047 4.172697,0.867482 0.97729,-6.830047 6.599451,-8.389319 -4.600948,-0.955328 -3.513851,4.941353 -1.943599,-6.072373 -4.63389,-0.966309 z"
     id="path-main"
     style="fill:none" />
</svg>
