<?xml version="1.0" encoding="UTF-8" standalone="no"?>
<!-- Created with Inkscape (http://www.inkscape.org/) -->

<svg
   xmlns:dc="http://purl.org/dc/elements/1.1/"
   xmlns:cc="http://creativecommons.org/ns#"
   xmlns:rdf="http://www.w3.org/1999/02/22-rdf-syntax-ns#"
   xmlns:svg="http://www.w3.org/2000/svg"
   xmlns="http://www.w3.org/2000/svg"
   xmlns:sodipodi="http://sodipodi.sourceforge.net/DTD/sodipodi-0.dtd"
   xmlns:inkscape="http://www.inkscape.org/namespaces/inkscape"
   id="svg2"
   version="1.1"
   inkscape:version="0.47 r22583"
   width="48"
   height="48">
<acyl-settings>
<linearGradient
     id="linearGradient4321">
    <stop
       style="stop-color:#0D6DC1;stop-opacity:1.0;"
       offset="0.0"
       id="stop1" />
    <stop
       style="stop-color:#080808;stop-opacity:1.0;"
       offset="1.0"
       id="stop2" />
  </linearGradient>
<linearGradient
     inkscape:collect="always"
     xlink:href="#linearGradient4321"
     id="acyl_gradient"
     x1="79.0%"
     y1="0.0%"
     x2="500.0%"
     y2="101.0%" />
<filter id="filter1111" x="-50%" y="-50%" width="200%" height="200%">
<feGaussianBlur in="SourceAlpha" stdDeviation="1" result="blur"/>
<feOffset in="blur" dy="1"/>
<feComposite in2="SourceAlpha" operator="arithmetic"
k2="-1" k3="1" result="hl"/>
<feFlood flood-color="white" flood-opacity="0.2"/>
<feComposite in2="hl" operator="in" result="hl"/>
<feMorphology in="SourceAlpha" radius="0" operator="dilate"/>
<feOffset dy="2"/>
<feGaussianBlur stdDeviation="0 1" result="drop"/>
<feFlood flood-color="black" flood-opacity="1"/>
<feComposite in2="drop" operator="in" result="drop"/>
<feMerge>
<feMergeNode in="drop"/>
<feMergeNode in="SourceGraphic"/>
<feMergeNode in="hl"/>
</feMerge>
</filter>
<use id="1" style="fill:url(#acyl_gradient);filter:url(#filter1111)" xlink:href="#path-main" />
</acyl-settings>
  <path
     style="fill:none"
     d="M 22.790124,3.5088733 C 11.834197,4.0671203 3.0401236,13.200509 3.0401236,24.290124 c 0,11.447346 9.3651554,20.78125 20.8125004,20.78125 11.447343,-10e-7 20.781252,-9.333902 20.78125,-20.78125 -2e-6,-11.447345 -9.333905,-20.7812507 -20.78125,-20.7812507 -0.35773,0 -0.709083,-0.01801 -1.0625,0 z m 1.0625,5.5625 c 8.425051,0 15.1875,6.7936977 15.1875,15.2187507 1e-6,8.425053 -6.762447,15.1875 -15.1875,15.1875 -8.425055,1e-6 -15.2187504,-6.762446 -15.2187504,-15.1875 -10e-7,-8.425053 6.7936974,-15.2187507 15.2187504,-15.2187507 z m -2.9375,3.8750007 0,20.09375 5.5625,0 0,-20.09375 -5.5625,0 z m 7.9375,8.03125 0,11.84375 5.625,0 0,-11.84375 -5.625,0 z m -16.0625,0.0625 0,11.78125 5.84375,0 0,-11.78125 -5.84375,0 z"
     id="path-main" />
</svg>
