<?xml version="1.0" encoding="UTF-8" standalone="no"?>
<svg
   xmlns:svg="http://www.w3.org/2000/svg"
   xmlns="http://www.w3.org/2000/svg"
   xmlns:sodipodi="http://sodipodi.sourceforge.net/DTD/sodipodi-0.dtd"
   xmlns:inkscape="http://www.inkscape.org/namespaces/inkscape"
   width="48"
   height="48"
   id="svg2"
   inkscape:label="Pozadí"
   sodipodi:version="0.32"
   inkscape:version="0.47 r22583"
   version="1.0"
   sodipodi:docname="meld.svg"
   inkscape:output_extension="org.inkscape.output.svg.inkscape"
   inkscape:export-filename="/home/cornelius/GFX/ikony/Tango/meld/48x48/meld.png"
   inkscape:export-xdpi="90"
   inkscape:export-ydpi="90"
   sodipodi:modified="TRUE">
<acyl-settings>
<linearGradient
     id="linearGradient4321">
    <stop
       style="stop-color:#0D6DC1;stop-opacity:1.0;"
       offset="0.0"
       id="stop1" />
    <stop
       style="stop-color:#080808;stop-opacity:1.0;"
       offset="1.0"
       id="stop2" />
  </linearGradient>
<linearGradient
     inkscape:collect="always"
     xlink:href="#linearGradient4321"
     id="acyl_gradient"
     x1="79.0%"
     y1="0.0%"
     x2="500.0%"
     y2="101.0%" />
<filter id="filter1111" x="-50%" y="-50%" width="200%" height="200%">
<feGaussianBlur in="SourceAlpha" stdDeviation="1" result="blur"/>
<feOffset in="blur" dy="1"/>
<feComposite in2="SourceAlpha" operator="arithmetic"
k2="-1" k3="1" result="hl"/>
<feFlood flood-color="white" flood-opacity="0.2"/>
<feComposite in2="hl" operator="in" result="hl"/>
<feMorphology in="SourceAlpha" radius="0" operator="dilate"/>
<feOffset dy="2"/>
<feGaussianBlur stdDeviation="0 1" result="drop"/>
<feFlood flood-color="black" flood-opacity="1"/>
<feComposite in2="drop" operator="in" result="drop"/>
<feMerge>
<feMergeNode in="drop"/>
<feMergeNode in="SourceGraphic"/>
<feMergeNode in="hl"/>
</feMerge>
</filter>
<use id="1" style="fill:url(#acyl_gradient);filter:url(#filter1111)" xlink:href="#path-main" />
</acyl-settings>
  <path
     style="fill:none"
     d="m 23.59375,2.53125 c -6.98504,2.179716 -12.90166,9.788021 -12.25,17.40625 0.46206,5.401706 4.97165,11.130914 10.75,10.5 3.421559,-0.373586 5.843205,-3.143699 5.34375,-6.8125 -0.475749,-1.57901 -3.067434,-1.401892 -3.875,-1.03125 0.292463,-1.106356 2.248204,-2.824734 4.5,-1.78125 2.784861,1.599848 5.055639,7.182886 1.875,11.15625 -3.109104,3.884 -6.980575,5.474029 -10.875,5.53125 -3.89442,0.05722 -7.82992,-1.400374 -11.125,-3.59375 C 6.24394,32.778931 4.77727,31.449149 3.5,30 l 0,6.21875 C 3.5,40.254561 6.76995,43.5 10.8125,43.5 l 13.59375,-0.03125 c 6.985037,-2.179716 12.901658,-9.788021 12.25,-17.40625 -0.462058,-5.401706 -4.971649,-11.130914 -10.75,-10.5 -3.421559,0.373586 -5.843205,2.987449 -5.34375,6.65625 0.475749,1.57901 3.067434,1.558142 3.875,1.1875 -0.292463,1.106356 -2.279454,2.824734 -4.53125,1.78125 C 17.121384,23.587652 14.881863,18.004614 18.0625,14.03125 21.171604,10.14725 25.043075,8.557221 28.9375,8.5 32.831925,8.442779 36.767418,9.900374 40.0625,12.09375 41.756058,13.221069 43.22273,14.550851 44.5,16 l 0,-6.21875 C 44.5,5.7454396 41.230055,2.5 37.1875,2.5 L 23.59375,2.53125 z"
     id="path-main"
     sodipodi:nodetypes="csscccsssccccsscccssscccc" />
</svg>
