<?xml version="1.0" encoding="UTF-8" standalone="no"?>
<!-- Created with Inkscape (http://www.inkscape.org/) -->

<svg
   xmlns:dc="http://purl.org/dc/elements/1.1/"
   xmlns:cc="http://creativecommons.org/ns#"
   xmlns:rdf="http://www.w3.org/1999/02/22-rdf-syntax-ns#"
   xmlns:svg="http://www.w3.org/2000/svg"
   xmlns="http://www.w3.org/2000/svg"
   xmlns:sodipodi="http://sodipodi.sourceforge.net/DTD/sodipodi-0.dtd"
   xmlns:inkscape="http://www.inkscape.org/namespaces/inkscape"
   id="svg3459"
   version="1.1"
   inkscape:version="0.47 r22583"
   width="48"
   height="48"
   sodipodi:docname="mirage.svg">
<acyl-settings>
<linearGradient
     id="linearGradient4321">
    <stop
       style="stop-color:#0D6DC1;stop-opacity:1.0;"
       offset="0.0"
       id="stop1" />
    <stop
       style="stop-color:#080808;stop-opacity:1.0;"
       offset="1.0"
       id="stop2" />
  </linearGradient>
<linearGradient
     inkscape:collect="always"
     xlink:href="#linearGradient4321"
     id="acyl_gradient"
     x1="79.0%"
     y1="0.0%"
     x2="500.0%"
     y2="101.0%" />
<filter id="filter1111" x="-50%" y="-50%" width="200%" height="200%">
<feGaussianBlur in="SourceAlpha" stdDeviation="1" result="blur"/>
<feOffset in="blur" dy="1"/>
<feComposite in2="SourceAlpha" operator="arithmetic"
k2="-1" k3="1" result="hl"/>
<feFlood flood-color="white" flood-opacity="0.2"/>
<feComposite in2="hl" operator="in" result="hl"/>
<feMorphology in="SourceAlpha" radius="0" operator="dilate"/>
<feOffset dy="2"/>
<feGaussianBlur stdDeviation="0 1" result="drop"/>
<feFlood flood-color="black" flood-opacity="1"/>
<feComposite in2="drop" operator="in" result="drop"/>
<feMerge>
<feMergeNode in="drop"/>
<feMergeNode in="SourceGraphic"/>
<feMergeNode in="hl"/>
</feMerge>
</filter>
<use id="1" style="fill:url(#acyl_gradient);filter:url(#filter1111)" xlink:href="#path-main" />
</acyl-settings>
<defs
     id="defs3463">
  </defs>
  <path
     style="fill:none"
     d="M 24.018858,2.5143065 C 2.3553384,2.6987529 2.5440607,20.686604 2.5440607,20.686604 c 2.0721629,1.66002 7.5273063,-7.472898 9.9762253,-7.104005 3.00219,0.452235 0.739834,11.079972 2.623617,11.448864 1.261067,0.24695 3.879369,-3.951635 6.316117,-6.628289 l 0,18.901725 C 3.1787807,37.825012 2.5440607,45.487191 2.5440607,45.487191 L 45.299312,45.201762 c 0,0 -0.185573,-6.797759 -17.523175,-7.801718 l 0,-17.9503 c 1.977624,2.666596 4.166839,5.935714 4.793771,5.296292 2.260534,-2.305584 0.286372,-10.423132 2.170153,-12.083152 1.88378,-1.66002 9.2802,10.04647 10.170567,8.309148 C 45.800996,19.23471 45.682379,2.3298601 24.018858,2.5143065 z"
     id="path-main" />
</svg>
