<?xml version="1.0" encoding="UTF-8" standalone="no"?>
<!-- Created with Inkscape (http://www.inkscape.org/) -->

<svg
   xmlns:dc="http://purl.org/dc/elements/1.1/"
   xmlns:cc="http://creativecommons.org/ns#"
   xmlns:rdf="http://www.w3.org/1999/02/22-rdf-syntax-ns#"
   xmlns:svg="http://www.w3.org/2000/svg"
   xmlns="http://www.w3.org/2000/svg"
   xmlns:xlink="http://www.w3.org/1999/xlink"
   xmlns:sodipodi="http://sodipodi.sourceforge.net/DTD/sodipodi-0.dtd"
   xmlns:inkscape="http://www.inkscape.org/namespaces/inkscape"
   version="1.0"
   width="48"
   height="48"
   id="svg4289"
   inkscape:version="0.47pre4 r22446"
   sodipodi:docname="nm-secure-lock.svg">  

<acyl-settings>
<linearGradient
     id="linearGradient4321">
    <stop
       style="stop-color:#0D6DC1;stop-opacity:1.0;"
       offset="0.0"
       id="stop1" />
    <stop
       style="stop-color:#080808;stop-opacity:1.0;"
       offset="1.0"
       id="stop2" />
  </linearGradient>
<linearGradient
     inkscape:collect="always"
     xlink:href="#linearGradient4321"
     id="acyl_gradient"
     x1="79.0%"
     y1="0.0%"
     x2="500.0%"
     y2="101.0%" />
<filter id="filter1111" x="-50%" y="-50%" width="200%" height="200%">
<feGaussianBlur in="SourceAlpha" stdDeviation="1" result="blur"/>
<feOffset in="blur" dy="1"/>
<feComposite in2="SourceAlpha" operator="arithmetic"
k2="-1" k3="1" result="hl"/>
<feFlood flood-color="white" flood-opacity="0.2"/>
<feComposite in2="hl" operator="in" result="hl"/>
<feMorphology in="SourceAlpha" radius="0" operator="dilate"/>
<feOffset dy="2"/>
<feGaussianBlur stdDeviation="0 1" result="drop"/>
<feFlood flood-color="black" flood-opacity="1"/>
<feComposite in2="drop" operator="in" result="drop"/>
<feMerge>
<feMergeNode in="drop"/>
<feMergeNode in="SourceGraphic"/>
<feMergeNode in="hl"/>
</feMerge>
</filter>
<use id="1" style="fill:url(#acyl_gradient);filter:url(#filter1111)" xlink:href="#path-main" />
</acyl-settings>
<defs
     id="defs4291">
  </defs>
  <path
     style="fill:none"
     id="path-main"
   d="m 37.910775,2.0348962 c -3.095212,0 -5.306079,1.8104254 -5.306079,4.771235 l 0,2.6024918 -0.884347,0 c -0.884346,0 -1.32652,0.4337486 -1.32652,1.301246 l 0,7.373725 c 0,0.425215 0.442174,1.301246 1.32652,1.301246 l 12.992828,0 c 0.714544,-0.0041 1.156718,-0.876032 1.156718,-1.301246 l 0,-7.373725 c 0,-0.8674974 -0.442174,-1.305347 -1.32652,-1.305347 l -0.884346,0.00411 0,-2.6024918 c 0,-3.0362466 -2.210866,-4.7712411 -5.30608,-4.7712411 l -0.442174,0 z m 0,2.1687431 0.442174,0 c 3.095214,0 3.095214,2.6024919 3.095214,3.4699892 l 0,1.7349945 -6.6326,0 0,-1.7349945 c 0,-0.8674973 0,-3.4699892 3.095212,-3.4699892 z" />
</svg>
