<?xml version="1.0" encoding="UTF-8" standalone="no"?>
<!-- Created with Inkscape (http://www.inkscape.org/) -->

<svg
   xmlns:dc="http://purl.org/dc/elements/1.1/"
   xmlns:cc="http://creativecommons.org/ns#"
   xmlns:rdf="http://www.w3.org/1999/02/22-rdf-syntax-ns#"
   xmlns:svg="http://www.w3.org/2000/svg"
   xmlns="http://www.w3.org/2000/svg"
   xmlns:xlink="http://www.w3.org/1999/xlink"
   xmlns:sodipodi="http://sodipodi.sourceforge.net/DTD/sodipodi-0.dtd"
   xmlns:inkscape="http://www.inkscape.org/namespaces/inkscape"
   version="1.0"
   width="48"
   height="48"
   id="svg4289"
   inkscape:version="0.47pre4 r22446"
   sodipodi:docname="nm-vpn-connecting01.svg">  

<acyl-settings>
<linearGradient
     id="linearGradient4321">
    <stop
       style="stop-color:#0D6DC1;stop-opacity:1.0;"
       offset="0.0"
       id="stop1" />
    <stop
       style="stop-color:#080808;stop-opacity:1.0;"
       offset="1.0"
       id="stop2" />
  </linearGradient>
<linearGradient
     inkscape:collect="always"
     xlink:href="#linearGradient4321"
     id="acyl_gradient"
     x1="79.0%"
     y1="0.0%"
     x2="500.0%"
     y2="101.0%" />
<filter id="filter1111" x="-50%" y="-50%" width="200%" height="200%">
<feGaussianBlur in="SourceAlpha" stdDeviation="1" result="blur"/>
<feOffset in="blur" dy="1"/>
<feComposite in2="SourceAlpha" operator="arithmetic"
k2="-1" k3="1" result="hl"/>
<feFlood flood-color="white" flood-opacity="0.2"/>
<feComposite in2="hl" operator="in" result="hl"/>
<feMorphology in="SourceAlpha" radius="0" operator="dilate"/>
<feOffset dy="2"/>
<feGaussianBlur stdDeviation="0 1" result="drop"/>
<feFlood flood-color="black" flood-opacity="1"/>
<feComposite in2="drop" operator="in" result="drop"/>
<feMerge>
<feMergeNode in="drop"/>
<feMergeNode in="SourceGraphic"/>
<feMergeNode in="hl"/>
</feMerge>
</filter>
<use id="1" style="fill:url(#acyl_gradient);filter:url(#filter1111)" xlink:href="#path-main" />
</acyl-settings>
<defs
     id="defs4291">
  </defs>
  <path
     style="fill:none"
     id="path-main"
       d="M 21.8125 6.75 C 21.014867 6.75 20.375 7.3898667 20.375 8.1875 C 20.375 8.9851333 21.014867 9.625 21.8125 9.625 C 22.610133 9.625 23.28125 8.9851333 23.28125 8.1875 C 23.28125 7.3898667 22.610133 6.75 21.8125 6.75 z M 16.25 8.875 C 11.681578 8.875 8.40625 11.624501 8.40625 16.09375 L 8.40625 20 L 7.125 20 C 5.8197372 20 5.15625 20.659291 5.15625 21.96875 L 5.15625 33.09375 C 5.15625 33.735598 5.8197372 35.0625 7.125 35.0625 L 26.28125 35.0625 C 27.335891 35.0563 28 33.735597 28 33.09375 L 28 21.96875 C 28 20.659291 27.336513 20 26.03125 20 L 24.71875 20 L 24.71875 16.09375 C 24.71875 11.510631 21.474674 8.875 16.90625 8.875 L 16.25 8.875 z M 16.25 12.15625 L 16.90625 12.15625 C 21.474674 12.15625 21.46875 16.06554 21.46875 17.375 L 21.46875 20 L 11.6875 20 L 11.6875 17.375 C 11.6875 16.06554 11.681578 12.15625 16.25 12.15625 z "
 />
</svg>
