<svg
   xmlns="http://www.w3.org/2000/svg"
   width="48"
   height="48">
<acyl-settings>
<linearGradient
     id="linearGradient4321">
    <stop
       style="stop-color:#0D6DC1;stop-opacity:1.0;"
       offset="0.0"
       id="stop1" />
    <stop
       style="stop-color:#080808;stop-opacity:1.0;"
       offset="1.0"
       id="stop2" />
  </linearGradient>
<linearGradient
     inkscape:collect="always"
     xlink:href="#linearGradient4321"
     id="acyl_gradient"
     x1="79.0%"
     y1="0.0%"
     x2="500.0%"
     y2="101.0%" />
<filter id="filter1111" x="-50%" y="-50%" width="200%" height="200%">
<feGaussianBlur in="SourceAlpha" stdDeviation="1" result="blur"/>
<feOffset in="blur" dy="1"/>
<feComposite in2="SourceAlpha" operator="arithmetic"
k2="-1" k3="1" result="hl"/>
<feFlood flood-color="white" flood-opacity="0.2"/>
<feComposite in2="hl" operator="in" result="hl"/>
<feMorphology in="SourceAlpha" radius="0" operator="dilate"/>
<feOffset dy="2"/>
<feGaussianBlur stdDeviation="0 1" result="drop"/>
<feFlood flood-color="black" flood-opacity="1"/>
<feComposite in2="drop" operator="in" result="drop"/>
<feMerge>
<feMergeNode in="drop"/>
<feMergeNode in="SourceGraphic"/>
<feMergeNode in="hl"/>
</feMerge>
</filter>
<use id="1" style="fill:url(#acyl_gradient);filter:url(#filter1111)" xlink:href="#path-main" />
</acyl-settings>
  <path
     d="m 28.6582,3.862864 -6.6645,3.248974 0,33.308922 C 14.3886,39.46732 8.6646,35.32217 8.6646,30.340614 c 0,-4.722259 5.1492,-8.699545 12.1628,-9.913536 l 0,-4.234774 C 10.0995,17.488977 2,23.33116 2,30.340614 2,37.6027 10.69,43.60053 21.9937,44.6 l 6.6645,-3.1379 0,-37.599236 z m 1.1663,12.32944 0,4.234774 c 2.6088,0.451509 4.9637,1.275533 6.8868,2.388134 l -3.61,2.041022 L 46,27.660904 45.0697,18.108365 41.6403,20.038311 C 38.4544,18.111083 34.3741,16.74219 29.8245,16.192304 z"
     id="path-main"
     style="fill:none" />
</svg>
