<?xml version="1.0" encoding="UTF-8" standalone="no"?>
<!-- Created with Inkscape (http://www.inkscape.org/) -->

<svg
   xmlns:dc="http://purl.org/dc/elements/1.1/"
   xmlns:cc="http://creativecommons.org/ns#"
   xmlns:rdf="http://www.w3.org/1999/02/22-rdf-syntax-ns#"
   xmlns:svg="http://www.w3.org/2000/svg"
   xmlns="http://www.w3.org/2000/svg"
   xmlns:xlink="http://www.w3.org/1999/xlink"
   xmlns:sodipodi="http://sodipodi.sourceforge.net/DTD/sodipodi-0.dtd"
   xmlns:inkscape="http://www.inkscape.org/namespaces/inkscape"
   version="1.0"
   width="48"
   height="48"
   id="svg2160"
   inkscape:version="0.47pre4 r22446"
   sodipodi:docname="totem.svg">
<acyl-settings>
<linearGradient
     id="linearGradient4321">
    <stop
       style="stop-color:#0D6DC1;stop-opacity:1.0;"
       offset="0.0"
       id="stop1" />
    <stop
       style="stop-color:#080808;stop-opacity:1.0;"
       offset="1.0"
       id="stop2" />
  </linearGradient>
<linearGradient
     inkscape:collect="always"
     xlink:href="#linearGradient4321"
     id="acyl_gradient"
     x1="79.0%"
     y1="0.0%"
     x2="500.0%"
     y2="101.0%" />
<filter id="filter1111" x="-50%" y="-50%" width="200%" height="200%">
<feGaussianBlur in="SourceAlpha" stdDeviation="1" result="blur"/>
<feOffset in="blur" dy="1"/>
<feComposite in2="SourceAlpha" operator="arithmetic"
k2="-1" k3="1" result="hl"/>
<feFlood flood-color="white" flood-opacity="0.2"/>
<feComposite in2="hl" operator="in" result="hl"/>
<feMorphology in="SourceAlpha" radius="0" operator="dilate"/>
<feOffset dy="2"/>
<feGaussianBlur stdDeviation="0 1" result="drop"/>
<feFlood flood-color="black" flood-opacity="1"/>
<feComposite in2="drop" operator="in" result="drop"/>
<feMerge>
<feMergeNode in="drop"/>
<feMergeNode in="SourceGraphic"/>
<feMergeNode in="hl"/>
</feMerge>
</filter>
<use id="1" style="fill:url(#acyl_gradient);filter:url(#filter1111)" xlink:href="#path-main" />
</acyl-settings>
<defs
     id="defs2162">
  </defs>
  <path
     style="fill:none"
     id="path-main"
     d="M 22.159477,2 C 11.435739,2.8846059 2.8887391,11.43609 2,22.159477 l 6.4705882,0 C 9.3080788,14.986234 14.986234,9.308079 22.159477,8.470588 l 0,-6.470588 z m 3.681046,0 0,6.470588 c 7.173242,0.837491 12.851398,6.515646 13.688889,13.688889 l 6.470588,0 C 45.111261,11.43609 36.564262,2.884606 25.840523,2 z m -7.362092,12.797386 0,17.484967 15.644445,-8.224837 -15.644445,-9.26013 z M 2,25.840523 C 2.8887392,36.563911 11.435739,45.115394 22.159477,46 l 0,-6.470588 C 14.986233,38.691921 9.3080787,33.013766 8.4705882,25.840523 L 2,25.840523 z m 37.529412,0 C 38.69192,33.013767 33.013766,38.691921 25.840523,39.529412 l 0,6.470588 C 36.564261,45.115394 45.111261,36.56391 46,25.840523 l -6.470588,0 z" />
</svg>
