<svg
   xmlns="http://www.w3.org/2000/svg"
   width="48"
   height="48">
<acyl-settings>
<linearGradient
     id="linearGradient4321">
    <stop
       style="stop-color:#0D6DC1;stop-opacity:1.0;"
       offset="0.0"
       id="stop1" />
    <stop
       style="stop-color:#080808;stop-opacity:1.0;"
       offset="1.0"
       id="stop2" />
  </linearGradient>
<linearGradient
     inkscape:collect="always"
     xlink:href="#linearGradient4321"
     id="acyl_gradient"
     x1="79.0%"
     y1="0.0%"
     x2="500.0%"
     y2="101.0%" />
<filter id="filter1111" x="-50%" y="-50%" width="200%" height="200%">
<feGaussianBlur in="SourceAlpha" stdDeviation="1" result="blur"/>
<feOffset in="blur" dy="1"/>
<feComposite in2="SourceAlpha" operator="arithmetic"
k2="-1" k3="1" result="hl"/>
<feFlood flood-color="white" flood-opacity="0.2"/>
<feComposite in2="hl" operator="in" result="hl"/>
<feMorphology in="SourceAlpha" radius="0" operator="dilate"/>
<feOffset dy="2"/>
<feGaussianBlur stdDeviation="0 1" result="drop"/>
<feFlood flood-color="black" flood-opacity="1"/>
<feComposite in2="drop" operator="in" result="drop"/>
<feMerge>
<feMergeNode in="drop"/>
<feMergeNode in="SourceGraphic"/>
<feMergeNode in="hl"/>
</feMerge>
</filter>
<use id="1" style="fill:url(#acyl_gradient);filter:url(#filter1111)" xlink:href="#path-main" />
</acyl-settings>
  <path
     style="fill:none"
     d="m 7.2727273,2 0,44 32.8866047,0 0,-44 -32.8866047,0 z m 8.6185567,3.402063 4.536084,0 0,4.536083 -4.536084,0 0,-4.536083 z m 5.443303,0 4.536083,0 0,4.536083 -4.536083,0 0,-4.536083 z m 5.443302,0 4.536084,0 0,4.536083 -4.536084,0 0,-4.536083 z m -16.329901,5.443302 4.536083,0 0,4.536083 -4.536083,0 0,-4.536083 z m 21.773198,0 4.536083,0 0,4.536083 -4.536083,0 0,-4.536083 z m -16.329902,5.443297 4.536084,0 0,4.536083 -4.536084,0 0,-4.536083 z m 5.443303,0 4.536083,0 0,4.536083 -4.536083,0 0,-4.536083 z m 5.443302,0 4.536084,0 0,4.536083 -4.536084,0 0,-4.536083 z m -5.443302,5.443302 4.536083,0 0,4.536083 -4.536083,0 0,-4.536083 z m 0,5.443302 4.536083,0 0,4.536084 -4.536083,0 0,-4.536084 z m 0,5.443297 4.536083,0 0,4.536078 -4.536083,0 0,-4.536078 z m -5.443303,5.443291 4.536084,0 0,4.536083 -4.536084,0 0,-4.536083 z m 5.443303,0 4.536083,0 0,4.536083 -4.536083,0 0,-4.536083 z"
     id="path-main"/>
</svg>
