<svg
   xmlns="http://www.w3.org/2000/svg"
   width="48"
   height="48">
<acyl-settings>
<linearGradient
     id="linearGradient4321">
    <stop
       style="stop-color:#0D6DC1;stop-opacity:1.0;"
       offset="0.0"
       id="stop1" />
    <stop
       style="stop-color:#080808;stop-opacity:1.0;"
       offset="1.0"
       id="stop2" />
  </linearGradient>
<linearGradient
     inkscape:collect="always"
     xlink:href="#linearGradient4321"
     id="acyl_gradient"
     x1="79.0%"
     y1="0.0%"
     x2="500.0%"
     y2="101.0%" />
<filter id="filter1111" x="-50%" y="-50%" width="200%" height="200%">
<feGaussianBlur in="SourceAlpha" stdDeviation="1" result="blur"/>
<feOffset in="blur" dy="1"/>
<feComposite in2="SourceAlpha" operator="arithmetic"
k2="-1" k3="1" result="hl"/>
<feFlood flood-color="white" flood-opacity="0.2"/>
<feComposite in2="hl" operator="in" result="hl"/>
<feMorphology in="SourceAlpha" radius="0" operator="dilate"/>
<feOffset dy="2"/>
<feGaussianBlur stdDeviation="0 1" result="drop"/>
<feFlood flood-color="black" flood-opacity="1"/>
<feComposite in2="drop" operator="in" result="drop"/>
<feMerge>
<feMergeNode in="drop"/>
<feMergeNode in="SourceGraphic"/>
<feMergeNode in="hl"/>
</feMerge>
</filter>
<use id="1" style="fill:url(#acyl_gradient);filter:url(#filter1111)" xlink:href="#path-main" />
</acyl-settings>
  <path
     d="M 5.661547,3.5 C 3.6219924,3.5 2,5.14501 2,7.182635 L 2,40.81737 C 2,42.85499 3.6219924,44.5 5.661547,44.5 l 36.652332,0 C 44.353434,44.5 46,42.85499 46,40.81737 L 46,7.182635 C 46,5.14501 44.353434,3.5 42.313879,3.5 l -36.652332,0 z m 0.172019,9.82036 4.914828,0 28.358559,0 3.034907,0 0,6.30958 -3.034907,0 -28.358559,0 -4.914828,0 0,-6.30958 z m 0,8.813771 4.914828,0 29.230941,0 2.162525,0 0,5.082037 -2.162525,0 -29.230941,0 -4.914828,0 0,-5.082037 z m 0,7.586229 4.914828,0 29.058922,0 2.334544,0 0,4.02635 -2.334544,0 -29.058922,0 -4.914828,0 0,-4.02635 z m 0,6.55509 2.64172,0 2.273108,0 31.393466,0 0,4.02634 -31.393466,0 -2.273108,0 -2.64172,0 0,-4.02634 z"
     id="path-main"
     style="fill:none" />
</svg>
