<svg
   xmlns="http://www.w3.org/2000/svg"
   width="48"
   height="48">
<acyl-settings>
<linearGradient
     id="linearGradient4321">
    <stop
       style="stop-color:#0D6DC1;stop-opacity:1.0;"
       offset="0.0"
       id="stop1" />
    <stop
       style="stop-color:#080808;stop-opacity:1.0;"
       offset="1.0"
       id="stop2" />
  </linearGradient>
<linearGradient
     inkscape:collect="always"
     xlink:href="#linearGradient4321"
     id="acyl_gradient"
     x1="79.0%"
     y1="0.0%"
     x2="500.0%"
     y2="101.0%" />
<filter id="filter1111" x="-50%" y="-50%" width="200%" height="200%">
<feGaussianBlur in="SourceAlpha" stdDeviation="1" result="blur"/>
<feOffset in="blur" dy="1"/>
<feComposite in2="SourceAlpha" operator="arithmetic"
k2="-1" k3="1" result="hl"/>
<feFlood flood-color="white" flood-opacity="0.2"/>
<feComposite in2="hl" operator="in" result="hl"/>
<feMorphology in="SourceAlpha" radius="0" operator="dilate"/>
<feOffset dy="2"/>
<feGaussianBlur stdDeviation="0 1" result="drop"/>
<feFlood flood-color="black" flood-opacity="1"/>
<feComposite in2="drop" operator="in" result="drop"/>
<feMerge>
<feMergeNode in="drop"/>
<feMergeNode in="SourceGraphic"/>
<feMergeNode in="hl"/>
</feMerge>
</filter>
<use id="1" style="fill:url(#acyl_gradient);filter:url(#filter1111)" xlink:href="#path-main" />
</acyl-settings>
  <path
     d="M 13.784144,2 C 11.422498,2 9.522,3.900497 9.522,6.262144 l 0,35.475716 C 9.522,44.09951 11.422498,46 13.784144,46 l 20.70365,0 c 2.361646,0 4.262146,-1.90049 4.262146,-4.26214 l 0,-35.475716 C 38.74994,3.900497 36.84944,2 34.487794,2 l -20.70365,0 z m 0.442656,2.592699 19.818338,0 c 1.116679,0 2.010923,0.894243 2.010923,2.010922 l 0,29.569419 c 0,1.11668 -0.894244,2.01092 -2.010923,2.01092 l -19.818338,0 c -1.11668,0 -2.010922,-0.89424 -2.010922,-2.01092 l 0,-29.569419 c 0,-1.116679 0.894242,-2.010922 2.010922,-2.010922 z m 1.492383,35.602181 c 1.026538,0 1.859155,0.83262 1.859155,1.85916 0,1.02654 -0.832617,1.85916 -1.859155,1.85916 -1.026538,0 -1.859155,-0.83262 -1.859155,-1.85916 0,-1.02654 0.832617,-1.85916 1.859155,-1.85916 z m 5.615407,0 c 1.026537,0 1.859154,0.83262 1.859154,1.85916 0,1.02654 -0.832617,1.85916 -1.859154,1.85916 -1.026538,0 -1.859156,-0.83262 -1.859156,-1.85916 0,-1.02654 0.832618,-1.85916 1.859156,-1.85916 z m 5.615406,0 c 1.026538,0 1.859155,0.83262 1.859155,1.85916 0,1.02654 -0.832617,1.85916 -1.859155,1.85916 -1.026537,0 -1.859155,-0.83262 -1.859155,-1.85916 0,-1.02654 0.832618,-1.85916 1.859155,-1.85916 z m 5.615407,0 c 1.026537,0 1.859154,0.83262 1.859154,1.85916 0,1.02654 -0.832617,1.85916 -1.859154,1.85916 -1.026538,0 -1.859155,-0.83262 -1.859155,-1.85916 0,-1.02654 0.832617,-1.85916 1.859155,-1.85916 z"
     id="path-main"
     style="fill:none" />
</svg>
