<svg
   xmlns="http://www.w3.org/2000/svg"
   width="48"
   height="48">
<acyl-settings>
<linearGradient
     id="linearGradient4321">
    <stop
       style="stop-color:#0D6DC1;stop-opacity:1.0;"
       offset="0.0"
       id="stop1" />
    <stop
       style="stop-color:#080808;stop-opacity:1.0;"
       offset="1.0"
       id="stop2" />
  </linearGradient>
<linearGradient
     inkscape:collect="always"
     xlink:href="#linearGradient4321"
     id="acyl_gradient"
     x1="79.0%"
     y1="0.0%"
     x2="500.0%"
     y2="101.0%" />
<filter id="filter1111" x="-50%" y="-50%" width="200%" height="200%">
<feGaussianBlur in="SourceAlpha" stdDeviation="1" result="blur"/>
<feOffset in="blur" dy="1"/>
<feComposite in2="SourceAlpha" operator="arithmetic"
k2="-1" k3="1" result="hl"/>
<feFlood flood-color="white" flood-opacity="0.2"/>
<feComposite in2="hl" operator="in" result="hl"/>
<feMorphology in="SourceAlpha" radius="0" operator="dilate"/>
<feOffset dy="2"/>
<feGaussianBlur stdDeviation="0 1" result="drop"/>
<feFlood flood-color="black" flood-opacity="1"/>
<feComposite in2="drop" operator="in" result="drop"/>
<feMerge>
<feMergeNode in="drop"/>
<feMergeNode in="SourceGraphic"/>
<feMergeNode in="hl"/>
</feMerge>
</filter>
<use id="1" style="fill:url(#acyl_gradient);filter:url(#filter1111)" xlink:href="#path-main" />
</acyl-settings>
  <path
     style="fill:none"
     d="M 7.0614,2.0000004 15.10907,9.95416 10.17188,15.08645 2,7.0071204 2,40.08535 8.0550496,46 41.12491,46 33.38776,38.23362 38.44916,33.10133 46,40.67995 46,8.19631 39.66549,2.0000004 z m -3.62771,8.0686096 6.2103096,5.91465 0.0878,8.61134 8.6944204,0 5.34086,5.35135 0,8.4808 8.32181,0 6.24135,6.25889 -21.67396,0 c -0.004,-4.30922 0.0663,-9.38989 0.0311,-13.92603 -3.97318,-0.0376 -8.8047504,-0.0447 -13.16589,-0.0313 z m 12.26003,0.85032 0,7.57325 7.76288,0 -4.84404,4.85064 -7.66972,0 -0.0311,-7.51067 z m 8.72548,8.07396 4.88041,4.88731 -5.00462,5.10637 -4.91146,-4.88732 z m 5.34086,5.85206 0,7.57327 7.76288,0 -4.84404,4.88193 -7.66972,0 -0.0311,-7.51067 z"
     id="path-main"/>
</svg>
