<svg
   xmlns="http://www.w3.org/2000/svg"
   width="48"
   height="48">
<acyl-settings>
<linearGradient
     id="linearGradient4321">
    <stop
       style="stop-color:#0D6DC1;stop-opacity:1.0;"
       offset="0.0"
       id="stop1" />
    <stop
       style="stop-color:#080808;stop-opacity:1.0;"
       offset="1.0"
       id="stop2" />
  </linearGradient>
<linearGradient
     inkscape:collect="always"
     xlink:href="#linearGradient4321"
     id="acyl_gradient"
     x1="79.0%"
     y1="0.0%"
     x2="500.0%"
     y2="101.0%" />
<filter id="filter1111" x="-50%" y="-50%" width="200%" height="200%">
<feGaussianBlur in="SourceAlpha" stdDeviation="1" result="blur"/>
<feOffset in="blur" dy="1"/>
<feComposite in2="SourceAlpha" operator="arithmetic"
k2="-1" k3="1" result="hl"/>
<feFlood flood-color="white" flood-opacity="0.2"/>
<feComposite in2="hl" operator="in" result="hl"/>
<feMorphology in="SourceAlpha" radius="0" operator="dilate"/>
<feOffset dy="2"/>
<feGaussianBlur stdDeviation="0 1" result="drop"/>
<feFlood flood-color="black" flood-opacity="1"/>
<feComposite in2="drop" operator="in" result="drop"/>
<feMerge>
<feMergeNode in="drop"/>
<feMergeNode in="SourceGraphic"/>
<feMergeNode in="hl"/>
</feMerge>
</filter>
<use id="1" style="fill:url(#acyl_gradient);filter:url(#filter1111)" xlink:href="#path-main" />
</acyl-settings>
  <path
     d="M 11.226723,2.0030443 A 6.4258434,6.4258434 0 0 0 6.3007364,12.564469 l 9.3700846,11.47166 -9.3700846,11.471664 a 6.4265429,6.4265429 0 1 0 9.9590616,8.125198 l 7.696855,-9.437015 7.710241,9.437015 a 6.4265429,6.4265429 0 1 0 9.959062,-8.125198 L 32.255871,24.036129 41.625956,12.564469 A 6.4258434,6.4258434 0 0 0 36.512567,2.0030443 6.4258434,6.4258434 0 0 0 31.666894,4.4258802 L 23.956653,13.862894 16.259798,4.4258802 A 6.4258434,6.4258434 0 0 0 11.226723,2.0030443 z"
     id="path-main"
     style="fill:none" />
</svg>
