<svg
   xmlns="http://www.w3.org/2000/svg"
   width="48"
   height="48">
<acyl-settings>
<linearGradient
     id="linearGradient4321">
    <stop
       style="stop-color:#0D6DC1;stop-opacity:1.0;"
       offset="0.0"
       id="stop1" />
    <stop
       style="stop-color:#080808;stop-opacity:1.0;"
       offset="1.0"
       id="stop2" />
  </linearGradient>
<linearGradient
     inkscape:collect="always"
     xlink:href="#linearGradient4321"
     id="acyl_gradient"
     x1="79.0%"
     y1="0.0%"
     x2="500.0%"
     y2="101.0%" />
<filter id="filter1111" x="-50%" y="-50%" width="200%" height="200%">
<feGaussianBlur in="SourceAlpha" stdDeviation="1" result="blur"/>
<feOffset in="blur" dy="1"/>
<feComposite in2="SourceAlpha" operator="arithmetic"
k2="-1" k3="1" result="hl"/>
<feFlood flood-color="white" flood-opacity="0.2"/>
<feComposite in2="hl" operator="in" result="hl"/>
<feMorphology in="SourceAlpha" radius="0" operator="dilate"/>
<feOffset dy="2"/>
<feGaussianBlur stdDeviation="0 1" result="drop"/>
<feFlood flood-color="black" flood-opacity="1"/>
<feComposite in2="drop" operator="in" result="drop"/>
<feMerge>
<feMergeNode in="drop"/>
<feMergeNode in="SourceGraphic"/>
<feMergeNode in="hl"/>
</feMerge>
</filter>
<use id="1" style="fill:url(#acyl_gradient);filter:url(#filter1111)" xlink:href="#path-main" />
</acyl-settings>
  <path
     d="M 36.923066,2.000007 C 36.607127,1.99924 36.237992,2.123481 35.879993,2.420896 L 21.93576,14.004491 c -0.621747,0.516531 -0.89466,0.603884 -1.756754,0.603884 l -8.966764,0 c -1.229878,0 -2.214242,0.984357 -2.214242,2.214242 l 0,14.346823 c 0,1.22989 0.984364,2.21424 2.214242,2.21424 l 8.966764,0 c 0.862094,0 1.135007,0.0874 1.756754,0.60389 l 13.944233,11.58359 c 0.954662,0.7931 1.976348,0.41071 1.976348,-0.53069 l 0,-42.088888 c 0,-0.588374 -0.406711,-0.950347 -0.933275,-0.951575 z"
     id="path-main"
     style="fill:none" />
</svg>
