<?xml version="1.0" encoding="UTF-8" standalone="no"?>
<!-- Created with Inkscape (http://www.inkscape.org/) -->
<svg
   xmlns:svg="http://www.w3.org/2000/svg"
   xmlns="http://www.w3.org/2000/svg"
   xmlns:xlink="http://www.w3.org/1999/xlink"
   version="1.0"
   width="48"
   height="48"
   id="svg11300">
        
  
  
  
  
  
<acyl-settings>
<linearGradient
     id="linearGradient4321">
    <stop
       style="stop-color:#0D6DC1;stop-opacity:1.0;"
       offset="0.0"
       id="stop1" />
    <stop
       style="stop-color:#080808;stop-opacity:1.0;"
       offset="1.0"
       id="stop2" />
  </linearGradient>
<linearGradient
     inkscape:collect="always"
     xlink:href="#linearGradient4321"
     id="acyl_gradient"
     x1="79.0%"
     y1="0.0%"
     x2="500.0%"
     y2="101.0%" />
<filter id="filter1111" x="-50%" y="-50%" width="200%" height="200%">
<feGaussianBlur in="SourceAlpha" stdDeviation="1" result="blur"/>
<feOffset in="blur" dy="1"/>
<feComposite in2="SourceAlpha" operator="arithmetic"
k2="-1" k3="1" result="hl"/>
<feFlood flood-color="white" flood-opacity="0.2"/>
<feComposite in2="hl" operator="in" result="hl"/>
<feMorphology in="SourceAlpha" radius="0" operator="dilate"/>
<feOffset dy="2"/>
<feGaussianBlur stdDeviation="0 1" result="drop"/>
<feFlood flood-color="black" flood-opacity="1"/>
<feComposite in2="drop" operator="in" result="drop"/>
<feMerge>
<feMergeNode in="drop"/>
<feMergeNode in="SourceGraphic"/>
<feMergeNode in="hl"/>
</feMerge>
</filter>
<use id="1" style="fill:url(#acyl_gradient);filter:url(#filter1111)" xlink:href="#path-main" />
</acyl-settings>
<defs
     id="defs3" />
  <g
     id="layer1">
    <path
       d="M 30.6875,6.375 L 5.28125,6.625 L 21.15625,19.96875 L 44.25,19.96875 L 30.6875,6.375 z M 20.9375,20.46875 L 5.5625,34.3125 L 30.25,34.3125 L 43.96875,20.46875 L 20.9375,20.46875 z M 21.53125,20.9375 C 21.572753,20.932272 21.614747,20.932272 21.65625,20.9375 L 41.34375,20.9375 C 41.539973,20.945005 41.707161,21.068147 41.78125,21.25 C 41.855339,21.431854 41.822613,21.638756 41.6875,21.78125 L 29.71875,33.5625 C 29.62899,33.657506 29.5056,33.713592 29.375,33.71875 L 8.90625,33.71875 C 8.6959335,33.724259 8.5144292,33.602071 8.4375,33.40625 C 8.3605709,33.21043 8.4046732,32.982869 8.5625,32.84375 L 21.34375,21.0625 C 21.395925,21.00711 21.460053,20.964358 21.53125,20.9375 z M 44.6875,21.15625 L 30.9375,35.03125 L 30.9375,42.625 L 44.6875,27.15625 L 44.6875,21.15625 z M 21.84375,21.9375 L 10.1875,32.71875 L 29.125,32.71875 L 40.09375,21.9375 L 21.84375,21.9375 z M 4.75,35.3125 L 4.75,43.46875 L 29.9375,43.46875 L 29.9375,35.3125 L 4.75,35.3125 z"
       id="path-main"
       style="fill:none" />
  </g>
</svg>
