<?xml version="1.0" encoding="UTF-8" standalone="no"?>
<!-- Created with Inkscape (http://www.inkscape.org/) -->

<svg
   xmlns:dc="http://purl.org/dc/elements/1.1/"
   xmlns:cc="http://creativecommons.org/ns#"
   xmlns:rdf="http://www.w3.org/1999/02/22-rdf-syntax-ns#"
   xmlns:svg="http://www.w3.org/2000/svg"
   xmlns="http://www.w3.org/2000/svg"
   xmlns:xlink="http://www.w3.org/1999/xlink"
   xmlns:sodipodi="http://sodipodi.sourceforge.net/DTD/sodipodi-0.dtd"
   xmlns:inkscape="http://www.inkscape.org/namespaces/inkscape"
   version="1.0"
   width="48"
   height="48"
   id="svg2186"
   inkscape:version="0.47 r22583"
   sodipodi:docname="Close.svg">
<acyl-settings>
<linearGradient
     id="linearGradient4321">
    <stop
       style="stop-color:#0D6DC1;stop-opacity:1.0;"
       offset="0.0"
       id="stop1" />
    <stop
       style="stop-color:#080808;stop-opacity:1.0;"
       offset="1.0"
       id="stop2" />
  </linearGradient>
<linearGradient
     inkscape:collect="always"
     xlink:href="#linearGradient4321"
     id="acyl_gradient"
     x1="79.0%"
     y1="0.0%"
     x2="500.0%"
     y2="101.0%" />
<filter id="filter1111" x="-50%" y="-50%" width="200%" height="200%">
<feGaussianBlur in="SourceAlpha" stdDeviation="1" result="blur"/>
<feOffset in="blur" dy="1"/>
<feComposite in2="SourceAlpha" operator="arithmetic"
k2="-1" k3="1" result="hl"/>
<feFlood flood-color="white" flood-opacity="0.2"/>
<feComposite in2="hl" operator="in" result="hl"/>
<feMorphology in="SourceAlpha" radius="0" operator="dilate"/>
<feOffset dy="2"/>
<feGaussianBlur stdDeviation="0 1" result="drop"/>
<feFlood flood-color="black" flood-opacity="1"/>
<feComposite in2="drop" operator="in" result="drop"/>
<feMerge>
<feMergeNode in="drop"/>
<feMergeNode in="SourceGraphic"/>
<feMergeNode in="hl"/>
</feMerge>
</filter>
<use id="1" style="fill:url(#acyl_gradient);filter:url(#filter1111)" xlink:href="#path-main" />
</acyl-settings>
  <path
     d="m 8.1591853,2.0017242 c -2.495566,-0.01908 -4.766155,1.484246 -5.710582,3.795312 -0.944425,2.311065 -0.363605,4.9596738 1.421722,6.6892378 L 15.38627,23.990814 3.8703253,35.495355 c -2.386565,2.389115 -2.386565,6.292661 0,8.681776 2.386563,2.389116 6.2622427,2.389114 8.6488057,0 l 11.515945,-11.50454 11.492249,11.50454 c 1.535925,1.581461 3.775279,2.180684 5.900144,1.613008 2.128468,-0.56863 3.835864,-2.238446 4.383642,-4.38833 0.545439,-2.140691 -0.110653,-4.387614 -1.706066,-5.906454 L 32.612796,23.990814 44.105045,12.486274 c 1.802414,-1.744874 2.393614,-4.4338298 1.421721,-6.7603998 -0.971891,-2.326568 -3.302275,-3.783096 -5.805363,-3.72415 -1.592601,0.06296 -3.099512,0.737876 -4.194078,1.897656 L 24.035076,15.40392 12.519131,3.8756602 C 11.37844,2.6695062 9.8183153,2.0141882 8.1591853,2.0017242 z"
     id="path-main"
     style="fill:none" />
</svg>
