<?xml version="1.0" encoding="UTF-8" standalone="no"?>
<!-- Created with Inkscape (http://www.inkscape.org/) -->

<svg
   xmlns:dc="http://purl.org/dc/elements/1.1/"
   xmlns:cc="http://creativecommons.org/ns#"
   xmlns:rdf="http://www.w3.org/1999/02/22-rdf-syntax-ns#"
   xmlns:svg="http://www.w3.org/2000/svg"
   xmlns="http://www.w3.org/2000/svg"
   xmlns:xlink="http://www.w3.org/1999/xlink"
   xmlns:sodipodi="http://sodipodi.sourceforge.net/DTD/sodipodi-0.dtd"
   xmlns:inkscape="http://www.inkscape.org/namespaces/inkscape"
   version="1.0"
   width="48"
   height="48"
   id="svg3304"
   inkscape:version="0.47pre4 r22446"
   sodipodi:docname="contact-new.svg">
<acyl-settings>
<linearGradient
     id="linearGradient4321">
    <stop
       style="stop-color:#0D6DC1;stop-opacity:1.0;"
       offset="0.0"
       id="stop1" />
    <stop
       style="stop-color:#080808;stop-opacity:1.0;"
       offset="1.0"
       id="stop2" />
  </linearGradient>
<linearGradient
     inkscape:collect="always"
     xlink:href="#linearGradient4321"
     id="acyl_gradient"
     x1="79.0%"
     y1="0.0%"
     x2="500.0%"
     y2="101.0%" />
<filter id="filter1111" x="-50%" y="-50%" width="200%" height="200%">
<feGaussianBlur in="SourceAlpha" stdDeviation="1" result="blur"/>
<feOffset in="blur" dy="1"/>
<feComposite in2="SourceAlpha" operator="arithmetic"
k2="-1" k3="1" result="hl"/>
<feFlood flood-color="white" flood-opacity="0.2"/>
<feComposite in2="hl" operator="in" result="hl"/>
<feMorphology in="SourceAlpha" radius="0" operator="dilate"/>
<feOffset dy="2"/>
<feGaussianBlur stdDeviation="0 1" result="drop"/>
<feFlood flood-color="black" flood-opacity="1"/>
<feComposite in2="drop" operator="in" result="drop"/>
<feMerge>
<feMergeNode in="drop"/>
<feMergeNode in="SourceGraphic"/>
<feMergeNode in="hl"/>
</feMerge>
</filter>
<use id="1" style="fill:url(#acyl_gradient);filter:url(#filter1111)" xlink:href="#path-main" />
</acyl-settings>
<defs
     id="defs3306">
  </defs>
  <path
     style="fill:none"
     id="path-main"
     d="M 24,2 C 15.904,2 9.3333331,8.16 9.3333333,15.75 c 0,4.007282 1.8345817,7.598047 4.7552087,10.111979 0.02869,0.02875 0.057,0.05744 0.08594,0.08594 0.161487,0.136649 0.319106,0.271141 0.486979,0.401041 0.224973,0.202186 0.420892,0.413978 0.658855,0.601563 l -4.984375,0 C 5.7060809,26.95052 2,31.219097 2,36.489583 L 2,46 l 44,0 0,-9.510417 c -2e-6,-5.270485 -3.70608,-9.539062 -8.335938,-9.539062 l -4.984375,0 c 0.237963,-0.187585 0.433882,-0.399377 0.658855,-0.601563 0.167873,-0.1299 0.325492,-0.264392 0.486979,-0.401041 0.02894,-0.0285 0.05725,-0.05719 0.08594,-0.08594 C 36.832086,23.348047 38.666666,19.757282 38.666667,15.75 38.666667,8.16 32.096001,2 24,2 z m -1.632813,2.75 3.23698,0.028646 0,8.736979 8.479166,0 0,3.322917 -8.450521,0.02865 0,8.04948 -3.236979,-0.02865 0,-8.020834 -8.479166,0 0,-3.351562 8.45052,0 0,-8.7656248 z" />
</svg>
