<?xml version="1.0" encoding="UTF-8" standalone="no"?>
<!-- Created with Inkscape (http://www.inkscape.org/) -->

<svg
   xmlns:dc="http://purl.org/dc/elements/1.1/"
   xmlns:cc="http://creativecommons.org/ns#"
   xmlns:rdf="http://www.w3.org/1999/02/22-rdf-syntax-ns#"
   xmlns:svg="http://www.w3.org/2000/svg"
   xmlns="http://www.w3.org/2000/svg"
   xmlns:xlink="http://www.w3.org/1999/xlink"
   xmlns:sodipodi="http://sodipodi.sourceforge.net/DTD/sodipodi-0.dtd"
   xmlns:inkscape="http://www.inkscape.org/namespaces/inkscape"
   version="1.0"
   width="48"
   height="48"
   id="svg2169"
   inkscape:version="0.47 r22583"
   sodipodi:docname="go-first.svg">
<acyl-settings>
<linearGradient
     id="linearGradient4321">
    <stop
       style="stop-color:#0D6DC1;stop-opacity:1.0;"
       offset="0.0"
       id="stop1" />
    <stop
       style="stop-color:#080808;stop-opacity:1.0;"
       offset="1.0"
       id="stop2" />
  </linearGradient>
<linearGradient
     inkscape:collect="always"
     xlink:href="#linearGradient4321"
     id="acyl_gradient"
     x1="79.0%"
     y1="0.0%"
     x2="500.0%"
     y2="101.0%" />
<filter id="filter1111" x="-50%" y="-50%" width="200%" height="200%">
<feGaussianBlur in="SourceAlpha" stdDeviation="1" result="blur"/>
<feOffset in="blur" dy="1"/>
<feComposite in2="SourceAlpha" operator="arithmetic"
k2="-1" k3="1" result="hl"/>
<feFlood flood-color="white" flood-opacity="0.2"/>
<feComposite in2="hl" operator="in" result="hl"/>
<feMorphology in="SourceAlpha" radius="0" operator="dilate"/>
<feOffset dy="2"/>
<feGaussianBlur stdDeviation="0 1" result="drop"/>
<feFlood flood-color="black" flood-opacity="1"/>
<feComposite in2="drop" operator="in" result="drop"/>
<feMerge>
<feMergeNode in="drop"/>
<feMergeNode in="SourceGraphic"/>
<feMergeNode in="hl"/>
</feMerge>
</filter>
<use id="1" style="fill:url(#acyl_gradient);filter:url(#filter1111)" xlink:href="#path-main" />
</acyl-settings>
  <path
     style="fill:none"
     d="m 46,11.355483 c 0,1.581939 -1.323807,2.855485 -2.98913,2.855485 l -38.0217399,0 c -1.665323,0 -2.98913,-1.273546 -2.98913,-2.855485 0,-1.5819375 1.323807,-2.8554836 2.98913,-2.8554836 l 38.0217399,0 c 1.665323,0 2.98913,1.273546 2.98913,2.8554836 z m -0.777174,25.282928 c 0,0.729913 -0.274895,1.46333 -0.836956,2.022634 -1.124124,1.118607 -2.941094,1.118607 -4.065218,0 L 24.179348,22.59895 8.0380441,38.661045 c -1.124124,1.118607 -2.941094,1.118607 -4.065218,0 -1.124123,-1.118607 -1.124123,-2.926661 0,-4.045269 L 21.788044,16.887983 c 0.646916,-0.643741 1.551533,-0.870559 2.391304,-0.77336 0.850885,-0.109512 1.735006,0.120271 2.391304,0.77336 L 44.38587,34.615776 c 0.562061,0.559304 0.836956,1.292721 0.836956,2.022635 z"
     id="path-main" />
</svg>
