<?xml version="1.0" encoding="UTF-8" standalone="no"?>
<!-- Created with Inkscape (http://www.inkscape.org/) -->

<svg
   xmlns:dc="http://purl.org/dc/elements/1.1/"
   xmlns:cc="http://creativecommons.org/ns#"
   xmlns:rdf="http://www.w3.org/1999/02/22-rdf-syntax-ns#"
   xmlns:svg="http://www.w3.org/2000/svg"
   xmlns="http://www.w3.org/2000/svg"
   xmlns:xlink="http://www.w3.org/1999/xlink"
   xmlns:sodipodi="http://sodipodi.sourceforge.net/DTD/sodipodi-0.dtd"
   xmlns:inkscape="http://www.inkscape.org/namespaces/inkscape"
   version="1.0"
   width="48"
   height="48"
   id="svg1307"
   inkscape:version="0.47pre4 r22446"
   sodipodi:docname="gtk-fullscreen.svg">
<acyl-settings>
<linearGradient
     id="linearGradient4321">
    <stop
       style="stop-color:#0D6DC1;stop-opacity:1.0;"
       offset="0.0"
       id="stop1" />
    <stop
       style="stop-color:#080808;stop-opacity:1.0;"
       offset="1.0"
       id="stop2" />
  </linearGradient>
<linearGradient
     inkscape:collect="always"
     xlink:href="#linearGradient4321"
     id="acyl_gradient"
     x1="79.0%"
     y1="0.0%"
     x2="500.0%"
     y2="101.0%" />
<filter id="filter1111" x="-50%" y="-50%" width="200%" height="200%">
<feGaussianBlur in="SourceAlpha" stdDeviation="1" result="blur"/>
<feOffset in="blur" dy="1"/>
<feComposite in2="SourceAlpha" operator="arithmetic"
k2="-1" k3="1" result="hl"/>
<feFlood flood-color="white" flood-opacity="0.2"/>
<feComposite in2="hl" operator="in" result="hl"/>
<feMorphology in="SourceAlpha" radius="0" operator="dilate"/>
<feOffset dy="2"/>
<feGaussianBlur stdDeviation="0 1" result="drop"/>
<feFlood flood-color="black" flood-opacity="1"/>
<feComposite in2="drop" operator="in" result="drop"/>
<feMerge>
<feMergeNode in="drop"/>
<feMergeNode in="SourceGraphic"/>
<feMergeNode in="hl"/>
</feMerge>
</filter>
<use id="1" style="fill:url(#acyl_gradient);filter:url(#filter1111)" xlink:href="#path-main" />
</acyl-settings>
<defs
     id="defs1309">
  </defs>
  <path
     style="fill:none"
     id="path-main"
     d="M 7.0989583,2 C 4.2759543,2 2,4.2759543 2,7.0989583 L 2,40.901042 C 2,43.724046 4.2759543,46 7.0989583,46 L 40.901042,46 C 43.724046,46 46,43.724045 46,40.901042 L 46,7.0989583 C 46,4.2759543 43.724045,2 40.901042,2 L 7.0989583,2 z m 1.6041667,3.6666667 30.59375,0 c 1.674795,0 3.036458,1.3616653 3.036458,3.0364583 l 0,30.59375 c 0,1.674795 -1.361665,3.036458 -3.036458,3.036458 l -30.59375,0 c -1.6747927,0 -3.0364583,-1.361665 -3.0364583,-3.036458 l 0,-30.59375 c 0,-1.6747927 1.3616653,-3.0364583 3.0364583,-3.0364583 z m 0.6302083,3.6666663 0,29.333334 29.3333337,0 0,-29.333334 -29.3333337,0 z M 19.559896,13 35,13 l 0,15.411458 -5.5,-5.5 L 28.382812,24 23.971354,28.411458 22.882812,29.5 l 5.5,5.5 -15.411458,0 0,-15.411458 5.5,5.5 L 19.559896,24 23.971354,19.588542 25.088542,18.5 19.559896,13 z" />
</svg>
