<svg
   xmlns="http://www.w3.org/2000/svg"
   width="48"
   height="48">
   <acyl-settings>
<linearGradient
     id="linearGradient4321">
    <stop
       style="stop-color:#0D6DC1;stop-opacity:1.0;"
       offset="0.0"
       id="stop1" />
    <stop
       style="stop-color:#080808;stop-opacity:1.0;"
       offset="1.0"
       id="stop2" />
  </linearGradient>
<linearGradient
     inkscape:collect="always"
     xlink:href="#linearGradient4321"
     id="acyl_gradient"
     x1="79.0%"
     y1="0.0%"
     x2="500.0%"
     y2="101.0%" />
<filter id="filter1111" x="-50%" y="-50%" width="200%" height="200%">
<feGaussianBlur in="SourceAlpha" stdDeviation="1" result="blur"/>
<feOffset in="blur" dy="1"/>
<feComposite in2="SourceAlpha" operator="arithmetic"
k2="-1" k3="1" result="hl"/>
<feFlood flood-color="white" flood-opacity="0.2"/>
<feComposite in2="hl" operator="in" result="hl"/>
<feMorphology in="SourceAlpha" radius="0" operator="dilate"/>
<feOffset dy="2"/>
<feGaussianBlur stdDeviation="0 1" result="drop"/>
<feFlood flood-color="black" flood-opacity="1"/>
<feComposite in2="drop" operator="in" result="drop"/>
<feMerge>
<feMergeNode in="drop"/>
<feMergeNode in="SourceGraphic"/>
<feMergeNode in="hl"/>
</feMerge>
</filter>
<use id="1" style="fill:url(#acyl_gradient);filter:url(#filter1111)" xlink:href="#path-main" />
</acyl-settings>
    <path
       d="M 3.40665,13 C 3.16761,13.04561 2.99611,13.25668 3.0004,13.5 L 3.0004,34.5 C 2.99882,34.67942 3.09348,34.84594 3.24847,34.93634 C 3.40346,35.02675 3.595,35.02719 3.7504,34.9375 L 21.0004,24.59375 L 21.0004,34.5 C 20.99882,34.67942 21.09348,34.84594 21.24847,34.93634 C 21.40346,35.02675 21.595,35.02719 21.7504,34.9375 L 39.0004,24.59375 L 39.0004,34.5 C 39.00043,34.77613 39.22427,34.99997 39.5004,35 L 44.5004,35 C 44.77653,34.99997 45.00037,34.77613 45.0004,34.5 L 45.0004,13.5 C 45.00037,13.22387 44.77653,13.00003 44.5004,13 L 39.5004,13 C 39.22427,13.00003 39.00043,13.22387 39.0004,13.5 L 39.0004,23.40625 L 21.7504,13.0625 C 21.595,12.97281 21.40346,12.97325 21.24847,13.06366 C 21.09348,13.15406 20.99882,13.32058 21.0004,13.5 L 21.0004,23.40625 L 3.7504,13.0625 C 3.64706,13.00101 3.52502,12.97882 3.40665,13 z"
       id="path-main"
       style="fill:none" />
</svg>
