<?xml version="1.0" encoding="UTF-8" standalone="no"?>
<!-- Created with Inkscape (http://www.inkscape.org/) -->

<svg
   xmlns:dc="http://purl.org/dc/elements/1.1/"
   xmlns:cc="http://creativecommons.org/ns#"
   xmlns:rdf="http://www.w3.org/1999/02/22-rdf-syntax-ns#"
   xmlns:svg="http://www.w3.org/2000/svg"
   xmlns="http://www.w3.org/2000/svg"
   xmlns:xlink="http://www.w3.org/1999/xlink"
   xmlns:sodipodi="http://sodipodi.sourceforge.net/DTD/sodipodi-0.dtd"
   xmlns:inkscape="http://www.inkscape.org/namespaces/inkscape"
   version="1.0"
   width="48"
   height="48"
   id="svg1307"
   inkscape:version="0.47 r22583"
   sodipodi:docname="gtk-media-forward-rtl.svg">
<acyl-settings>
<linearGradient
     id="linearGradient4321">
    <stop
       style="stop-color:#0D6DC1;stop-opacity:1.0;"
       offset="0.0"
       id="stop1" />
    <stop
       style="stop-color:#080808;stop-opacity:1.0;"
       offset="1.0"
       id="stop2" />
  </linearGradient>
<linearGradient
     inkscape:collect="always"
     xlink:href="#linearGradient4321"
     id="acyl_gradient"
     x1="79.0%"
     y1="0.0%"
     x2="500.0%"
     y2="101.0%" />
<filter id="filter1111" x="-50%" y="-50%" width="200%" height="200%">
<feGaussianBlur in="SourceAlpha" stdDeviation="1" result="blur"/>
<feOffset in="blur" dy="1"/>
<feComposite in2="SourceAlpha" operator="arithmetic"
k2="-1" k3="1" result="hl"/>
<feFlood flood-color="white" flood-opacity="0.2"/>
<feComposite in2="hl" operator="in" result="hl"/>
<feMorphology in="SourceAlpha" radius="0" operator="dilate"/>
<feOffset dy="2"/>
<feGaussianBlur stdDeviation="0 1" result="drop"/>
<feFlood flood-color="black" flood-opacity="1"/>
<feComposite in2="drop" operator="in" result="drop"/>
<feMerge>
<feMergeNode in="drop"/>
<feMergeNode in="SourceGraphic"/>
<feMergeNode in="hl"/>
</feMerge>
</filter>
<use id="1" style="fill:url(#acyl_gradient);filter:url(#filter1111)" xlink:href="#path-main" />
</acyl-settings>
  <path
     style="fill:none"
     id="path-main"
     d="m 42.09363,13 c 0.23904,0.0456 0.41054,0.25668 0.40625,0.5 l 0,21 c 0.002,0.17942 -0.0931,0.34594 -0.24807,0.43634 -0.15499,0.0904 -0.34653,0.0908 -0.50193,10e-4 l -17.25,-10.34359 0,9.90625 c 0.002,0.17942 -0.0931,0.34594 -0.24807,0.43634 -0.15499,0.0904 -0.34653,0.0908 -0.50193,10e-4 l -17.5,-10.5 C 6.09075,24.34924 5.992,24.18172 5.992,23.99984 c 0,-0.18188 0.0987,-0.34942 0.25788,-0.4375 l 17.5,-10.5 c 0.1554,-0.0897 0.34694,-0.0892 0.50193,10e-4 0.15499,0.0904 0.24965,0.25692 0.24807,0.43634 l 0,9.90625 17.25,-10.34375 c 0.10334,-0.0615 0.22538,-0.0837 0.34375,-0.0625 z" />
</svg>
