<?xml version="1.0" encoding="UTF-8" standalone="no"?>
<!-- Created with Inkscape (http://www.inkscape.org/) -->

<svg
   xmlns:dc="http://purl.org/dc/elements/1.1/"
   xmlns:cc="http://creativecommons.org/ns#"
   xmlns:rdf="http://www.w3.org/1999/02/22-rdf-syntax-ns#"
   xmlns:svg="http://www.w3.org/2000/svg"
   xmlns="http://www.w3.org/2000/svg"
   xmlns:xlink="http://www.w3.org/1999/xlink"
   xmlns:sodipodi="http://sodipodi.sourceforge.net/DTD/sodipodi-0.dtd"
   xmlns:inkscape="http://www.inkscape.org/namespaces/inkscape"
   version="1.0"
   width="48"
   height="48"
   id="svg249"
   inkscape:version="0.47pre4 r22446"
   sodipodi:docname="gtk-zoom-out.svg">
<acyl-settings>
<linearGradient
     id="linearGradient4321">
    <stop
       style="stop-color:#0D6DC1;stop-opacity:1.0;"
       offset="0.0"
       id="stop1" />
    <stop
       style="stop-color:#080808;stop-opacity:1.0;"
       offset="1.0"
       id="stop2" />
  </linearGradient>
<linearGradient
     inkscape:collect="always"
     xlink:href="#linearGradient4321"
     id="acyl_gradient"
     x1="79.0%"
     y1="0.0%"
     x2="500.0%"
     y2="101.0%" />
<filter id="filter1111" x="-50%" y="-50%" width="200%" height="200%">
<feGaussianBlur in="SourceAlpha" stdDeviation="1" result="blur"/>
<feOffset in="blur" dy="1"/>
<feComposite in2="SourceAlpha" operator="arithmetic"
k2="-1" k3="1" result="hl"/>
<feFlood flood-color="white" flood-opacity="0.2"/>
<feComposite in2="hl" operator="in" result="hl"/>
<feMorphology in="SourceAlpha" radius="0" operator="dilate"/>
<feOffset dy="2"/>
<feGaussianBlur stdDeviation="0 1" result="drop"/>
<feFlood flood-color="black" flood-opacity="1"/>
<feComposite in2="drop" operator="in" result="drop"/>
<feMerge>
<feMergeNode in="drop"/>
<feMergeNode in="SourceGraphic"/>
<feMergeNode in="hl"/>
</feMerge>
</filter>
<use id="1" style="fill:url(#acyl_gradient);filter:url(#filter1111)" xlink:href="#path-main" />
</acyl-settings>
<defs
     id="defs3">
  </defs>
  <path
     style="fill:none"
     id="path-main"
     d="M 19.612083,2.0000002 C 9.8999556,2.0000002 2,9.8809835 2,19.569784 c 0,9.688802 7.8999562,17.540403 17.612083,17.540403 4.323892,0 8.277047,-1.56094 11.338883,-4.142709 l 1.295872,4.142709 7.686879,8.226654 c 0.530553,0.567084 3.003947,1.381023 4.947876,-0.558237 1.649476,-1.645517 1.146062,-4.389925 0.559581,-4.935993 l -8.24646,-7.668417 -4.152682,-1.29276 c 2.587984,-3.054482 4.152682,-6.998143 4.152682,-11.31165 0,-9.6888015 -7.870504,-17.5697838 -17.582631,-17.5697838 z m 0,4.4071365 c 7.284095,2e-7 13.194336,5.8960453 13.194336,13.1626473 1e-6,7.266601 -5.910241,13.162647 -13.194336,13.162647 -7.284095,1e-6 -13.1943365,-5.896046 -13.1943365,-13.162647 2e-7,-7.266601 5.9102405,-13.1626473 13.1943365,-13.1626473 z m -9.8957524,10.3420793 0,5.641135 19.7915044,0 0,-5.641135 -19.7915044,0 z" />
</svg>
