<?xml version="1.0" encoding="UTF-8" standalone="no"?>
<!-- Created with Inkscape (http://www.inkscape.org/) -->
<svg
   xmlns:svg="http://www.w3.org/2000/svg"
   xmlns="http://www.w3.org/2000/svg"
   xmlns:xlink="http://www.w3.org/1999/xlink"
   version="1.0"
   width="48"
   height="48"
   id="svg2562">
        
  
  
  
  
  
  
<acyl-settings>
<linearGradient
     id="linearGradient4321">
    <stop
       style="stop-color:#0D6DC1;stop-opacity:1.0;"
       offset="0.0"
       id="stop1" />
    <stop
       style="stop-color:#080808;stop-opacity:1.0;"
       offset="1.0"
       id="stop2" />
  </linearGradient>
<linearGradient
     inkscape:collect="always"
     xlink:href="#linearGradient4321"
     id="acyl_gradient"
     x1="79.0%"
     y1="0.0%"
     x2="500.0%"
     y2="101.0%" />
<filter id="filter1111" x="-50%" y="-50%" width="200%" height="200%">
<feGaussianBlur in="SourceAlpha" stdDeviation="1" result="blur"/>
<feOffset in="blur" dy="1"/>
<feComposite in2="SourceAlpha" operator="arithmetic"
k2="-1" k3="1" result="hl"/>
<feFlood flood-color="white" flood-opacity="0.2"/>
<feComposite in2="hl" operator="in" result="hl"/>
<feMorphology in="SourceAlpha" radius="0" operator="dilate"/>
<feOffset dy="2"/>
<feGaussianBlur stdDeviation="0 1" result="drop"/>
<feFlood flood-color="black" flood-opacity="1"/>
<feComposite in2="drop" operator="in" result="drop"/>
<feMerge>
<feMergeNode in="drop"/>
<feMergeNode in="SourceGraphic"/>
<feMergeNode in="hl"/>
</feMerge>
</filter>
<use id="1" style="fill:url(#acyl_gradient);filter:url(#filter1111)" xlink:href="#path-main" />
</acyl-settings>
<defs
     id="defs2564" />
  <g
     id="layer1">
    <path
       d="M 35.8125,2.75 L 27.5,10.65625 L 7.90625,10.65625 L 6.90625,10.65625 L 6.90625,11.65625 L 6.90625,44.1875 L 6.90625,45.1875 L 7.90625,45.1875 L 40.09375,45.1875 L 41.09375,45.1875 L 41.09375,44.1875 L 41.09375,11.65625 L 41.09375,10.65625 L 40.09375,10.65625 L 36.9375,10.65625 L 40.375,7.3125 L 35.8125,2.75 z M 8.90625,12.65625 L 25.375,12.65625 L 20.21875,17.5625 L 19.71875,19.84375 L 18.75,19.84375 L 18.75,21.34375 L 19.40625,21.34375 L 18.96875,23.4375 L 24.9375,22.3125 L 25.9375,21.34375 L 34.0625,21.34375 L 34.0625,19.84375 L 27.46875,19.84375 L 34.875,12.65625 L 39.09375,12.65625 L 39.09375,43.1875 L 8.90625,43.1875 L 8.90625,12.65625 z M 14.125,25.46875 L 14.125,26.96875 L 33.875,26.96875 L 33.875,25.46875 L 14.125,25.46875 z M 14.125,31.09375 L 14.125,32.59375 L 33.875,32.59375 L 33.875,31.09375 L 14.125,31.09375 z M 14.125,36.71875 L 14.125,38.21875 L 33.875,38.21875 L 33.875,36.71875 L 14.125,36.71875 z"
       id="path-main"
       style="fill:none" />
  </g>
</svg>
