<svg
   xmlns="http://www.w3.org/2000/svg"
   width="48"
   height="48">
   <acyl-settings>
<linearGradient
     id="linearGradient4321">
    <stop
       style="stop-color:#0D6DC1;stop-opacity:1.0;"
       offset="0.0"
       id="stop1" />
    <stop
       style="stop-color:#080808;stop-opacity:1.0;"
       offset="1.0"
       id="stop2" />
  </linearGradient>
<linearGradient
     inkscape:collect="always"
     xlink:href="#linearGradient4321"
     id="acyl_gradient"
     x1="79.0%"
     y1="0.0%"
     x2="500.0%"
     y2="101.0%" />
<filter id="filter1111" x="-50%" y="-50%" width="200%" height="200%">
<feGaussianBlur in="SourceAlpha" stdDeviation="1" result="blur"/>
<feOffset in="blur" dy="1"/>
<feComposite in2="SourceAlpha" operator="arithmetic"
k2="-1" k3="1" result="hl"/>
<feFlood flood-color="white" flood-opacity="0.2"/>
<feComposite in2="hl" operator="in" result="hl"/>
<feMorphology in="SourceAlpha" radius="0" operator="dilate"/>
<feOffset dy="2"/>
<feGaussianBlur stdDeviation="0 1" result="drop"/>
<feFlood flood-color="black" flood-opacity="1"/>
<feComposite in2="drop" operator="in" result="drop"/>
<feMerge>
<feMergeNode in="drop"/>
<feMergeNode in="SourceGraphic"/>
<feMergeNode in="hl"/>
</feMerge>
</filter>
<use id="1" style="fill:url(#acyl_gradient);filter:url(#filter1111)" xlink:href="#path-main" />
</acyl-settings>
<path
   d="m 24.018811,3.1036798 c -0.169905,0.0147 -0.319001,0.11909 -0.390988,0.27369 L 17.20447,16.97254 2.6039069,19.27937 c -0.17791,0.0275 -0.325159,0.15285 -0.380668,0.3241 -0.05551,0.17125 -0.0098,0.35917 0.118148,0.4858 L 13.020912,30.5342 10.652649,45.44755 c -0.02907,0.18057 0.04774,0.36184 0.197679,0.46657 0.149941,0.10471 0.346578,0.11442 0.506097,0.025 l 13.014273,-7.14389 13.142741,6.90371 c 0.160294,0.0819 0.353025,0.0665 0.498278,-0.0398 0.145254,-0.10628 0.218258,-0.28532 0.188743,-0.46287 L 35.575263,30.3276 46.06488,19.68718 c 0.125074,-0.12849 0.167462,-0.3163 0.109697,-0.48605 -0.05776,-0.16976 -0.205903,-0.29273 -0.383389,-0.31827 L 31.151527,16.84408 24.487994,3.3661998 c -0.08742,-0.17577 -0.273653,-0.27997 -0.469183,-0.26252 l 0,0 z"
   id="path-main"
   style="fill:none"/>
</svg>
