<svg
   xmlns="http://www.w3.org/2000/svg"
   width="48"
   height="48">
<acyl-settings>
<linearGradient
     id="linearGradient4321">
    <stop
       style="stop-color:#0D6DC1;stop-opacity:1.0;"
       offset="0.0"
       id="stop1" />
    <stop
       style="stop-color:#080808;stop-opacity:1.0;"
       offset="1.0"
       id="stop2" />
  </linearGradient>
<linearGradient
     inkscape:collect="always"
     xlink:href="#linearGradient4321"
     id="acyl_gradient"
     x1="79.0%"
     y1="0.0%"
     x2="500.0%"
     y2="101.0%" />
<filter id="filter1111" x="-50%" y="-50%" width="200%" height="200%">
<feGaussianBlur in="SourceAlpha" stdDeviation="1" result="blur"/>
<feOffset in="blur" dy="1"/>
<feComposite in2="SourceAlpha" operator="arithmetic"
k2="-1" k3="1" result="hl"/>
<feFlood flood-color="white" flood-opacity="0.2"/>
<feComposite in2="hl" operator="in" result="hl"/>
<feMorphology in="SourceAlpha" radius="0" operator="dilate"/>
<feOffset dy="2"/>
<feGaussianBlur stdDeviation="0 1" result="drop"/>
<feFlood flood-color="black" flood-opacity="1"/>
<feComposite in2="drop" operator="in" result="drop"/>
<feMerge>
<feMergeNode in="drop"/>
<feMergeNode in="SourceGraphic"/>
<feMergeNode in="hl"/>
</feMerge>
</filter>
<use id="1" style="fill:url(#acyl_gradient);filter:url(#filter1111)" xlink:href="#path-main" />
</acyl-settings>
  <path
     style="fill:none"
     d="m 23.737001,2.0000709 c -7.365504,0 -13.336001,5.9704975 -13.336001,13.3360011 0,3.58216 1.327545,6.915313 3.711016,9.225791 1.081922,1.048789 1.881875,2.257156 2.409942,3.459671 0.343054,0.781204 1.283113,4.040854 1.493276,6.091389 l 11.443532,0 c 0.210163,-2.050535 1.19832,-5.290785 1.493276,-6.091389 0.532159,-1.444449 1.369344,-2.376552 2.409943,-3.459671 C 35.661785,22.168089 37.073,18.918232 37.073,15.336072 37.073,7.9705684 31.102503,2.0000709 23.737001,2.0000709 z M 17.734322,38.385763 c 0,0 -0.412132,4.282872 0.384407,5.41128 C 19.33408,45.51876 21.99443,46 23.737001,46 c 1.742569,0 4.402919,-0.48124 5.61827,-2.202957 0.796539,-1.128408 0.384407,-5.41128 0.384407,-5.41128 z"
     id="path-main" />
</svg>
