<?xml version="1.0" encoding="UTF-8" standalone="no"?>
<!-- Created with Inkscape (http://www.inkscape.org/) -->

<svg
   xmlns:dc="http://purl.org/dc/elements/1.1/"
   xmlns:cc="http://creativecommons.org/ns#"
   xmlns:rdf="http://www.w3.org/1999/02/22-rdf-syntax-ns#"
   xmlns:svg="http://www.w3.org/2000/svg"
   xmlns="http://www.w3.org/2000/svg"
   xmlns:xlink="http://www.w3.org/1999/xlink"
   xmlns:sodipodi="http://sodipodi.sourceforge.net/DTD/sodipodi-0.dtd"
   xmlns:inkscape="http://www.inkscape.org/namespaces/inkscape"
   version="1.0"
   width="48"
   height="48"
   id="svg2"
   inkscape:version="0.47pre4 r22446"
   sodipodi:docname="mail-send-receive.svg">
<acyl-settings>
<linearGradient
     id="linearGradient4321">
    <stop
       style="stop-color:#0D6DC1;stop-opacity:1.0;"
       offset="0.0"
       id="stop1" />
    <stop
       style="stop-color:#080808;stop-opacity:1.0;"
       offset="1.0"
       id="stop2" />
  </linearGradient>
<linearGradient
     inkscape:collect="always"
     xlink:href="#linearGradient4321"
     id="acyl_gradient"
     x1="79.0%"
     y1="0.0%"
     x2="500.0%"
     y2="101.0%" />
<filter id="filter1111" x="-50%" y="-50%" width="200%" height="200%">
<feGaussianBlur in="SourceAlpha" stdDeviation="1" result="blur"/>
<feOffset in="blur" dy="1"/>
<feComposite in2="SourceAlpha" operator="arithmetic"
k2="-1" k3="1" result="hl"/>
<feFlood flood-color="white" flood-opacity="0.2"/>
<feComposite in2="hl" operator="in" result="hl"/>
<feMorphology in="SourceAlpha" radius="0" operator="dilate"/>
<feOffset dy="2"/>
<feGaussianBlur stdDeviation="0 1" result="drop"/>
<feFlood flood-color="black" flood-opacity="1"/>
<feComposite in2="drop" operator="in" result="drop"/>
<feMerge>
<feMergeNode in="drop"/>
<feMergeNode in="SourceGraphic"/>
<feMergeNode in="hl"/>
</feMerge>
</filter>
<use id="1" style="fill:url(#acyl_gradient);filter:url(#filter1111)" xlink:href="#path-main" />
</acyl-settings>
<defs
     id="defs4">
  </defs>
  <path
     style="fill:none"
     id="path-main"
     d="M 35.811418,1.745991 35.613855,2 l -7.987171,9.228993 -23.8203979,0 17.1597179,17.159718 9.652341,-9.652342 0,3.33034 0,0.282233 -1.524054,1.524054 1.524054,1.524053 0,0.282233 0,3.33034 -3.33034,-3.33034 -6.322001,6.322001 -6.322001,-6.322001 -10.8377169,10.837716 23.8203979,0 7.987171,9.228993 L 35.811418,46 36.037203,45.717768 45.576652,34.682489 46,34.202694 l -0.649134,0 -4.261706,0 0,-8.523412 0,-0.282233 -0.310456,0 -0.846696,0 0,-3.048107 0.846696,0 0.310456,0 0,-0.282233 0,-8.523412 4.261706,0 0.649134,0 L 45.576652,13.063502 36.037203,2.0282232 35.811418,1.745991 z m 0,0.9031431 8.918537,10.3014749 -3.951251,0 -0.282232,0 0,0.282233 0,8.551635 -9.313663,0 0,-8.551635 0,-0.282233 -0.282232,0 -3.979474,0 8.890315,-10.3014749 z M 2,13.035279 2,34.710712 12.837716,23.872996 2,13.035279 z m 29.182809,12.926235 9.313663,0 0,8.551635 0,0.282233 0.282232,0 3.951251,0 -8.918537,10.301475 -8.890315,-10.301475 3.979474,0 0.282232,0 0,-0.282233 0,-8.551635 z" />
</svg>
