<?xml version="1.0" encoding="UTF-8" standalone="no"?>
<!-- Created with Inkscape (http://www.inkscape.org/) -->

<svg
   xmlns:dc="http://purl.org/dc/elements/1.1/"
   xmlns:cc="http://creativecommons.org/ns#"
   xmlns:rdf="http://www.w3.org/1999/02/22-rdf-syntax-ns#"
   xmlns:svg="http://www.w3.org/2000/svg"
   xmlns="http://www.w3.org/2000/svg"
   xmlns:xlink="http://www.w3.org/1999/xlink"
   xmlns:sodipodi="http://sodipodi.sourceforge.net/DTD/sodipodi-0.dtd"
   xmlns:inkscape="http://www.inkscape.org/namespaces/inkscape"
   width="48"
   height="48"
   id="svg4908"
   sodipodi:version="0.32"
   inkscape:version="0.47pre4 r22446"
   version="1.0">
<acyl-settings>
<linearGradient
     id="linearGradient4321">
    <stop
       style="stop-color:#0D6DC1;stop-opacity:1.0;"
       offset="0.0"
       id="stop1" />
    <stop
       style="stop-color:#080808;stop-opacity:1.0;"
       offset="1.0"
       id="stop2" />
  </linearGradient>
<linearGradient
     inkscape:collect="always"
     xlink:href="#linearGradient4321"
     id="acyl_gradient"
     x1="79.0%"
     y1="0.0%"
     x2="500.0%"
     y2="101.0%" />
<filter id="filter1111" x="-50%" y="-50%" width="200%" height="200%">
<feGaussianBlur in="SourceAlpha" stdDeviation="1" result="blur"/>
<feOffset in="blur" dy="1"/>
<feComposite in2="SourceAlpha" operator="arithmetic"
k2="-1" k3="1" result="hl"/>
<feFlood flood-color="white" flood-opacity="0.2"/>
<feComposite in2="hl" operator="in" result="hl"/>
<feMorphology in="SourceAlpha" radius="0" operator="dilate"/>
<feOffset dy="2"/>
<feGaussianBlur stdDeviation="0 1" result="drop"/>
<feFlood flood-color="black" flood-opacity="1"/>
<feComposite in2="drop" operator="in" result="drop"/>
<feMerge>
<feMergeNode in="drop"/>
<feMergeNode in="SourceGraphic"/>
<feMergeNode in="hl"/>
</feMerge>
</filter>
<use id="1" style="fill:url(#acyl_gradient);filter:url(#filter1111)" xlink:href="#path-main" />
</acyl-settings>
<defs
     id="defs4910">
  </defs>
    <path
       style="fill:none"
       d="M 7.65625 5.84375 C 5.5733469 5.84375 3.84375 7.5733469 3.84375 9.65625 L 3.84375 40.71875 C 3.84375 42.801653 5.5733469 44.53125 7.65625 44.53125 L 41.375 44.53125 C 43.457903 44.53125 45.1875 42.801653 45.1875 40.71875 L 45.1875 9.65625 C 45.1875 7.5733469 43.457903 5.84375 41.375 5.84375 L 7.65625 5.84375 z M 7.0625 15.28125 L 13.59375 15.28125 L 13.59375 21 L 7.0625 21 L 7.0625 15.28125 z M 16.09375 15.28125 L 41.96875 15.28125 L 41.96875 21 L 16.09375 21 L 16.09375 15.28125 z M 7.0625 23.5 L 13.59375 23.5 L 13.59375 28 L 7.0625 28 L 7.0625 23.5 z M 16.09375 23.5 L 41.96875 23.5 L 41.96875 28 L 16.09375 28 L 16.09375 23.5 z M 7.0625 30.5 L 13.59375 30.5 L 13.59375 34.625 L 7.0625 34.625 L 7.0625 30.5 z M 16.09375 30.5 L 41.96875 30.5 L 41.96875 34.625 L 16.09375 34.625 L 16.09375 30.5 z M 7.0625 37.125 L 13.59375 37.125 L 13.59375 41.34375 L 7.65625 41.34375 C 7.2907958 41.34375 7.0625 41.084204 7.0625 40.71875 L 7.0625 37.125 z M 16.09375 37.125 L 41.96875 37.125 L 41.96875 40.71875 C 41.96875 41.084204 41.740454 41.34375 41.375 41.34375 L 16.09375 41.34375 L 16.09375 37.125 z "
       id="path-main" />
</svg>
