<svg
   xmlns="http://www.w3.org/2000/svg"
   width="48"
   height="48">
<acyl-settings>
<linearGradient
     id="linearGradient4321">
    <stop
       style="stop-color:#0D6DC1;stop-opacity:1.0;"
       offset="0.0"
       id="stop1" />
    <stop
       style="stop-color:#080808;stop-opacity:1.0;"
       offset="1.0"
       id="stop2" />
  </linearGradient>
<linearGradient
     inkscape:collect="always"
     xlink:href="#linearGradient4321"
     id="acyl_gradient"
     x1="79.0%"
     y1="0.0%"
     x2="500.0%"
     y2="101.0%" />
<filter id="filter1111" x="-50%" y="-50%" width="200%" height="200%">
<feGaussianBlur in="SourceAlpha" stdDeviation="1" result="blur"/>
<feOffset in="blur" dy="1"/>
<feComposite in2="SourceAlpha" operator="arithmetic"
k2="-1" k3="1" result="hl"/>
<feFlood flood-color="white" flood-opacity="0.2"/>
<feComposite in2="hl" operator="in" result="hl"/>
<feMorphology in="SourceAlpha" radius="0" operator="dilate"/>
<feOffset dy="2"/>
<feGaussianBlur stdDeviation="0 1" result="drop"/>
<feFlood flood-color="black" flood-opacity="1"/>
<feComposite in2="drop" operator="in" result="drop"/>
<feMerge>
<feMergeNode in="drop"/>
<feMergeNode in="SourceGraphic"/>
<feMergeNode in="hl"/>
</feMerge>
</filter>
<use id="1" style="fill:url(#acyl_gradient);filter:url(#filter1111)" xlink:href="#path-main" />
</acyl-settings>
  <path
     style="fill:none"
     d="M 19.59375 2 C 9.8807319 2 2 9.8731112 2 19.5625 C 2 29.251891 9.8807328 37.093749 19.59375 37.09375 C 23.918039 37.09375 27.877053 35.54901 30.9375 32.96875 L 32.25 37.09375 L 39.9375 45.3125 C 40.4681 45.87962 42.962143 46.720628 44.90625 44.78125 C 46.55588 43.135634 46.024035 40.389849 45.4375 39.84375 L 37.1875 32.15625 L 33.03125 30.875 C 35.617803 27.821996 37.1875 23.876271 37.1875 19.5625 C 37.1875 9.8731102 29.306769 2 19.59375 2 z M 19.59375 6.375 C 26.878514 6.375 32.78125 12.295458 32.78125 19.5625 C 32.781249 26.829544 26.878513 32.71875 19.59375 32.71875 C 12.308987 32.718749 6.375 26.829543 6.375 19.5625 C 6.375 12.295458 12.308987 6.375 19.59375 6.375 z M 17 13.9375 L 12 16.84375 L 7 19.71875 L 12 22.59375 L 17 25.5 L 17 21.4375 L 22.125 21.4375 L 22.125 25.5 L 27.125 22.59375 L 32.09375 19.71875 L 27.125 16.84375 L 22.125 13.9375 L 22.125 18.1875 L 17 18.1875 L 17 13.9375 z "
     id="path-main" />
</svg>
